<svg xmlns="http://www.w3.org/2000/svg" xmlns:xlink="http://www.w3.org/1999/xlink" contentStyleType="text/css" data-diagram-type="ACTIVITY" height="923px" preserveAspectRatio="none" style="width:428px;height:923px;background:#FFFFFF;" version="1.1" viewBox="0 0 428 923" width="428px" zoomAndPan="magnify"><title>Workflow d'une intervention (cr&#233;ation &#8594; cl&#244;ture)</title><defs/><g><g class="title" data-source-line="1"><text fill="#000000" font-family="sans-serif" font-size="14" font-weight="bold" lengthAdjust="spacing" textLength="385.8682" x="20" y="32.9951">Workflow d'une intervention (cr&#233;ation &#8594; cl&#244;ture)</text></g><ellipse cx="229.668" cy="57.2969" fill="#222222" rx="10" ry="10" style="stroke:#222222;stroke-width:1;"/><rect fill="#FFFFFF" height="47.9375" rx="12.5" ry="12.5" style="stroke:#333333;stroke-width:0.5;" width="269.0703" x="95.1328" y="87.2969"/><text fill="#000000" font-family="sans-serif" font-size="12" lengthAdjust="spacing" textLength="121.6289" x="105.1328" y="108.4355">Chef de station cr&#233;e</text><text fill="#000000" font-family="sans-serif" font-size="12" lengthAdjust="spacing" textLength="249.0703" x="105.1328" y="122.4043">l'intervention (titre, &#233;quipement, priorit&#233;)</text><rect fill="#FFFFFF" height="33.9688" rx="12.5" ry="12.5" style="stroke:#333333;stroke-width:0.5;" width="151.2734" x="154.0313" y="155.2344"/><text fill="#000000" font-family="sans-serif" font-size="12" lengthAdjust="spacing" textLength="131.2734" x="164.0313" y="176.373">Statut = EN_ATTENTE</text><polygon fill="#FFFFFF" points="172.5732,209.2031,286.7627,209.2031,298.7627,221.2031,286.7627,233.2031,172.5732,233.2031,160.5732,221.2031,172.5732,209.2031" style="stroke:#333333;stroke-width:0.5;"/><text fill="#000000" font-family="sans-serif" font-size="11" lengthAdjust="spacing" textLength="114.1895" x="172.5732" y="225.0112">Technicien assign&#233; ?</text><text fill="#000000" font-family="sans-serif" font-size="11" lengthAdjust="spacing" textLength="16.7578" x="143.8154" y="218.6089">oui</text><text fill="#000000" font-family="sans-serif" font-size="11" lengthAdjust="spacing" textLength="20.6733" x="298.7627" y="218.6089">non</text><rect fill="#FFFFFF" height="33.9688" rx="12.5" ry="12.5" style="stroke:#333333;stroke-width:0.5;" width="137.5508" x="73.1479" y="243.2031"/><text fill="#000000" font-family="sans-serif" font-size="12" lengthAdjust="spacing" textLength="117.5508" x="83.1479" y="264.3418">Assigner technicien</text><rect fill="#FFFFFF" height="33.9688" rx="12.5" ry="12.5" style="stroke:#333333;stroke-width:0.5;" width="139.4961" x="72.1753" y="297.1719"/><text fill="#000000" font-family="sans-serif" font-size="12" lengthAdjust="spacing" textLength="119.4961" x="82.1753" y="318.3105">Statut = EN_COURS</text><rect fill="#FFFFFF" height="33.9688" rx="12.5" ry="12.5" style="stroke:#333333;stroke-width:0.5;" width="171.4824" x="231.6714" y="243.2031"/><text fill="#000000" font-family="sans-serif" font-size="12" lengthAdjust="spacing" textLength="151.4824" x="241.6714" y="264.3418">File d'attente / &#224; planifier</text><polygon fill="#FFFFFF" points="229.668,337.1406,241.668,349.1406,229.668,361.1406,217.668,349.1406,229.668,337.1406" style="stroke:#333333;stroke-width:0.5;"/><rect fill="#FFFFFF" height="47.9375" rx="12.5" ry="12.5" style="stroke:#333333;stroke-width:0.5;" width="139.4141" x="159.9609" y="381.1406"/><text fill="#000000" font-family="sans-serif" font-size="12" lengthAdjust="spacing" textLength="119.4141" x="169.9609" y="402.2793">Technicien consulte</text><text fill="#000000" font-family="sans-serif" font-size="12" lengthAdjust="spacing" textLength="77.0859" x="169.9609" y="416.248">son planning</text><rect fill="#FFFFFF" height="33.9688" rx="12.5" ry="12.5" style="stroke:#333333;stroke-width:0.5;" width="181.3672" x="138.9844" y="493.0781"/><text fill="#000000" font-family="sans-serif" font-size="12" lengthAdjust="spacing" textLength="161.3672" x="148.9844" y="514.2168">Diagnostic &amp; action terrain</text><polygon fill="#FFFFFF" points="159.9001,547.0469,299.4358,547.0469,311.4358,559.0469,299.4358,571.0469,159.9001,571.0469,147.9001,559.0469,159.9001,547.0469" style="stroke:#333333;stroke-width:0.5;"/><text fill="#000000" font-family="sans-serif" font-size="11" lengthAdjust="spacing" textLength="139.5356" x="159.9001" y="562.855">Besoin de pi&#232;ces / d&#233;lai ?</text><text fill="#000000" font-family="sans-serif" font-size="11" lengthAdjust="spacing" textLength="16.7578" x="131.1423" y="556.4526">oui</text><text fill="#000000" font-family="sans-serif" font-size="11" lengthAdjust="spacing" textLength="20.6733" x="311.4358" y="556.4526">non</text><rect fill="#FFFFFF" height="47.9375" rx="12.5" ry="12.5" style="stroke:#333333;stroke-width:0.5;" width="185.3047" x="45.2478" y="581.0469"/><text fill="#000000" font-family="sans-serif" font-size="12" lengthAdjust="spacing" textLength="165.3047" x="55.2478" y="602.1855">Mettre &#224; jour commentaire,</text><text fill="#000000" font-family="sans-serif" font-size="12" lengthAdjust="spacing" textLength="118.1836" x="55.2478" y="616.1543">replanifier si besoin</text><rect fill="#FFFFFF" height="33.9688" rx="12.5" ry="12.5" style="stroke:#333333;stroke-width:0.5;" width="104.3691" x="269.2512" y="581.0469"/><text fill="#000000" font-family="sans-serif" font-size="12" lengthAdjust="spacing" textLength="84.3691" x="279.2512" y="602.1855">R&#233;solution OK</text><polygon fill="#FFFFFF" points="229.668,634.9844,241.668,646.9844,229.668,658.9844,217.668,646.9844,229.668,634.9844" style="stroke:#333333;stroke-width:0.5;"/><polygon fill="#FFFFFF" points="166.0635,449.0781,293.2725,449.0781,305.2725,461.0781,293.2725,473.0781,166.0635,473.0781,154.0635,461.0781,166.0635,449.0781" style="stroke:#333333;stroke-width:0.5;"/><text fill="#000000" font-family="sans-serif" font-size="11" lengthAdjust="spacing" textLength="127.209" x="166.0635" y="464.8862">Intervention en cours ?</text><rect fill="#FFFFFF" height="47.9375" rx="12.5" ry="12.5" style="stroke:#333333;stroke-width:0.5;" width="182.668" x="138.334" y="700.9844"/><text fill="#000000" font-family="sans-serif" font-size="12" lengthAdjust="spacing" textLength="162.668" x="148.334" y="722.123">Technicien saisit le rapport</text><text fill="#000000" font-family="sans-serif" font-size="12" lengthAdjust="spacing" textLength="86.5723" x="148.334" y="736.0918">+ heure de fin</text><rect fill="#FFFFFF" height="33.9688" rx="12.5" ry="12.5" style="stroke:#333333;stroke-width:0.5;" width="138.5" x="160.418" y="768.9219"/><text fill="#000000" font-family="sans-serif" font-size="12" lengthAdjust="spacing" textLength="118.5" x="170.418" y="790.0605">Statut = CLOTUREE</text><rect fill="#FFFFFF" height="47.9375" rx="12.5" ry="12.5" style="stroke:#333333;stroke-width:0.5;" width="213.377" x="122.9795" y="822.8906"/><text fill="#000000" font-family="sans-serif" font-size="12" lengthAdjust="spacing" textLength="136.9746" x="132.9795" y="844.0293">Chef valide (optionnel)</text><text fill="#000000" font-family="sans-serif" font-size="12" lengthAdjust="spacing" textLength="193.377" x="132.9795" y="857.998">ou revient en cours si incomplet</text><ellipse cx="229.668" cy="901.8281" fill="none" rx="11" ry="11" style="stroke:#222222;stroke-width:1;"/><ellipse cx="229.668" cy="901.8281" fill="#222222" rx="6" ry="6" style="stroke:#222222;stroke-width:1;"/><line style="stroke:#181818;stroke-width:1;" x1="229.668" x2="229.668" y1="67.2969" y2="87.2969"/><polygon fill="#181818" points="225.668,77.2969,229.668,87.2969,233.668,77.2969,229.668,81.2969" style="stroke:#181818;stroke-width:1;"/><line style="stroke:#181818;stroke-width:1;" x1="229.668" x2="229.668" y1="135.2344" y2="155.2344"/><polygon fill="#181818" points="225.668,145.2344,229.668,155.2344,233.668,145.2344,229.668,149.2344" style="stroke:#181818;stroke-width:1;"/><line style="stroke:#181818;stroke-width:1;" x1="141.9233" x2="141.9233" y1="277.1719" y2="297.1719"/><polygon fill="#181818" points="137.9233,287.1719,141.9233,297.1719,145.9233,287.1719,141.9233,291.1719" style="stroke:#181818;stroke-width:1;"/><line style="stroke:#181818;stroke-width:1;" x1="160.5732" x2="141.9233" y1="221.2031" y2="221.2031"/><line style="stroke:#181818;stroke-width:1;" x1="141.9233" x2="141.9233" y1="221.2031" y2="243.2031"/><polygon fill="#181818" points="137.9233,233.2031,141.9233,243.2031,145.9233,233.2031,141.9233,237.2031" style="stroke:#181818;stroke-width:1;"/><line style="stroke:#181818;stroke-width:1;" x1="298.7627" x2="317.4126" y1="221.2031" y2="221.2031"/><line style="stroke:#181818;stroke-width:1;" x1="317.4126" x2="317.4126" y1="221.2031" y2="243.2031"/><polygon fill="#181818" points="313.4126,233.2031,317.4126,243.2031,321.4126,233.2031,317.4126,237.2031" style="stroke:#181818;stroke-width:1;"/><line style="stroke:#181818;stroke-width:1;" x1="141.9233" x2="141.9233" y1="331.1406" y2="349.1406"/><line style="stroke:#181818;stroke-width:1;" x1="141.9233" x2="217.668" y1="349.1406" y2="349.1406"/><polygon fill="#181818" points="207.668,345.1406,217.668,349.1406,207.668,353.1406,211.668,349.1406" style="stroke:#181818;stroke-width:1;"/><line style="stroke:#181818;stroke-width:1;" x1="317.4126" x2="317.4126" y1="277.1719" y2="349.1406"/><line style="stroke:#181818;stroke-width:1;" x1="317.4126" x2="241.668" y1="349.1406" y2="349.1406"/><polygon fill="#181818" points="251.668,345.1406,241.668,349.1406,251.668,353.1406,247.668,349.1406" style="stroke:#181818;stroke-width:1;"/><line style="stroke:#181818;stroke-width:1;" x1="229.668" x2="229.668" y1="189.2031" y2="209.2031"/><polygon fill="#181818" points="225.668,199.2031,229.668,209.2031,233.668,199.2031,229.668,203.2031" style="stroke:#181818;stroke-width:1;"/><line style="stroke:#181818;stroke-width:1;" x1="229.668" x2="229.668" y1="361.1406" y2="381.1406"/><polygon fill="#181818" points="225.668,371.1406,229.668,381.1406,233.668,371.1406,229.668,375.1406" style="stroke:#181818;stroke-width:1;"/><line style="stroke:#181818;stroke-width:1;" x1="147.9001" x2="137.9001" y1="559.0469" y2="559.0469"/><line style="stroke:#181818;stroke-width:1;" x1="137.9001" x2="137.9001" y1="559.0469" y2="581.0469"/><polygon fill="#181818" points="133.9001,571.0469,137.9001,581.0469,141.9001,571.0469,137.9001,575.0469" style="stroke:#181818;stroke-width:1;"/><line style="stroke:#181818;stroke-width:1;" x1="311.4358" x2="321.4358" y1="559.0469" y2="559.0469"/><line style="stroke:#181818;stroke-width:1;" x1="321.4358" x2="321.4358" y1="559.0469" y2="581.0469"/><polygon fill="#181818" points="317.4358,571.0469,321.4358,581.0469,325.4358,571.0469,321.4358,575.0469" style="stroke:#181818;stroke-width:1;"/><line style="stroke:#181818;stroke-width:1;" x1="137.9001" x2="137.9001" y1="628.9844" y2="646.9844"/><line style="stroke:#181818;stroke-width:1;" x1="137.9001" x2="217.668" y1="646.9844" y2="646.9844"/><polygon fill="#181818" points="207.668,642.9844,217.668,646.9844,207.668,650.9844,211.668,646.9844" style="stroke:#181818;stroke-width:1;"/><line style="stroke:#181818;stroke-width:1;" x1="321.4358" x2="321.4358" y1="615.0156" y2="646.9844"/><line style="stroke:#181818;stroke-width:1;" x1="321.4358" x2="241.668" y1="646.9844" y2="646.9844"/><polygon fill="#181818" points="251.668,642.9844,241.668,646.9844,251.668,650.9844,247.668,646.9844" style="stroke:#181818;stroke-width:1;"/><line style="stroke:#181818;stroke-width:1;" x1="229.668" x2="229.668" y1="527.0469" y2="547.0469"/><polygon fill="#181818" points="225.668,537.0469,229.668,547.0469,233.668,537.0469,229.668,541.0469" style="stroke:#181818;stroke-width:1;"/><line style="stroke:#181818;stroke-width:1;" x1="229.668" x2="229.668" y1="473.0781" y2="493.0781"/><polygon fill="#181818" points="225.668,483.0781,229.668,493.0781,233.668,483.0781,229.668,487.0781" style="stroke:#181818;stroke-width:1;"/><line style="stroke:#181818;stroke-width:1;" x1="229.668" x2="229.668" y1="658.9844" y2="668.9844"/><line style="stroke:#181818;stroke-width:1;" x1="229.668" x2="395.6204" y1="668.9844" y2="668.9844"/><polygon fill="#181818" points="391.6204,566.5313,395.6204,556.5313,399.6204,566.5313,395.6204,562.5313" style="stroke:#181818;stroke-width:1;"/><line style="stroke:#181818;stroke-width:1;" x1="395.6204" x2="395.6204" y1="461.0781" y2="668.9844"/><line style="stroke:#181818;stroke-width:1;" x1="395.6204" x2="305.2725" y1="461.0781" y2="461.0781"/><polygon fill="#181818" points="315.2725,457.0781,305.2725,461.0781,315.2725,465.0781,311.2725,461.0781" style="stroke:#181818;stroke-width:1;"/><line style="stroke:#181818;stroke-width:1;" x1="154.0635" x2="31.2478" y1="461.0781" y2="461.0781"/><polygon fill="#181818" points="27.2478,552.5313,31.2478,562.5313,35.2478,552.5313,31.2478,556.5313" style="stroke:#181818;stroke-width:1;"/><line style="stroke:#181818;stroke-width:1;" x1="31.2478" x2="31.2478" y1="461.0781" y2="680.9844"/><line style="stroke:#181818;stroke-width:1;" x1="31.2478" x2="229.668" y1="680.9844" y2="680.9844"/><line style="stroke:#181818;stroke-width:1;" x1="229.668" x2="229.668" y1="680.9844" y2="700.9844"/><polygon fill="#181818" points="225.668,690.9844,229.668,700.9844,233.668,690.9844,229.668,694.9844" style="stroke:#181818;stroke-width:1;"/><line style="stroke:#181818;stroke-width:1;" x1="229.668" x2="229.668" y1="429.0781" y2="449.0781"/><polygon fill="#181818" points="225.668,439.0781,229.668,449.0781,233.668,439.0781,229.668,443.0781" style="stroke:#181818;stroke-width:1;"/><line style="stroke:#181818;stroke-width:1;" x1="229.668" x2="229.668" y1="748.9219" y2="768.9219"/><polygon fill="#181818" points="225.668,758.9219,229.668,768.9219,233.668,758.9219,229.668,762.9219" style="stroke:#181818;stroke-width:1;"/><line style="stroke:#181818;stroke-width:1;" x1="229.668" x2="229.668" y1="802.8906" y2="822.8906"/><polygon fill="#181818" points="225.668,812.8906,229.668,822.8906,233.668,812.8906,229.668,816.8906" style="stroke:#181818;stroke-width:1;"/><line style="stroke:#181818;stroke-width:1;" x1="229.668" x2="229.668" y1="870.8281" y2="890.8281"/><polygon fill="#181818" points="225.668,880.8281,229.668,890.8281,233.668,880.8281,229.668,884.8281" style="stroke:#181818;stroke-width:1;"/><!--SRC=[RP91ZjD044NtFaL9ICJMZCGYkrW8pOICX829bCc8JIJKsEMuIAVQT9SJSG4Em0bOuZqty4qu2TNDQ2OHU66vgtzNlV_TGc8HFZY_QwmxGZtf6O5Oq1-GXHn3NlbnCEdpzxVlKDdnb_GUYopiY3lZpHv2Qsft9Dv2Osp0anrJ2Hr8lbuxNwEVE-iyF9jEf_-Jc6gtzQxd-a5savui2sAyPDbitc83DOAk4qtamWtRoJcka7YyX77uqbE7UorVGkV9UP9nACfiTgVdUu6NiBZzUBLUBsxNYpBBg85yZLNBL14oc11eo-C0hmgGLWkvwwd806PNQGSzoAEwZFNJjlFb_Ugkp533W9mTfuCtf4dN4oEYJ0WlOFm1dJLC3Q5NCTVKgCqJYCfnwAseoQ3EefOrP8Kzjh5N_kRKUDBtFYXndFQQp9PT4AhWUSfO9QhsXX9kj7kDmH77I3iQVrOObAaU1sle7zVQy3sA1XkXF-iOdRMFsHhIi3ViyT49189FgNESSnQ1TbcDGt2sJpZBjqcHVEixcJeF81WA9A1UlUawvsN35z2YNhz8tSGHJxdFtotNzwj5_9b_xyh1M59PxheuZj4M6tOzU3neRtaAJ869rKzdKSfutrpt1m00]--></g></svg>