<svg xmlns="http://www.w3.org/2000/svg" xmlns:xlink="http://www.w3.org/1999/xlink" contentStyleType="text/css" data-diagram-type="CLASS" height="1323px" preserveAspectRatio="none" style="width:1131px;height:1323px;background:#FFFFFF;" version="1.1" viewBox="0 0 1131 1323" width="1131px" zoomAndPan="magnify"><defs/><g><!--class Role--><g class="entity" data-entity="Role" data-source-line="6" data-uid="ent0002" id="entity_Role"><rect fill="#F1F1F1" height="88.8906" rx="2.5" ry="2.5" style="stroke:#181818;stroke-width:0.5;" width="62.7959" x="18.85" y="39.6"/><ellipse cx="33.85" cy="55.6" fill="#EB937F" rx="11" ry="11" style="stroke:#181818;stroke-width:1;"/><path d="M37.9594,61.6 L30.2406,61.6 L30.2406,49.2094 L37.9594,49.2094 L37.9594,51.3656 L32.6938,51.3656 L32.6938,54.0375 L37.4594,54.0375 L37.4594,56.1937 L32.6938,56.1937 L32.6938,59.4437 L37.9594,59.4437 L37.9594,61.6 Z " fill="#000000"/><text fill="#000000" font-family="sans-serif" font-size="14" lengthAdjust="spacing" textLength="30.7959" x="47.85" y="60.4467">Role</text><line style="stroke:#181818;stroke-width:0.5;" x1="19.85" x2="80.6459" y1="71.6" y2="71.6"/><text fill="#000000" font-family="sans-serif" font-size="14" lengthAdjust="spacing" textLength="47.0381" x="24.85" y="88.5951">ADMIN</text><text fill="#000000" font-family="sans-serif" font-size="14" lengthAdjust="spacing" textLength="37.2012" x="24.85" y="104.892">CHEF</text><text fill="#000000" font-family="sans-serif" font-size="14" lengthAdjust="spacing" textLength="37.7002" x="24.85" y="121.1889">TECH</text></g><!--class StatutEquip--><g class="entity" data-entity="StatutEquip" data-source-line="12" data-uid="ent0003" id="entity_StatutEquip"><rect fill="#F1F1F1" height="88.8906" rx="2.5" ry="2.5" style="stroke:#181818;stroke-width:0.5;" width="118.9482" x="116.77" y="39.6"/><ellipse cx="133.9119" cy="55.6" fill="#EB937F" rx="11" ry="11" style="stroke:#181818;stroke-width:1;"/><path d="M138.0213,61.6 L130.3025,61.6 L130.3025,49.2094 L138.0213,49.2094 L138.0213,51.3656 L132.7556,51.3656 L132.7556,54.0375 L137.5213,54.0375 L137.5213,56.1937 L132.7556,56.1937 L132.7556,59.4437 L138.0213,59.4437 L138.0213,61.6 Z " fill="#000000"/><text fill="#000000" font-family="sans-serif" font-size="14" lengthAdjust="spacing" textLength="82.1885" x="148.3879" y="60.4467">StatutEquip</text><line style="stroke:#181818;stroke-width:0.5;" x1="117.77" x2="234.7182" y1="71.6" y2="71.6"/><text fill="#000000" font-family="sans-serif" font-size="14" lengthAdjust="spacing" textLength="40.0859" x="122.77" y="88.5951">ACTIF</text><text fill="#000000" font-family="sans-serif" font-size="14" lengthAdjust="spacing" textLength="102.7988" x="122.77" y="104.892">MAINTENANCE</text><text fill="#000000" font-family="sans-serif" font-size="14" lengthAdjust="spacing" textLength="106.9482" x="122.77" y="121.1889">HORS_SERVICE</text></g><!--class Criticite--><g class="entity" data-entity="Criticite" data-source-line="18" data-uid="ent0004" id="entity_Criticite"><rect fill="#F1F1F1" height="88.8906" rx="2.5" ry="2.5" style="stroke:#181818;stroke-width:0.5;" width="86.4893" x="7" y="278.82"/><ellipse cx="22" cy="294.82" fill="#EB937F" rx="11" ry="11" style="stroke:#181818;stroke-width:1;"/><path d="M26.1094,300.82 L18.3906,300.82 L18.3906,288.4294 L26.1094,288.4294 L26.1094,290.5856 L20.8438,290.5856 L20.8438,293.2575 L25.6094,293.2575 L25.6094,295.4137 L20.8438,295.4137 L20.8438,298.6637 L26.1094,298.6637 L26.1094,300.82 Z " fill="#000000"/><text fill="#000000" font-family="sans-serif" font-size="14" lengthAdjust="spacing" textLength="54.4893" x="36" y="299.6667">Criticite</text><line style="stroke:#181818;stroke-width:0.5;" x1="8" x2="92.4893" y1="310.82" y2="310.82"/><text fill="#000000" font-family="sans-serif" font-size="14" lengthAdjust="spacing" textLength="48.0088" x="13" y="327.8151">FAIBLE</text><text fill="#000000" font-family="sans-serif" font-size="14" lengthAdjust="spacing" textLength="70.2871" x="13" y="344.112">MOYENNE</text><text fill="#000000" font-family="sans-serif" font-size="14" lengthAdjust="spacing" textLength="52.7598" x="13" y="360.4089">ELEVEE</text></g><!--class StatutInterv--><g class="entity" data-entity="StatutInterv" data-source-line="24" data-uid="ent0005" id="entity_StatutInterv"><rect fill="#F1F1F1" height="88.8906" rx="2.5" ry="2.5" style="stroke:#181818;stroke-width:0.5;" width="115.9521" x="128.27" y="278.82"/><ellipse cx="143.27" cy="294.82" fill="#EB937F" rx="11" ry="11" style="stroke:#181818;stroke-width:1;"/><path d="M147.3794,300.82 L139.6606,300.82 L139.6606,288.4294 L147.3794,288.4294 L147.3794,290.5856 L142.1137,290.5856 L142.1137,293.2575 L146.8794,293.2575 L146.8794,295.4137 L142.1137,295.4137 L142.1137,298.6637 L147.3794,298.6637 L147.3794,300.82 Z " fill="#000000"/><text fill="#000000" font-family="sans-serif" font-size="14" lengthAdjust="spacing" textLength="83.9521" x="157.27" y="299.6667">StatutInterv</text><line style="stroke:#181818;stroke-width:0.5;" x1="129.27" x2="243.2221" y1="310.82" y2="310.82"/><text fill="#000000" font-family="sans-serif" font-size="14" lengthAdjust="spacing" textLength="89.7148" x="134.27" y="327.8151">EN_ATTENTE</text><text fill="#000000" font-family="sans-serif" font-size="14" lengthAdjust="spacing" textLength="75.9746" x="134.27" y="344.112">EN_COURS</text><text fill="#000000" font-family="sans-serif" font-size="14" lengthAdjust="spacing" textLength="74.8125" x="134.27" y="360.4089">CLOTUREE</text></g><!--class Utilisateur--><g class="entity" data-entity="Utilisateur" data-source-line="31" data-uid="ent0006" id="entity_Utilisateur"><rect fill="#F1F1F1" height="154.0781" rx="2.5" ry="2.5" style="stroke:#181818;stroke-width:0.5;" width="195.668" x="450.41" y="7"/><ellipse cx="507.9891" cy="23" fill="#ADD1B2" rx="11" ry="11" style="stroke:#181818;stroke-width:1;"/><path d="M510.9579,28.6406 Q510.3797,28.9375 509.7391,29.0781 Q509.0985,29.2344 508.3954,29.2344 Q505.8954,29.2344 504.5672,27.5938 Q503.2547,25.9375 503.2547,22.8125 Q503.2547,19.6875 504.5672,18.0313 Q505.8954,16.375 508.3954,16.375 Q509.0985,16.375 509.7391,16.5313 Q510.3954,16.6875 510.9579,16.9844 L510.9579,19.7031 Q510.3329,19.125 509.7391,18.8594 Q509.1454,18.5781 508.5204,18.5781 Q507.1766,18.5781 506.4891,19.6563 Q505.8016,20.7188 505.8016,22.8125 Q505.8016,24.9063 506.4891,25.9844 Q507.1766,27.0469 508.5204,27.0469 Q509.1454,27.0469 509.7391,26.7813 Q510.3329,26.5 510.9579,25.9219 L510.9579,28.6406 Z " fill="#000000"/><text fill="#000000" font-family="sans-serif" font-size="14" lengthAdjust="spacing" textLength="72.0098" x="528.4891" y="27.8467">Utilisateur</text><line style="stroke:#181818;stroke-width:0.5;" x1="451.41" x2="645.078" y1="39" y2="39"/><text fill="#000000" font-family="sans-serif" font-size="14" lengthAdjust="spacing" textLength="51.9258" x="456.41" y="55.9951">+id: int</text><text fill="#000000" font-family="sans-serif" font-size="14" lengthAdjust="spacing" textLength="92.1621" x="456.41" y="72.292">+nom: string</text><text fill="#000000" font-family="sans-serif" font-size="14" lengthAdjust="spacing" textLength="99.6953" x="456.41" y="88.5889">+email: string</text><text fill="#000000" font-family="sans-serif" font-size="14" lengthAdjust="spacing" textLength="183.668" x="456.41" y="104.8857">+motDePasseHash: string</text><text fill="#000000" font-family="sans-serif" font-size="14" lengthAdjust="spacing" textLength="78.5176" x="456.41" y="121.1826">+role: Role</text><text fill="#000000" font-family="sans-serif" font-size="14" lengthAdjust="spacing" textLength="107.4541" x="456.41" y="137.4795">+actif: boolean</text><text fill="#000000" font-family="sans-serif" font-size="14" lengthAdjust="spacing" textLength="131.1885" x="456.41" y="153.7764">+creeLe: datetime</text></g><!--class SiteDiffusion--><g class="entity" data-entity="SiteDiffusion" data-source-line="41" data-uid="ent0007" id="entity_SiteDiffusion"><rect fill="#F1F1F1" height="121.4844" rx="2.5" ry="2.5" style="stroke:#181818;stroke-width:0.5;" width="159.3281" x="614.58" y="485.46"/><ellipse cx="646.872" cy="501.46" fill="#ADD1B2" rx="11" ry="11" style="stroke:#181818;stroke-width:1;"/><path d="M649.8408,507.1006 Q649.2627,507.3975 648.622,507.5381 Q647.9814,507.6944 647.2783,507.6944 Q644.7783,507.6944 643.4502,506.0538 Q642.1377,504.3975 642.1377,501.2725 Q642.1377,498.1475 643.4502,496.4913 Q644.7783,494.835 647.2783,494.835 Q647.9814,494.835 648.622,494.9913 Q649.2783,495.1475 649.8408,495.4444 L649.8408,498.1631 Q649.2158,497.585 648.622,497.3194 Q648.0283,497.0381 647.4033,497.0381 Q646.0595,497.0381 645.372,498.1163 Q644.6845,499.1788 644.6845,501.2725 Q644.6845,503.3663 645.372,504.4444 Q646.0595,505.5069 647.4033,505.5069 Q648.0283,505.5069 648.622,505.2413 Q649.2158,504.96 649.8408,504.3819 L649.8408,507.1006 Z " fill="#000000"/><text fill="#000000" font-family="sans-serif" font-size="14" lengthAdjust="spacing" textLength="88.9014" x="664.7147" y="506.3067">SiteDiffusion</text><line style="stroke:#181818;stroke-width:0.5;" x1="615.58" x2="772.9081" y1="517.46" y2="517.46"/><text fill="#000000" font-family="sans-serif" font-size="14" lengthAdjust="spacing" textLength="51.9258" x="620.58" y="534.4551">+id: int</text><text fill="#000000" font-family="sans-serif" font-size="14" lengthAdjust="spacing" textLength="92.1621" x="620.58" y="550.752">+nom: string</text><text fill="#000000" font-family="sans-serif" font-size="14" lengthAdjust="spacing" textLength="147.3281" x="620.58" y="567.0489">+gouvernorat: string</text><text fill="#000000" font-family="sans-serif" font-size="14" lengthAdjust="spacing" textLength="106.0596" x="620.58" y="583.3457">+latitude: float</text><text fill="#000000" font-family="sans-serif" font-size="14" lengthAdjust="spacing" textLength="118.3164" x="620.58" y="599.6426">+longitude: float</text></g><!--class Equipement--><g class="entity" data-entity="Equipement" data-source-line="49" data-uid="ent0008" id="entity_Equipement"><rect fill="#F1F1F1" height="137.7813" rx="2.5" ry="2.5" style="stroke:#181818;stroke-width:0.5;" width="156.2998" x="551.09" y="692.09"/><ellipse cx="583.9511" cy="708.09" fill="#ADD1B2" rx="11" ry="11" style="stroke:#181818;stroke-width:1;"/><path d="M586.9199,713.7306 Q586.3418,714.0275 585.7011,714.1681 Q585.0605,714.3244 584.3574,714.3244 Q581.8574,714.3244 580.5293,712.6838 Q579.2168,711.0275 579.2168,707.9025 Q579.2168,704.7775 580.5293,703.1213 Q581.8574,701.465 584.3574,701.465 Q585.0605,701.465 585.7011,701.6213 Q586.3574,701.7775 586.9199,702.0744 L586.9199,704.7931 Q586.2949,704.215 585.7011,703.9494 Q585.1074,703.6681 584.4824,703.6681 Q583.1386,703.6681 582.4511,704.7463 Q581.7636,705.8088 581.7636,707.9025 Q581.7636,709.9963 582.4511,711.0744 Q583.1386,712.1369 584.4824,712.1369 Q585.1074,712.1369 585.7011,711.8713 Q586.2949,711.59 586.9199,711.0119 L586.9199,713.7306 Z " fill="#000000"/><text fill="#000000" font-family="sans-serif" font-size="14" lengthAdjust="spacing" textLength="84.6084" x="601.9203" y="712.9367">Equipement</text><line style="stroke:#181818;stroke-width:0.5;" x1="552.09" x2="706.3898" y1="724.09" y2="724.09"/><text fill="#000000" font-family="sans-serif" font-size="14" lengthAdjust="spacing" textLength="51.9258" x="557.09" y="741.0851">+id: int</text><text fill="#000000" font-family="sans-serif" font-size="14" lengthAdjust="spacing" textLength="77.4512" x="557.09" y="757.382">+siteId: int</text><text fill="#000000" font-family="sans-serif" font-size="14" lengthAdjust="spacing" textLength="80.3838" x="557.09" y="773.6789">+ref: string</text><text fill="#000000" font-family="sans-serif" font-size="14" lengthAdjust="spacing" textLength="92.3604" x="557.09" y="789.9757">+type: string</text><text fill="#000000" font-family="sans-serif" font-size="14" lengthAdjust="spacing" textLength="144.2998" x="557.09" y="806.2726">+statut: StatutEquip</text><text fill="#000000" font-family="sans-serif" font-size="14" lengthAdjust="spacing" textLength="127.7979" x="557.09" y="822.5695">+criticite: Criticite</text></g><!--class Frequence--><g class="entity" data-entity="Frequence" data-source-line="58" data-uid="ent0009" id="entity_Frequence"><rect fill="#F1F1F1" height="154.0781" rx="2.5" ry="2.5" style="stroke:#181818;stroke-width:0.5;" width="123.2344" x="742.63" y="683.94"/><ellipse cx="765.3951" cy="699.94" fill="#ADD1B2" rx="11" ry="11" style="stroke:#181818;stroke-width:1;"/><path d="M768.3639,705.5806 Q767.7858,705.8775 767.1451,706.0181 Q766.5045,706.1744 765.8014,706.1744 Q763.3014,706.1744 761.9733,704.5337 Q760.6608,702.8775 760.6608,699.7525 Q760.6608,696.6275 761.9733,694.9712 Q763.3014,693.315 765.8014,693.315 Q766.5045,693.315 767.1451,693.4712 Q767.8014,693.6275 768.3639,693.9244 L768.3639,696.6431 Q767.7389,696.065 767.1451,695.7994 Q766.5514,695.5181 765.9264,695.5181 Q764.5826,695.5181 763.8951,696.5962 Q763.2076,697.6587 763.2076,699.7525 Q763.2076,701.8462 763.8951,702.9244 Q764.5826,703.9869 765.9264,703.9869 Q766.5514,703.9869 767.1451,703.7212 Q767.7389,703.44 768.3639,702.8619 L768.3639,705.5806 Z " fill="#000000"/><text fill="#000000" font-family="sans-serif" font-size="14" lengthAdjust="spacing" textLength="73.9785" x="781.1207" y="704.7867">Frequence</text><line style="stroke:#181818;stroke-width:0.5;" x1="743.63" x2="864.8644" y1="715.94" y2="715.94"/><text fill="#000000" font-family="sans-serif" font-size="14" lengthAdjust="spacing" textLength="51.9258" x="748.63" y="732.9351">+id: int</text><text fill="#000000" font-family="sans-serif" font-size="14" lengthAdjust="spacing" textLength="77.4512" x="748.63" y="749.232">+siteId: int</text><text fill="#000000" font-family="sans-serif" font-size="14" lengthAdjust="spacing" textLength="111.2344" x="748.63" y="765.5289">+service: string</text><text fill="#000000" font-family="sans-serif" font-size="14" lengthAdjust="spacing" textLength="104.9248" x="748.63" y="781.8257">+bande: string</text><text fill="#000000" font-family="sans-serif" font-size="14" lengthAdjust="spacing" textLength="82.209" x="748.63" y="798.1226">+mhz: float</text><text fill="#000000" font-family="sans-serif" font-size="14" lengthAdjust="spacing" textLength="109.2656" x="748.63" y="814.4195">+station: string</text><text fill="#000000" font-family="sans-serif" font-size="14" lengthAdjust="spacing" textLength="102.2998" x="748.63" y="830.7164">+statut: string</text></g><!--class Intervention--><g class="entity" data-entity="Intervention" data-source-line="68" data-uid="ent0010" id="entity_Intervention"><rect fill="#F1F1F1" height="219.2656" rx="2.5" ry="2.5" style="stroke:#181818;stroke-width:0.5;" width="170.3066" x="382.09" y="899.02"/><ellipse cx="420.8758" cy="915.02" fill="#ADD1B2" rx="11" ry="11" style="stroke:#181818;stroke-width:1;"/><path d="M423.8446,920.6606 Q423.2665,920.9575 422.6258,921.0981 Q421.9852,921.2544 421.2821,921.2544 Q418.7821,921.2544 417.454,919.6138 Q416.1415,917.9575 416.1415,914.8325 Q416.1415,911.7075 417.454,910.0513 Q418.7821,908.395 421.2821,908.395 Q421.9852,908.395 422.6258,908.5513 Q423.2821,908.7075 423.8446,909.0044 L423.8446,911.7231 Q423.2196,911.145 422.6258,910.8794 Q422.0321,910.5981 421.4071,910.5981 Q420.0633,910.5981 419.3758,911.6763 Q418.6883,912.7388 418.6883,914.8325 Q418.6883,916.9263 419.3758,918.0044 Q420.0633,919.0669 421.4071,919.0669 Q422.0321,919.0669 422.6258,918.8013 Q423.2196,918.52 423.8446,917.9419 L423.8446,920.6606 Z " fill="#000000"/><text fill="#000000" font-family="sans-serif" font-size="14" lengthAdjust="spacing" textLength="85.4492" x="440.1616" y="919.8667">Intervention</text><line style="stroke:#181818;stroke-width:0.5;" x1="383.09" x2="551.3966" y1="931.02" y2="931.02"/><text fill="#000000" font-family="sans-serif" font-size="14" lengthAdjust="spacing" textLength="51.9258" x="388.09" y="948.0151">+id: int</text><text fill="#000000" font-family="sans-serif" font-size="14" lengthAdjust="spacing" textLength="136.541" x="388.09" y="964.312">+equipementId: int</text><text fill="#000000" font-family="sans-serif" font-size="14" lengthAdjust="spacing" textLength="90.3232" x="388.09" y="980.6089">+titre: string</text><text fill="#000000" font-family="sans-serif" font-size="14" lengthAdjust="spacing" textLength="126.6152" x="388.09" y="996.9057">+description: text</text><text fill="#000000" font-family="sans-serif" font-size="14" lengthAdjust="spacing" textLength="89.9951" x="388.09" y="1013.2026">+priorite: int</text><text fill="#000000" font-family="sans-serif" font-size="14" lengthAdjust="spacing" textLength="146.0635" x="388.09" y="1029.4995">+statut: StatutInterv</text><text fill="#000000" font-family="sans-serif" font-size="14" lengthAdjust="spacing" textLength="92.6064" x="388.09" y="1045.7964">+creePar: int</text><text fill="#000000" font-family="sans-serif" font-size="14" lengthAdjust="spacing" textLength="102.1563" x="388.09" y="1062.0932">+assigneA: int</text><text fill="#000000" font-family="sans-serif" font-size="14" lengthAdjust="spacing" textLength="158.3066" x="388.09" y="1078.3901">+dateDebut: datetime</text><text fill="#000000" font-family="sans-serif" font-size="14" lengthAdjust="spacing" textLength="136.4795" x="388.09" y="1094.687">+dateFin: datetime</text><text fill="#000000" font-family="sans-serif" font-size="14" lengthAdjust="spacing" textLength="100.6934" x="388.09" y="1110.9839">+rapport: text</text></g><!--class Planning--><g class="entity" data-entity="Planning" data-source-line="82" data-uid="ent0011" id="entity_Planning"><rect fill="#F1F1F1" height="121.4844" rx="2.5" ry="2.5" style="stroke:#181818;stroke-width:0.5;" width="149.375" x="251.56" y="1195.29"/><ellipse cx="292.2408" cy="1211.29" fill="#ADD1B2" rx="11" ry="11" style="stroke:#181818;stroke-width:1;"/><path d="M295.2095,1216.9306 Q294.6314,1217.2275 293.9908,1217.3681 Q293.3501,1217.5244 292.647,1217.5244 Q290.147,1217.5244 288.8189,1215.8838 Q287.5064,1214.2275 287.5064,1211.1025 Q287.5064,1207.9775 288.8189,1206.3213 Q290.147,1204.665 292.647,1204.665 Q293.3501,1204.665 293.9908,1204.8213 Q294.647,1204.9775 295.2095,1205.2744 L295.2095,1207.9931 Q294.5845,1207.415 293.9908,1207.1494 Q293.397,1206.8681 292.772,1206.8681 Q291.4283,1206.8681 290.7408,1207.9463 Q290.0533,1209.0088 290.0533,1211.1025 Q290.0533,1213.1963 290.7408,1214.2744 Q291.4283,1215.3369 292.772,1215.3369 Q293.397,1215.3369 293.9908,1215.0713 Q294.5845,1214.79 295.2095,1214.2119 L295.2095,1216.9306 Z " fill="#000000"/><text fill="#000000" font-family="sans-serif" font-size="14" lengthAdjust="spacing" textLength="60.3066" x="311.9476" y="1216.1367">Planning</text><line style="stroke:#181818;stroke-width:0.5;" x1="252.56" x2="399.935" y1="1227.29" y2="1227.29"/><text fill="#000000" font-family="sans-serif" font-size="14" lengthAdjust="spacing" textLength="51.9258" x="257.56" y="1244.2851">+id: int</text><text fill="#000000" font-family="sans-serif" font-size="14" lengthAdjust="spacing" textLength="122.8008" x="257.56" y="1260.582">+utilisateurId: int</text><text fill="#000000" font-family="sans-serif" font-size="14" lengthAdjust="spacing" textLength="137.375" x="257.56" y="1276.8789">+interventionId: int</text><text fill="#000000" font-family="sans-serif" font-size="14" lengthAdjust="spacing" textLength="124.8447" x="257.56" y="1293.1757">+debut: datetime</text><text fill="#000000" font-family="sans-serif" font-size="14" lengthAdjust="spacing" textLength="101.7871" x="257.56" y="1309.4726">+fin: datetime</text></g><!--class Alerte--><g class="entity" data-entity="Alerte" data-source-line="90" data-uid="ent0012" id="entity_Alerte"><rect fill="#F1F1F1" height="170.375" rx="2.5" ry="2.5" style="stroke:#181818;stroke-width:0.5;" width="175.2969" x="551.6" y="238.08"/><ellipse cx="614.0292" cy="254.08" fill="#ADD1B2" rx="11" ry="11" style="stroke:#181818;stroke-width:1;"/><path d="M616.9979,259.7206 Q616.4198,260.0175 615.7792,260.1581 Q615.1386,260.3144 614.4354,260.3144 Q611.9354,260.3144 610.6073,258.6737 Q609.2948,257.0175 609.2948,253.8925 Q609.2948,250.7675 610.6073,249.1112 Q611.9354,247.455 614.4354,247.455 Q615.1386,247.455 615.7792,247.6112 Q616.4354,247.7675 616.9979,248.0644 L616.9979,250.7831 Q616.3729,250.205 615.7792,249.9394 Q615.1854,249.6581 614.5604,249.6581 Q613.2167,249.6581 612.5292,250.7362 Q611.8417,251.7987 611.8417,253.8925 Q611.8417,255.9862 612.5292,257.0644 Q613.2167,258.1269 614.5604,258.1269 Q615.1854,258.1269 615.7792,257.8612 Q616.3729,257.58 616.9979,257.0019 L616.9979,259.7206 Z " fill="#000000"/><text fill="#000000" font-family="sans-serif" font-size="14" lengthAdjust="spacing" textLength="41.9385" x="634.5292" y="258.9267">Alerte</text><line style="stroke:#181818;stroke-width:0.5;" x1="552.6" x2="725.8969" y1="270.08" y2="270.08"/><text fill="#000000" font-family="sans-serif" font-size="14" lengthAdjust="spacing" textLength="51.9258" x="557.6" y="287.0751">+id: int</text><text fill="#000000" font-family="sans-serif" font-size="14" lengthAdjust="spacing" textLength="90.3232" x="557.6" y="303.372">+titre: string</text><text fill="#000000" font-family="sans-serif" font-size="14" lengthAdjust="spacing" textLength="111.6924" x="557.6" y="319.6689">+message: text</text><text fill="#000000" font-family="sans-serif" font-size="14" lengthAdjust="spacing" textLength="108.1992" x="557.6" y="335.9657">+niveau: string</text><text fill="#000000" font-family="sans-serif" font-size="14" lengthAdjust="spacing" textLength="163.2969" x="557.6" y="352.2626">+visiblePublic: boolean</text><text fill="#000000" font-family="sans-serif" font-size="14" lengthAdjust="spacing" textLength="124.8447" x="557.6" y="368.5595">+debut: datetime</text><text fill="#000000" font-family="sans-serif" font-size="14" lengthAdjust="spacing" textLength="101.7871" x="557.6" y="384.8564">+fin: datetime</text><text fill="#000000" font-family="sans-serif" font-size="14" lengthAdjust="spacing" textLength="104.9658" x="557.6" y="401.1532">+publiePar: int</text></g><!--class Actualite--><g class="entity" data-entity="Actualite" data-source-line="101" data-uid="ent0013" id="entity_Actualite"><rect fill="#F1F1F1" height="121.4844" rx="2.5" ry="2.5" style="stroke:#181818;stroke-width:0.5;" width="155.5479" x="761.47" y="262.53"/><ellipse cx="804.1226" cy="278.53" fill="#ADD1B2" rx="11" ry="11" style="stroke:#181818;stroke-width:1;"/><path d="M807.0913,284.1706 Q806.5132,284.4675 805.8726,284.6081 Q805.232,284.7644 804.5288,284.7644 Q802.0288,284.7644 800.7007,283.1238 Q799.3882,281.4675 799.3882,278.3425 Q799.3882,275.2175 800.7007,273.5613 Q802.0288,271.905 804.5288,271.905 Q805.232,271.905 805.8726,272.0613 Q806.5288,272.2175 807.0913,272.5144 L807.0913,275.2331 Q806.4663,274.655 805.8726,274.3894 Q805.2788,274.1081 804.6538,274.1081 Q803.3101,274.1081 802.6226,275.1863 Q801.9351,276.2488 801.9351,278.3425 Q801.9351,280.4363 802.6226,281.5144 Q803.3101,282.5769 804.6538,282.5769 Q805.2788,282.5769 805.8726,282.3113 Q806.4663,282.03 807.0913,281.4519 L807.0913,284.1706 Z " fill="#000000"/><text fill="#000000" font-family="sans-serif" font-size="14" lengthAdjust="spacing" textLength="62.0977" x="824.2676" y="283.3767">Actualite</text><line style="stroke:#181818;stroke-width:0.5;" x1="762.47" x2="916.0179" y1="294.53" y2="294.53"/><text fill="#000000" font-family="sans-serif" font-size="14" lengthAdjust="spacing" textLength="51.9258" x="767.47" y="311.5251">+id: int</text><text fill="#000000" font-family="sans-serif" font-size="14" lengthAdjust="spacing" textLength="90.3232" x="767.47" y="327.822">+titre: string</text><text fill="#000000" font-family="sans-serif" font-size="14" lengthAdjust="spacing" textLength="105.7588" x="767.47" y="344.1189">+contenu: text</text><text fill="#000000" font-family="sans-serif" font-size="14" lengthAdjust="spacing" textLength="143.5479" x="767.47" y="360.4157">+publieLe: datetime</text><text fill="#000000" font-family="sans-serif" font-size="14" lengthAdjust="spacing" textLength="104.9658" x="767.47" y="376.7126">+publiePar: int</text></g><!--class AuditLog--><g class="entity" data-entity="AuditLog" data-source-line="109" data-uid="ent0014" id="entity_AuditLog"><rect fill="#F1F1F1" height="137.7813" rx="2.5" ry="2.5" style="stroke:#181818;stroke-width:0.5;" width="171.6123" x="952.44" y="254.38"/><ellipse cx="1003.0123" cy="270.38" fill="#ADD1B2" rx="11" ry="11" style="stroke:#181818;stroke-width:1;"/><path d="M1005.981,276.0206 Q1005.4029,276.3175 1004.7623,276.4581 Q1004.1216,276.6144 1003.4185,276.6144 Q1000.9185,276.6144 999.5904,274.9737 Q998.2779,273.3175 998.2779,270.1925 Q998.2779,267.0675 999.5904,265.4112 Q1000.9185,263.755 1003.4185,263.755 Q1004.1216,263.755 1004.7623,263.9112 Q1005.4185,264.0675 1005.981,264.3644 L1005.981,267.0831 Q1005.356,266.505 1004.7623,266.2394 Q1004.1685,265.9581 1003.5435,265.9581 Q1002.1998,265.9581 1001.5123,267.0362 Q1000.8248,268.0987 1000.8248,270.1925 Q1000.8248,272.2862 1001.5123,273.3644 Q1002.1998,274.4269 1003.5435,274.4269 Q1004.1685,274.4269 1004.7623,274.1612 Q1005.356,273.88 1005.981,273.3019 L1005.981,276.0206 Z " fill="#000000"/><text fill="#000000" font-family="sans-serif" font-size="14" lengthAdjust="spacing" textLength="61.9678" x="1023.5123" y="275.2267">AuditLog</text><line style="stroke:#181818;stroke-width:0.5;" x1="953.44" x2="1123.0523" y1="286.38" y2="286.38"/><text fill="#000000" font-family="sans-serif" font-size="14" lengthAdjust="spacing" textLength="51.9258" x="958.44" y="303.3751">+id: int</text><text fill="#000000" font-family="sans-serif" font-size="14" lengthAdjust="spacing" textLength="97.1729" x="958.44" y="319.672">+acteurId: int</text><text fill="#000000" font-family="sans-serif" font-size="14" lengthAdjust="spacing" textLength="104.1797" x="958.44" y="335.9689">+action: string</text><text fill="#000000" font-family="sans-serif" font-size="14" lengthAdjust="spacing" textLength="94.0625" x="958.44" y="352.2657">+cible: string</text><text fill="#000000" font-family="sans-serif" font-size="14" lengthAdjust="spacing" textLength="159.6123" x="958.44" y="368.5626">+timestamp: datetime</text><text fill="#000000" font-family="sans-serif" font-size="14" lengthAdjust="spacing" textLength="95.416" x="958.44" y="384.8595">+details: text</text></g><!--reverse link Utilisateur to Intervention--><g class="link" data-entity-1="Utilisateur" data-entity-2="Intervention" data-source-line="119" data-uid="lnk15" id="link_Utilisateur_Intervention"><path codeLine="119" d="M453.4115,170.2335 C414.4915,212.9835 385.24,261.06 385.24,322.27 C385.24,322.27 385.24,322.27 385.24,761.98 C385.24,808.18 398.45,856.87 414.27,898.61" fill="none" id="Utilisateur-backto-Intervention" style="stroke:#181818;stroke-width:1;"/><polygon fill="none" points="461.49,161.36,454.4929,163.1039,453.4115,170.2335,460.4086,168.4896,461.49,161.36" style="stroke:#181818;stroke-width:1;"/><polygon fill="#000000" points="389.9717,551.2592,393.3918,542.3849,387.5224,542.0694,389.9717,551.2592" style="stroke:#000000;stroke-width:1;"/><text fill="#000000" font-family="sans-serif" font-size="13" lengthAdjust="spacing" textLength="28.4883" x="399.24" y="550.7669">cr&#233;e</text><text fill="#000000" font-family="sans-serif" font-size="13" lengthAdjust="spacing" textLength="8.271" x="445.1361" y="181.2524">1</text><text fill="#000000" font-family="sans-serif" font-size="13" lengthAdjust="spacing" textLength="23.0356" x="386.9394" y="887.7839">0..*</text></g><!--reverse link Utilisateur to Intervention--><g class="link" data-entity-1="Utilisateur" data-entity-2="Intervention" data-source-line="120" data-uid="lnk16" id="link_Utilisateur_Intervention"><path codeLine="120" d="M520.5792,172.9508 C507.9092,219.0408 498.24,267.66 498.24,322.27 C498.24,322.27 498.24,322.27 498.24,761.98 C498.24,806.91 493.08,856.09 486.97,898.57" fill="none" id="Utilisateur-backto-Intervention-1" style="stroke:#181818;stroke-width:1;"/><polygon fill="none" points="523.76,161.38,518.3127,166.1051,520.5792,172.9508,526.0265,168.2256,523.76,161.38" style="stroke:#181818;stroke-width:1;"/><polygon fill="#000000" points="503.4713,541.2718,500.1171,550.1712,505.9886,550.4431,503.4713,541.2718" style="stroke:#000000;stroke-width:1;"/><text fill="#000000" font-family="sans-serif" font-size="13" lengthAdjust="spacing" textLength="49.6133" x="512.24" y="550.7669">assign&#233;</text><text fill="#000000" font-family="sans-serif" font-size="13" lengthAdjust="spacing" textLength="8.271" x="513.1466" y="181.2743">1</text><text fill="#000000" font-family="sans-serif" font-size="13" lengthAdjust="spacing" textLength="23.0356" x="464.4982" y="888.1085">0..*</text></g><!--reverse link Utilisateur to Planning--><g class="link" data-entity-1="Utilisateur" data-entity-2="Planning" data-source-line="121" data-uid="lnk17" id="link_Utilisateur_Planning"><path codeLine="121" d="M439.6547,135.5818 C369.2547,175.0818 297.24,234.28 297.24,322.27 C297.24,322.27 297.24,322.27 297.24,1009.65 C297.24,1073.35 307,1145.72 315.2,1195.26" fill="none" id="Utilisateur-backto-Planning" style="stroke:#181818;stroke-width:1;"/><polygon fill="none" points="450.12,129.71,442.9301,129.1575,439.6547,135.5818,446.8447,136.1343,450.12,129.71" style="stroke:#181818;stroke-width:1;"/><polygon fill="#000000" points="301.6568,650.4723,305.6307,641.8317,299.793,641.1461,301.6568,650.4723" style="stroke:#000000;stroke-width:1;"/><text fill="#000000" font-family="sans-serif" font-size="13" lengthAdjust="spacing" textLength="47.8677" x="311.24" y="650.0069">planifie</text><text fill="#000000" font-family="sans-serif" font-size="13" lengthAdjust="spacing" textLength="8.271" x="433.9928" y="129.8239">1</text><text fill="#000000" font-family="sans-serif" font-size="13" lengthAdjust="spacing" textLength="23.0356" x="289.4542" y="1184.0143">0..*</text></g><!--reverse link Utilisateur to Alerte--><g class="link" data-entity-1="Utilisateur" data-entity-2="Alerte" data-source-line="122" data-uid="lnk18" id="link_Utilisateur_Alerte"><path codeLine="122" d="M581.837,172.6143 C591.187,196.9943 597.29,212.91 606.85,237.83" fill="none" id="Utilisateur-backto-Alerte" style="stroke:#181818;stroke-width:1;"/><polygon fill="none" points="577.54,161.41,575.9537,168.4445,581.837,172.6143,583.4232,165.5798,577.54,161.41" style="stroke:#181818;stroke-width:1;"/><polygon fill="#000000" points="601.0305,204.3148,600.5354,194.8171,595.0474,196.922,601.0305,204.3148" style="stroke:#000000;stroke-width:1;"/><text fill="#000000" font-family="sans-serif" font-size="13" lengthAdjust="spacing" textLength="39.9648" x="608.24" y="204.1469">publie</text><text fill="#000000" font-family="sans-serif" font-size="13" lengthAdjust="spacing" textLength="8.271" x="571.805" y="181.0416">1</text><text fill="#000000" font-family="sans-serif" font-size="13" lengthAdjust="spacing" textLength="23.0356" x="580.079" y="226.9158">0..*</text></g><!--reverse link Utilisateur to Actualite--><g class="link" data-entity-1="Utilisateur" data-entity-2="Actualite" data-source-line="123" data-uid="lnk19" id="link_Utilisateur_Actualite"><path codeLine="123" d="M655.8743,167.1246 C687.4443,191.6646 712.88,211.99 744.24,238.08 C753.48,245.76 763.08,253.99 772.49,262.18" fill="none" id="Utilisateur-backto-Actualite" style="stroke:#181818;stroke-width:1;"/><polygon fill="none" points="646.4,159.76,648.6823,166.6004,655.8743,167.1246,653.592,160.2842,646.4,159.76" style="stroke:#181818;stroke-width:1;"/><polygon fill="#000000" points="717.1156,202.8055,711.9614,194.8126,708.2477,199.3687,717.1156,202.8055" style="stroke:#000000;stroke-width:1;"/><text fill="#000000" font-family="sans-serif" font-size="13" lengthAdjust="spacing" textLength="39.9648" x="722.24" y="204.1469">publie</text><text fill="#000000" font-family="sans-serif" font-size="13" lengthAdjust="spacing" textLength="8.271" x="654.2317" y="162.0551">1</text><text fill="#000000" font-family="sans-serif" font-size="13" lengthAdjust="spacing" textLength="23.0356" x="740.444" y="251.3236">0..*</text></g><!--reverse link Utilisateur to AuditLog--><g class="link" data-entity-1="Utilisateur" data-entity-2="AuditLog" data-source-line="124" data-uid="lnk20" id="link_Utilisateur_AuditLog"><path codeLine="124" d="M657.7883,118.5121 C738.1383,144.9621 841.82,184.06 934.24,238.08 C942.47,242.89 950.72,248.32 958.79,254.04" fill="none" id="Utilisateur-backto-AuditLog" style="stroke:#181818;stroke-width:1;"/><polygon fill="none" points="646.39,114.76,650.8384,120.4355,657.7883,118.5121,653.3399,112.8366,646.39,114.76" style="stroke:#181818;stroke-width:1;"/><polygon fill="#000000" points="884.7992,201.6992,877.7582,195.3058,875.345,200.6655,884.7992,201.6992" style="stroke:#000000;stroke-width:1;"/><text fill="#000000" font-family="sans-serif" font-size="13" lengthAdjust="spacing" textLength="66.6313" x="889.24" y="204.1469">d&#233;clenche</text><text fill="#000000" font-family="sans-serif" font-size="13" lengthAdjust="spacing" textLength="8.271" x="654.2209" y="113.6098">1</text><text fill="#000000" font-family="sans-serif" font-size="13" lengthAdjust="spacing" textLength="23.0356" x="926.412" y="243.2009">0..*</text></g><!--reverse link SiteDiffusion to Equipement--><g class="link" data-entity-1="SiteDiffusion" data-entity-2="Equipement" data-source-line="126" data-uid="lnk21" id="link_SiteDiffusion_Equipement"><path codeLine="126" d="M672.3758,618.797 C664.3458,645.097 658.38,664.6 650.08,691.76" fill="none" id="SiteDiffusion-backto-Equipement" style="stroke:#181818;stroke-width:1;"/><polygon fill="none" points="675.88,607.32,670.3023,611.8904,672.3758,618.797,677.9536,614.2265,675.88,607.32" style="stroke:#181818;stroke-width:1;"/><text fill="#000000" font-family="sans-serif" font-size="13" lengthAdjust="spacing" textLength="8.271" x="665.4488" y="626.8992">1</text><text fill="#000000" font-family="sans-serif" font-size="13" lengthAdjust="spacing" textLength="23.0356" x="628.045" y="680.9219">0..*</text></g><!--reverse link SiteDiffusion to Frequence--><g class="link" data-entity-1="SiteDiffusion" data-entity-2="Frequence" data-source-line="127" data-uid="lnk22" id="link_SiteDiffusion_Frequence"><path codeLine="127" d="M730.8399,617.9803 C743.0999,641.7003 751.82,658.57 764.79,683.67" fill="none" id="SiteDiffusion-backto-Frequence" style="stroke:#181818;stroke-width:1;"/><polygon fill="none" points="725.33,607.32,724.5315,614.4868,730.8399,617.9803,731.6384,610.8135,725.33,607.32" style="stroke:#181818;stroke-width:1;"/><text fill="#000000" font-family="sans-serif" font-size="13" lengthAdjust="spacing" textLength="8.271" x="720.3073" y="626.8992">1</text><text fill="#000000" font-family="sans-serif" font-size="13" lengthAdjust="spacing" textLength="23.0356" x="737.094" y="672.9247">0..*</text></g><!--link Frequence to SiteDiffusion--><g class="link" data-entity-1="Frequence" data-entity-2="SiteDiffusion" data-source-line="134" data-uid="lnk26" id="link_Frequence_SiteDiffusion"><path codeLine="134" d="M777.63,683.59 C771.27,667.86 764.04,651.62 756.24,636.94 C751,627.07 748.1701,622.014 741.8501,612.334" fill="none" id="Frequence-to-SiteDiffusion" style="stroke:#181818;stroke-width:1;stroke-dasharray:7,7;"/><polygon fill="#181818" points="738.57,607.31,740.1409,617.0328,741.3034,611.4967,746.8395,612.6593,738.57,607.31" style="stroke:#181818;stroke-width:1;"/><polygon fill="#000000" points="767.9963,641.0381,769.4288,650.4402,774.6816,647.8025,767.9963,641.0381" style="stroke:#000000;stroke-width:1;"/><text fill="#000000" font-family="sans-serif" font-size="13" lengthAdjust="spacing" textLength="67.8247" x="779.24" y="650.0069">appartient</text></g><!--reverse link Equipement to Intervention--><g class="link" data-entity-1="Equipement" data-entity-2="Intervention" data-source-line="129" data-uid="lnk23" id="link_Equipement_Intervention"><path codeLine="129" d="M577.7258,840.1092 C563.6858,861.4092 554.42,875.45 539.01,898.82" fill="none" id="Equipement-backto-Intervention" style="stroke:#181818;stroke-width:1;"/><polygon fill="none" points="584.33,830.09,577.6882,832.8982,577.7258,840.1092,584.3676,837.301,584.33,830.09" style="stroke:#181818;stroke-width:1;"/><text fill="#000000" font-family="sans-serif" font-size="13" lengthAdjust="spacing" textLength="8.271" x="571.3001" y="850.0641">1</text><text fill="#000000" font-family="sans-serif" font-size="13" lengthAdjust="spacing" textLength="23.0356" x="520.0604" y="888.0081">0..*</text></g><!--link Intervention to Planning--><g class="link" data-entity-1="Intervention" data-entity-2="Planning" data-source-line="131" data-uid="lnk24" id="link_Intervention_Planning"><path codeLine="131" d="M404.58,1118.71 C389.5,1144.95 376.9295,1166.8278 363.6895,1189.8678" fill="none" id="Intervention-to-Planning" style="stroke:#181818;stroke-width:1;"/><polygon fill="#181818" points="360.7,1195.07,368.6523,1189.2597,363.1912,1190.7348,361.7161,1185.2737,360.7,1195.07" style="stroke:#181818;stroke-width:1;"/><polygon fill="#000000" points="386.7488,1161.1916,393.8036,1154.8135,388.7073,1151.8849,386.7488,1161.1916" style="stroke:#000000;stroke-width:1;"/><text fill="#000000" font-family="sans-serif" font-size="13" lengthAdjust="spacing" textLength="105.5615" x="398.24" y="1161.3569">est planifi&#233;e par</text><text fill="#000000" font-family="sans-serif" font-size="13" lengthAdjust="spacing" textLength="8.271" x="392.3181" y="1138.3122">1</text><text fill="#000000" font-family="sans-serif" font-size="13" lengthAdjust="spacing" textLength="24.8066" x="339.3427" y="1184.2286">0..1</text></g><!--link Alerte to SiteDiffusion--><g class="link" data-entity-1="Alerte" data-entity-2="SiteDiffusion" data-source-line="133" data-uid="lnk25" id="link_Alerte_SiteDiffusion"><path codeLine="133" d="M660.27,408.74 C666.61,434.2 671.9924,455.7873 677.8424,479.3173" fill="none" id="Alerte-to-SiteDiffusion" style="stroke:#181818;stroke-width:1;stroke-dasharray:7,7;"/><polygon fill="#181818" points="679.29,485.14,681.0004,475.4408,678.0836,480.2877,673.2367,477.371,679.29,485.14" style="stroke:#181818;stroke-width:1;"/><polygon fill="#000000" points="678.448,451.8783,679.1145,442.3911,673.4108,443.8112,678.448,451.8783" style="stroke:#000000;stroke-width:1;"/><text fill="#000000" font-family="sans-serif" font-size="13" lengthAdjust="spacing" textLength="60.0679" x="686.24" y="451.5269">concerne</text></g><!--SRC=[bLNDZjem4BxdAImkbLg1Tg-eYvH2494W808hzRGooG2Z9dRMTcYxLHzedsDVhEC4yWChs9xm33F-llbcFDbZ32m5ivUnTlGF51bNF6LHmhLsZL6uoGtuaHGXlW2xQuJeFO_bJnGxjkM91iVvn1uU7fWNh6UXFJaWyfGjPGBiZyEOEvhv0VqE9zwOVbRUSEByTSgWq72J6-yvnwoC7Qvy6pHp_M3b1MumzCYQp9VXK-Wj7tqoJwb3XGOZD2N8sFM_JMtiRFxT2m9xygRUe-UTGVd2W3eKALxmvAu8PEMLnd2-NeQMvtI-MY_BpBAouTGDGw-ihT27hGqcgBc1N1LtVS6upr0OUnGoxJDD0egTDI7bc3GTgJGZMD0jCE5wt_n7aMJzGZXhySZWjiysacmkh2TI05EAY0dOO0gMOSad91r6kDtc6gMunMWdymCe8HKtJNV23PeyflktYUH5OYB5hkMh08kMGGh2NA1fukBNfe9j4yNypg1fww8j_UOabAKUkzkl6rsZZnKyvo0Yk0MkgTaOjG0tNCGjHxf_QPHi-P26xr4yUYeMvIoH1Ezf3fL03Jeai6fXnw2fqgn4DF2hYCeKIbMKVggYfL49Uvg71LTL7972dG2tSjX16S76vbOpStIFKRITYcUPLEP8eofoaN0Xx5i_Bp2ldq2ZGcneqd37boIsBG8Ldfk0CfTzlL0k1Qtv3chL11w0vysG0shS9B38Dmb6hOTqauxjWashvQq9HYRd2Nw48orFGxkdqTdYpjOJleQKnsYcyb9wsWnjrUsgQCziP2jllJi2epbAixDH04FhITTTBpVUqfkwAtyUb3klkUqwznqckrtMkUlrFdVQRw3F8lNs2cpm7nbVMJcrRw_NagefxBECZhZ56oZ7CQBmGjmRmLLBFnX_QWnf-VOQ9RI9zZR5QQ_XiwnwPLwFgvQRupIsx1KL7QUbgOtiTWT5v7rBEXg0atosJVGrjwIFKlLwWxFF2BLJ4WqbR6trodqla7O7LmOjqS4_]--></g></svg>