<svg xmlns="http://www.w3.org/2000/svg" xmlns:xlink="http://www.w3.org/1999/xlink" contentStyleType="text/css" data-diagram-type="SEQUENCE" height="523px" preserveAspectRatio="none" style="width:1210px;height:523px;background:#FFFFFF;" version="1.1" viewBox="0 0 1210 523" width="1210px" zoomAndPan="magnify"><title>Communication - Cr&#233;ation &amp; Assignation Intervention</title><defs/><g><text fill="#000000" font-family="sans-serif" font-size="14" font-weight="bold" lengthAdjust="spacing" textLength="422.9531" x="392.6638" y="27.9951">Communication - Cr&#233;ation &amp; Assignation Intervention</text><g><title>Chef</title><rect fill="#000000" fill-opacity="0.00000" height="340.4609" width="8" x="24.0952" y="104.5938"/><line style="stroke:#181818;stroke-width:0.5;stroke-dasharray:5,5;" x1="28" x2="28" y1="104.5938" y2="445.0547"/></g><g><title>UI Back.office</title><rect fill="#000000" fill-opacity="0.00000" height="340.4609" width="8" x="383.1509" y="104.5938"/><line style="stroke:#181818;stroke-width:0.5;stroke-dasharray:5,5;" x1="386.9063" x2="386.9063" y1="104.5938" y2="445.0547"/></g><g><title>API REST</title><rect fill="#000000" fill-opacity="0.00000" height="340.4609" width="8" x="686.6328" y="104.5938"/><line style="stroke:#181818;stroke-width:0.5;stroke-dasharray:5,5;" x1="690.3276" x2="690.3276" y1="104.5938" y2="445.0547"/></g><g><title>MySQL</title><rect fill="#000000" fill-opacity="0.00000" height="340.4609" width="8" x="1115.8999" y="104.5938"/><line style="stroke:#181818;stroke-width:0.5;stroke-dasharray:5,5;" x1="1119.8647" x2="1119.8647" y1="104.5938" y2="445.0547"/></g><g><title>Notif</title><rect fill="#000000" fill-opacity="0.00000" height="340.4609" width="8" x="1176.6079" y="104.5938"/><line style="stroke:#181818;stroke-width:0.5;stroke-dasharray:5,5;" x1="1179.9351" x2="1179.9351" y1="104.5938" y2="445.0547"/></g><g class="participant participant-head" data-participant="Chef"><rect fill="#E2E2F0" height="30.2969" rx="2.5" ry="2.5" style="stroke:#181818;stroke-width:0.5;" width="46.1904" x="5" y="73.2969"/><text fill="#000000" font-family="sans-serif" font-size="14" lengthAdjust="spacing" textLength="32.1904" x="12" y="93.292">Chef</text></g><g class="participant participant-tail" data-participant="Chef"><rect fill="#E2E2F0" height="30.2969" rx="2.5" ry="2.5" style="stroke:#181818;stroke-width:0.5;" width="46.1904" x="5" y="444.0547"/><text fill="#000000" font-family="sans-serif" font-size="14" lengthAdjust="spacing" textLength="32.1904" x="12" y="464.0498">Chef</text></g><g class="participant participant-head" data-participant="UI"><rect fill="#E2E2F0" height="30.2969" rx="2.5" ry="2.5" style="stroke:#181818;stroke-width:0.5;" width="110.4893" x="331.9063" y="73.2969"/><text fill="#000000" font-family="sans-serif" font-size="14" lengthAdjust="spacing" textLength="96.4893" x="338.9063" y="93.292">UI Back&#8209;office</text></g><g class="participant participant-tail" data-participant="UI"><rect fill="#E2E2F0" height="30.2969" rx="2.5" ry="2.5" style="stroke:#181818;stroke-width:0.5;" width="110.4893" x="331.9063" y="444.0547"/><text fill="#000000" font-family="sans-serif" font-size="14" lengthAdjust="spacing" textLength="96.4893" x="338.9063" y="464.0498">UI Back&#8209;office</text></g><g class="participant participant-head" data-participant="API"><rect fill="#E2E2F0" height="30.2969" rx="2.5" ry="2.5" style="stroke:#181818;stroke-width:0.5;" width="76.6104" x="652.3276" y="73.2969"/><text fill="#000000" font-family="sans-serif" font-size="14" lengthAdjust="spacing" textLength="62.6104" x="659.3276" y="93.292">API REST</text></g><g class="participant participant-tail" data-participant="API"><rect fill="#E2E2F0" height="30.2969" rx="2.5" ry="2.5" style="stroke:#181818;stroke-width:0.5;" width="76.6104" x="652.3276" y="444.0547"/><text fill="#000000" font-family="sans-serif" font-size="14" lengthAdjust="spacing" textLength="62.6104" x="659.3276" y="464.0498">API REST</text></g><g class="participant participant-head" data-participant="DB"><text fill="#000000" font-family="sans-serif" font-size="14" lengthAdjust="spacing" textLength="48.0703" x="1092.8647" y="101.292">MySQL</text><path d="M1101.8999,52.2969 C1101.8999,42.2969 1119.8999,42.2969 1119.8999,42.2969 C1119.8999,42.2969 1137.8999,42.2969 1137.8999,52.2969 L1137.8999,78.2969 C1137.8999,88.2969 1119.8999,88.2969 1119.8999,88.2969 C1119.8999,88.2969 1101.8999,88.2969 1101.8999,78.2969 L1101.8999,52.2969" fill="#E2E2F0" style="stroke:#181818;stroke-width:0.5;"/><path d="M1101.8999,52.2969 C1101.8999,62.2969 1119.8999,62.2969 1119.8999,62.2969 C1119.8999,62.2969 1137.8999,62.2969 1137.8999,52.2969" fill="none" style="stroke:#181818;stroke-width:0.5;"/></g><g class="participant participant-tail" data-participant="DB"><text fill="#000000" font-family="sans-serif" font-size="14" lengthAdjust="spacing" textLength="48.0703" x="1092.8647" y="457.0498">MySQL</text><path d="M1101.8999,470.3516 C1101.8999,460.3516 1119.8999,460.3516 1119.8999,460.3516 C1119.8999,460.3516 1137.8999,460.3516 1137.8999,470.3516 L1137.8999,496.3516 C1137.8999,506.3516 1119.8999,506.3516 1119.8999,506.3516 C1119.8999,506.3516 1101.8999,506.3516 1101.8999,496.3516 L1101.8999,470.3516" fill="#E2E2F0" style="stroke:#181818;stroke-width:0.5;"/><path d="M1101.8999,470.3516 C1101.8999,480.3516 1119.8999,480.3516 1119.8999,480.3516 C1119.8999,480.3516 1137.8999,480.3516 1137.8999,470.3516" fill="none" style="stroke:#181818;stroke-width:0.5;"/></g><g class="participant participant-head" data-participant="Notif"><rect fill="#E2E2F0" height="30.2969" rx="2.5" ry="2.5" style="stroke:#181818;stroke-width:0.5;" width="47.3457" x="1156.9351" y="73.2969"/><text fill="#000000" font-family="sans-serif" font-size="14" lengthAdjust="spacing" textLength="33.3457" x="1163.9351" y="93.292">Notif</text></g><g class="participant participant-tail" data-participant="Notif"><rect fill="#E2E2F0" height="30.2969" rx="2.5" ry="2.5" style="stroke:#181818;stroke-width:0.5;" width="47.3457" x="1156.9351" y="444.0547"/><text fill="#000000" font-family="sans-serif" font-size="14" lengthAdjust="spacing" textLength="33.3457" x="1163.9351" y="464.0498">Notif</text></g><g class="message" data-participant-1="Chef" data-participant-2="UI"><polygon fill="#333333" points="375.1509,131.7266,385.1509,135.7266,375.1509,139.7266,379.1509,135.7266" style="stroke:#333333;stroke-width:1;"/><line style="stroke:#333333;stroke-width:1;" x1="28.0952" x2="381.1509" y1="135.7266" y2="135.7266"/><text fill="#000000" font-family="sans-serif" font-size="13" font-weight="bold" lengthAdjust="spacing" textLength="9.0454" x="35.0952" y="130.6606">1</text><text fill="#000000" font-family="sans-serif" font-size="13" lengthAdjust="spacing" textLength="322.0103" x="48.1406" y="130.6606">1. Remplir formulaire (titre, &#233;quipement, priorit&#233;)</text></g><g class="message" data-participant-1="UI" data-participant-2="API"><polygon fill="#333333" points="678.6328,160.8594,688.6328,164.8594,678.6328,168.8594,682.6328,164.8594" style="stroke:#333333;stroke-width:1;"/><line style="stroke:#333333;stroke-width:1;" x1="387.1509" x2="684.6328" y1="164.8594" y2="164.8594"/><text fill="#000000" font-family="sans-serif" font-size="13" font-weight="bold" lengthAdjust="spacing" textLength="9.0454" x="394.1509" y="159.7935">2</text><text fill="#000000" font-family="sans-serif" font-size="13" lengthAdjust="spacing" textLength="195.165" x="407.1963" y="159.7935">2. POST /interventions {data}</text></g><g class="message" data-participant-1="API" data-participant-2="DB"><polygon fill="#333333" points="1107.8999,189.9922,1117.8999,193.9922,1107.8999,197.9922,1111.8999,193.9922" style="stroke:#333333;stroke-width:1;"/><line style="stroke:#333333;stroke-width:1;" x1="690.6328" x2="1113.8999" y1="193.9922" y2="193.9922"/><text fill="#000000" font-family="sans-serif" font-size="13" font-weight="bold" lengthAdjust="spacing" textLength="9.0454" x="697.6328" y="188.9263">3</text><text fill="#000000" font-family="sans-serif" font-size="13" lengthAdjust="spacing" textLength="392.2217" x="710.6782" y="188.9263">3. INSERT intervention (statut=EN_ATTENTE, cr&#233;ePar=Chef)</text></g><g class="message" data-participant-1="DB" data-participant-2="API"><polygon fill="#333333" points="701.6328,219.125,691.6328,223.125,701.6328,227.125,697.6328,223.125" style="stroke:#333333;stroke-width:1;"/><line style="stroke:#333333;stroke-width:1;stroke-dasharray:2,2;" x1="695.6328" x2="1118.8999" y1="223.125" y2="223.125"/><text fill="#000000" font-family="sans-serif" font-size="13" font-weight="bold" lengthAdjust="spacing" textLength="9.0454" x="707.6328" y="218.0591">4</text><text fill="#000000" font-family="sans-serif" font-size="13" lengthAdjust="spacing" textLength="66.606" x="720.6782" y="218.0591">4. idInterv</text></g><g class="message" data-participant-1="API" data-participant-2="UI"><polygon fill="#333333" points="398.1509,248.2578,388.1509,252.2578,398.1509,256.2578,394.1509,252.2578" style="stroke:#333333;stroke-width:1;"/><line style="stroke:#333333;stroke-width:1;stroke-dasharray:2,2;" x1="392.1509" x2="689.6328" y1="252.2578" y2="252.2578"/><text fill="#000000" font-family="sans-serif" font-size="13" font-weight="bold" lengthAdjust="spacing" textLength="9.0454" x="404.1509" y="247.1919">5</text><text fill="#000000" font-family="sans-serif" font-size="13" lengthAdjust="spacing" textLength="112.0933" x="417.1963" y="247.1919">5. 201 {idInterv}</text></g><g class="message" data-participant-1="Chef" data-participant-2="UI"><polygon fill="#333333" points="375.1509,277.3906,385.1509,281.3906,375.1509,285.3906,379.1509,281.3906" style="stroke:#333333;stroke-width:1;"/><line style="stroke:#333333;stroke-width:1;" x1="28.0952" x2="381.1509" y1="281.3906" y2="281.3906"/><text fill="#000000" font-family="sans-serif" font-size="13" font-weight="bold" lengthAdjust="spacing" textLength="9.0454" x="35.0952" y="276.3247">6</text><text fill="#000000" font-family="sans-serif" font-size="13" lengthAdjust="spacing" textLength="143.8823" x="48.1406" y="276.3247">6. Assigner technicien</text></g><g class="message" data-participant-1="UI" data-participant-2="API"><polygon fill="#333333" points="678.6328,306.5234,688.6328,310.5234,678.6328,314.5234,682.6328,310.5234" style="stroke:#333333;stroke-width:1;"/><line style="stroke:#333333;stroke-width:1;" x1="387.1509" x2="684.6328" y1="310.5234" y2="310.5234"/><text fill="#000000" font-family="sans-serif" font-size="13" font-weight="bold" lengthAdjust="spacing" textLength="9.0454" x="394.1509" y="305.4575">7</text><text fill="#000000" font-family="sans-serif" font-size="13" lengthAdjust="spacing" textLength="266.4365" x="407.1963" y="305.4575">7. PATCH /interventions/{id} {assigneA}</text></g><g class="message" data-participant-1="API" data-participant-2="DB"><polygon fill="#333333" points="1107.8999,335.6563,1117.8999,339.6563,1107.8999,343.6563,1111.8999,339.6563" style="stroke:#333333;stroke-width:1;"/><line style="stroke:#333333;stroke-width:1;" x1="690.6328" x2="1113.8999" y1="339.6563" y2="339.6563"/><text fill="#000000" font-family="sans-serif" font-size="13" font-weight="bold" lengthAdjust="spacing" textLength="9.0454" x="697.6328" y="334.5903">8</text><text fill="#000000" font-family="sans-serif" font-size="13" lengthAdjust="spacing" textLength="366.8184" x="710.6782" y="334.5903">8. UPDATE intervention set assigneA, statut=EN_COURS</text></g><g class="message" data-participant-1="DB" data-participant-2="API"><polygon fill="#333333" points="701.6328,364.7891,691.6328,368.7891,701.6328,372.7891,697.6328,368.7891" style="stroke:#333333;stroke-width:1;"/><line style="stroke:#333333;stroke-width:1;stroke-dasharray:2,2;" x1="695.6328" x2="1118.8999" y1="368.7891" y2="368.7891"/><text fill="#000000" font-family="sans-serif" font-size="13" font-weight="bold" lengthAdjust="spacing" textLength="9.0454" x="707.6328" y="363.7231">9</text><text fill="#000000" font-family="sans-serif" font-size="13" lengthAdjust="spacing" textLength="32.0176" x="720.6782" y="363.7231">9. ok</text></g><g class="message" data-participant-1="API" data-participant-2="Notif"><polygon fill="#333333" points="1168.6079,393.9219,1178.6079,397.9219,1168.6079,401.9219,1172.6079,397.9219" style="stroke:#333333;stroke-width:1;"/><line style="stroke:#333333;stroke-width:1;" x1="690.6328" x2="1174.6079" y1="397.9219" y2="397.9219"/><text fill="#000000" font-family="sans-serif" font-size="13" font-weight="bold" lengthAdjust="spacing" textLength="18.0908" x="697.6328" y="392.856">10</text><text fill="#000000" font-family="sans-serif" font-size="13" lengthAdjust="spacing" textLength="257.8481" x="719.7236" y="392.856">10. send(Tech, "Nouvelle intervention")</text></g><g class="message" data-participant-1="API" data-participant-2="UI"><polygon fill="#333333" points="398.1509,423.0547,388.1509,427.0547,398.1509,431.0547,394.1509,427.0547" style="stroke:#333333;stroke-width:1;"/><line style="stroke:#333333;stroke-width:1;stroke-dasharray:2,2;" x1="392.1509" x2="689.6328" y1="427.0547" y2="427.0547"/><text fill="#000000" font-family="sans-serif" font-size="13" font-weight="bold" lengthAdjust="spacing" textLength="18.0908" x="404.1509" y="421.9888">11</text><text fill="#000000" font-family="sans-serif" font-size="13" lengthAdjust="spacing" textLength="190.0044" x="426.2417" y="421.9888">11. 200 {statut=EN_COURS}</text></g><!--SRC=[NP9RRjf058RVPnM_gDI210w4NYEbaZ6MQgbnA9ZdQcAEOOGzGsR6YIA4r2ra6Qo3dNGb7UFIOjxctF_ldB72veH05KKfHSgjK18z1FgmhzzluHiZbhAs8cb9Fv6i36RMGcwuvWNCYY_Kiv1BP3mtT1RnjLRFWSgLnflXSCYOSrkHYWsN5i6AieQZDOymukdwzwzNbMKYfHQumJng9lcJ2DDmbXo3pc0BRla3DuJMtSlin_UZVpng5CNAYeonTuZBuh3NojOylBIgSC_7ah0WWuACuKioh0h8idWWpLWb4xslJWTkCF0mfMAJ2urCwQBCkT24jXLMKnU7_MCfDbIu3NMnqK9fOG_x3dEbha4b_0RN7YRtimHNucoP1jkAOiUg79Sw7i6b3Zr4yIoS9ZZFHTiu-QMz3UEVVfA4SH9saRgBqOJhsqfjXxdwth-9xps8HNswkly9veE7w_u0srDqTm7xqVjxVTAmbAxS3n4a6pIV78sV1DykSAvSpnsslAxsBxW-UvXFnduIDhaCMPmgklWF6TpFfxCcqXSFQdrgUZnkTPk-vth8HJjnMhjenQfyejnzx_CfhKvp1uD1jOG-jXVpTdy0]--></g></svg>