<svg xmlns="http://www.w3.org/2000/svg" xmlns:xlink="http://www.w3.org/1999/xlink" contentStyleType="text/css" data-diagram-type="SEQUENCE" height="377px" preserveAspectRatio="none" style="width:1215px;height:377px;background:#FFFFFF;" version="1.1" viewBox="0 0 1215 377" width="1215px" zoomAndPan="magnify"><title>Communication - Cl&#244;ture Intervention</title><defs/><g><text fill="#000000" font-family="sans-serif" font-size="14" font-weight="bold" lengthAdjust="spacing" textLength="298.7373" x="456.3857" y="27.9951">Communication - Cl&#244;ture Intervention</text><g><title>Tech</title><rect fill="#000000" fill-opacity="0.00000" height="194.7969" width="8" x="24.8677" y="104.5938"/><line style="stroke:#181818;stroke-width:0.5;stroke-dasharray:5,5;" x1="28" x2="28" y1="104.5938" y2="299.3906"/></g><g><title>UI Back.office</title><rect fill="#000000" fill-opacity="0.00000" height="194.7969" width="8" x="306.9961" y="104.5938"/><line style="stroke:#181818;stroke-width:0.5;stroke-dasharray:5,5;" x1="310.7515" x2="310.7515" y1="104.5938" y2="299.3906"/></g><g><title>API REST</title><rect fill="#000000" fill-opacity="0.00000" height="194.7969" width="8" x="727.0781" y="104.5938"/><line style="stroke:#181818;stroke-width:0.5;stroke-dasharray:5,5;" x1="730.7729" x2="730.7729" y1="104.5938" y2="299.3906"/></g><g><title>MySQL</title><rect fill="#000000" fill-opacity="0.00000" height="194.7969" width="8" x="1176.4736" y="104.5938"/><line style="stroke:#181818;stroke-width:0.5;stroke-dasharray:5,5;" x1="1180.4385" x2="1180.4385" y1="104.5938" y2="299.3906"/></g><g class="participant participant-head" data-participant="Tech"><rect fill="#E2E2F0" height="30.2969" rx="2.5" ry="2.5" style="stroke:#181818;stroke-width:0.5;" width="47.7354" x="5" y="73.2969"/><text fill="#000000" font-family="sans-serif" font-size="14" lengthAdjust="spacing" textLength="33.7354" x="12" y="93.292">Tech</text></g><g class="participant participant-tail" data-participant="Tech"><rect fill="#E2E2F0" height="30.2969" rx="2.5" ry="2.5" style="stroke:#181818;stroke-width:0.5;" width="47.7354" x="5" y="298.3906"/><text fill="#000000" font-family="sans-serif" font-size="14" lengthAdjust="spacing" textLength="33.7354" x="12" y="318.3857">Tech</text></g><g class="participant participant-head" data-participant="UI"><rect fill="#E2E2F0" height="30.2969" rx="2.5" ry="2.5" style="stroke:#181818;stroke-width:0.5;" width="110.4893" x="255.7515" y="73.2969"/><text fill="#000000" font-family="sans-serif" font-size="14" lengthAdjust="spacing" textLength="96.4893" x="262.7515" y="93.292">UI Back&#8209;office</text></g><g class="participant participant-tail" data-participant="UI"><rect fill="#E2E2F0" height="30.2969" rx="2.5" ry="2.5" style="stroke:#181818;stroke-width:0.5;" width="110.4893" x="255.7515" y="298.3906"/><text fill="#000000" font-family="sans-serif" font-size="14" lengthAdjust="spacing" textLength="96.4893" x="262.7515" y="318.3857">UI Back&#8209;office</text></g><g class="participant participant-head" data-participant="API"><rect fill="#E2E2F0" height="30.2969" rx="2.5" ry="2.5" style="stroke:#181818;stroke-width:0.5;" width="76.6104" x="692.7729" y="73.2969"/><text fill="#000000" font-family="sans-serif" font-size="14" lengthAdjust="spacing" textLength="62.6104" x="699.7729" y="93.292">API REST</text></g><g class="participant participant-tail" data-participant="API"><rect fill="#E2E2F0" height="30.2969" rx="2.5" ry="2.5" style="stroke:#181818;stroke-width:0.5;" width="76.6104" x="692.7729" y="298.3906"/><text fill="#000000" font-family="sans-serif" font-size="14" lengthAdjust="spacing" textLength="62.6104" x="699.7729" y="318.3857">API REST</text></g><g class="participant participant-head" data-participant="DB"><text fill="#000000" font-family="sans-serif" font-size="14" lengthAdjust="spacing" textLength="48.0703" x="1153.4385" y="101.292">MySQL</text><path d="M1162.4736,52.2969 C1162.4736,42.2969 1180.4736,42.2969 1180.4736,42.2969 C1180.4736,42.2969 1198.4736,42.2969 1198.4736,52.2969 L1198.4736,78.2969 C1198.4736,88.2969 1180.4736,88.2969 1180.4736,88.2969 C1180.4736,88.2969 1162.4736,88.2969 1162.4736,78.2969 L1162.4736,52.2969" fill="#E2E2F0" style="stroke:#181818;stroke-width:0.5;"/><path d="M1162.4736,52.2969 C1162.4736,62.2969 1180.4736,62.2969 1180.4736,62.2969 C1180.4736,62.2969 1198.4736,62.2969 1198.4736,52.2969" fill="none" style="stroke:#181818;stroke-width:0.5;"/></g><g class="participant participant-tail" data-participant="DB"><text fill="#000000" font-family="sans-serif" font-size="14" lengthAdjust="spacing" textLength="48.0703" x="1153.4385" y="311.3857">MySQL</text><path d="M1162.4736,324.6875 C1162.4736,314.6875 1180.4736,314.6875 1180.4736,314.6875 C1180.4736,314.6875 1198.4736,314.6875 1198.4736,324.6875 L1198.4736,350.6875 C1198.4736,360.6875 1180.4736,360.6875 1180.4736,360.6875 C1180.4736,360.6875 1162.4736,360.6875 1162.4736,350.6875 L1162.4736,324.6875" fill="#E2E2F0" style="stroke:#181818;stroke-width:0.5;"/><path d="M1162.4736,324.6875 C1162.4736,334.6875 1180.4736,334.6875 1180.4736,334.6875 C1180.4736,334.6875 1198.4736,334.6875 1198.4736,324.6875" fill="none" style="stroke:#181818;stroke-width:0.5;"/></g><g class="message" data-participant-1="Tech" data-participant-2="UI"><polygon fill="#181818" points="298.9961,131.7266,308.9961,135.7266,298.9961,139.7266,302.9961,135.7266" style="stroke:#181818;stroke-width:1;"/><line style="stroke:#181818;stroke-width:1;" x1="28.8677" x2="304.9961" y1="135.7266" y2="135.7266"/><text fill="#000000" font-family="sans-serif" font-size="13" font-weight="bold" lengthAdjust="spacing" textLength="9.0454" x="35.8677" y="130.6606">1</text><text fill="#000000" font-family="sans-serif" font-size="13" lengthAdjust="spacing" textLength="245.083" x="48.9131" y="130.6606">1. Ouvrir intervention &amp; saisir rapport</text></g><g class="message" data-participant-1="UI" data-participant-2="API"><polygon fill="#181818" points="719.0781,160.8594,729.0781,164.8594,719.0781,168.8594,723.0781,164.8594" style="stroke:#181818;stroke-width:1;"/><line style="stroke:#181818;stroke-width:1;" x1="310.9961" x2="725.0781" y1="164.8594" y2="164.8594"/><text fill="#000000" font-family="sans-serif" font-size="13" font-weight="bold" lengthAdjust="spacing" textLength="9.0454" x="317.9961" y="159.7935">2</text><text fill="#000000" font-family="sans-serif" font-size="13" lengthAdjust="spacing" textLength="383.0366" x="331.0415" y="159.7935">2. PATCH /interventions/{id} {statut=CLOTUREE, rapport}</text></g><g class="message" data-participant-1="API" data-participant-2="DB"><polygon fill="#181818" points="1168.4736,189.9922,1178.4736,193.9922,1168.4736,197.9922,1172.4736,193.9922" style="stroke:#181818;stroke-width:1;"/><line style="stroke:#181818;stroke-width:1;" x1="731.0781" x2="1174.4736" y1="193.9922" y2="193.9922"/><text fill="#000000" font-family="sans-serif" font-size="13" font-weight="bold" lengthAdjust="spacing" textLength="9.0454" x="738.0781" y="188.9263">3</text><text fill="#000000" font-family="sans-serif" font-size="13" lengthAdjust="spacing" textLength="412.3501" x="751.1235" y="188.9263">3. UPDATE intervention set statut=CLOTUREE, rapport, dateFin</text></g><g class="message" data-participant-1="DB" data-participant-2="API"><polygon fill="#181818" points="742.0781,219.125,732.0781,223.125,742.0781,227.125,738.0781,223.125" style="stroke:#181818;stroke-width:1;"/><line style="stroke:#181818;stroke-width:1;stroke-dasharray:2,2;" x1="736.0781" x2="1179.4736" y1="223.125" y2="223.125"/><text fill="#000000" font-family="sans-serif" font-size="13" font-weight="bold" lengthAdjust="spacing" textLength="9.0454" x="748.0781" y="218.0591">4</text><text fill="#000000" font-family="sans-serif" font-size="13" lengthAdjust="spacing" textLength="32.0176" x="761.1235" y="218.0591">4. ok</text></g><g class="message" data-participant-1="API" data-participant-2="UI"><polygon fill="#181818" points="321.9961,248.2578,311.9961,252.2578,321.9961,256.2578,317.9961,252.2578" style="stroke:#181818;stroke-width:1;"/><line style="stroke:#181818;stroke-width:1;stroke-dasharray:2,2;" x1="315.9961" x2="730.0781" y1="252.2578" y2="252.2578"/><text fill="#000000" font-family="sans-serif" font-size="13" font-weight="bold" lengthAdjust="spacing" textLength="9.0454" x="327.9961" y="247.1919">5</text><text fill="#000000" font-family="sans-serif" font-size="13" lengthAdjust="spacing" textLength="180.6543" x="341.0415" y="247.1919">5. 200 {statut=CLOTUREE}</text></g><g class="message" data-participant-1="UI" data-participant-2="Tech"><polygon fill="#181818" points="39.8677,277.3906,29.8677,281.3906,39.8677,285.3906,35.8677,281.3906" style="stroke:#181818;stroke-width:1;"/><line style="stroke:#181818;stroke-width:1;stroke-dasharray:2,2;" x1="33.8677" x2="309.9961" y1="281.3906" y2="281.3906"/><text fill="#000000" font-family="sans-serif" font-size="13" font-weight="bold" lengthAdjust="spacing" textLength="9.0454" x="45.8677" y="276.3247">6</text><text fill="#000000" font-family="sans-serif" font-size="13" lengthAdjust="spacing" textLength="100.8706" x="58.9131" y="276.3247">6. Confirmation</text></g><!--SRC=[TP5VJi904CRVznHVUF09YkAV1n9DeDJO10D2Uu2XR6K3tMrsfnX3IBo2T_46tiIJkAt1G8oF- -tCx_jcXXLl949J59LM6R4o6Xs4cyyFhgn4h5dQhTIrBjnQwP8i5N0hMfeNfP-HqyP98RpCAbCbQKOYizM9q4fZ32bRVxszcpnNcMo17DBuj6WmZJ6BvadpwHzYIKmBSXAjnzVvqxZHHqCXg6AZgs8XhH2r5pft7eO-BW9CggrL5keeDixWI3clMYfBOrduOjzI-_NH2p0T9E43kiSzhhjJoprsZeahlWt7aoITHL7xWDYBkjj3HaDuo6M0T3eQ9D6fiPEC_mXj-F7alTB28pg_SQu2cFKF_33LTO3U-VcVBFjc35_KhA2Fcy1VKUVA5iqHlm40]--></g></svg>