<svg xmlns="http://www.w3.org/2000/svg" xmlns:xlink="http://www.w3.org/1999/xlink" contentStyleType="text/css" data-diagram-type="DESCRIPTION" height="1042px" preserveAspectRatio="none" style="width:1816px;height:1042px;background:#FFFFFF;" version="1.1" viewBox="0 0 1816 1042" width="1816px" zoomAndPan="magnify"><title>Composants - ONT Zarzis</title><defs/><g><g class="title" data-source-line="1"><text fill="#000000" font-family="sans-serif" font-size="14" font-weight="bold" lengthAdjust="spacing" textLength="198.2764" x="802.1118" y="22.9951">Composants - ONT Zarzis</text></g><!--cluster Frontend (Next.js App Router)--><g class="cluster" data-entity="Frontend .Next.js App Router." data-source-line="7" data-uid="ent0002" id="cluster_Frontend .Next.js App Router."><path d="M1139,43.2969 L1379.3672,43.2969 A3.75,3.75 0 0 1 1381.8672,45.7969 L1388.8672,65.5938 L1569,65.5938 A2.5,2.5 0 0 1 1571.5,68.0938 L1571.5,225.3969 A2.5,2.5 0 0 1 1569,227.8969 L1139,227.8969 A2.5,2.5 0 0 1 1136.5,225.3969 L1136.5,45.7969 A2.5,2.5 0 0 1 1139,43.2969" fill="none" style="stroke:#000000;stroke-width:1.5;"/><line style="stroke:#000000;stroke-width:1.5;" x1="1136.5" x2="1388.8672" y1="65.5938" y2="65.5938"/><text fill="#000000" font-family="sans-serif" font-size="14" font-weight="bold" lengthAdjust="spacing" textLength="239.3672" x="1140.5" y="58.292">Frontend (Next.js App Router)</text></g><!--cluster API / Services--><g class="cluster" data-entity="API . Services" data-source-line="14" data-uid="ent0007" id="cluster_API . Services"><path d="M27,597.4869 L135.7002,597.4869 A3.75,3.75 0 0 1 138.2002,599.9869 L145.2002,619.7838 L806,619.7838 A2.5,2.5 0 0 1 808.5,622.2838 L808.5,790.4369 A2.5,2.5 0 0 1 806,792.9369 L27,792.9369 A2.5,2.5 0 0 1 24.5,790.4369 L24.5,599.9869 A2.5,2.5 0 0 1 27,597.4869" fill="none" style="stroke:#000000;stroke-width:1.5;"/><line style="stroke:#000000;stroke-width:1.5;" x1="24.5" x2="145.2002" y1="619.7838" y2="619.7838"/><text fill="#000000" font-family="sans-serif" font-size="14" font-weight="bold" lengthAdjust="spacing" textLength="107.7002" x="28.5" y="612.482">API / Services</text></g><!--cluster Donn?es & Int?gration--><g class="cluster" data-entity="Donn.es . Int.gration" data-source-line="23" data-uid="ent0014" id="cluster_Donn.es . Int.gration"><path d="M82,841.9369 L262.2656,841.9369 A3.75,3.75 0 0 1 264.7656,844.4369 L271.7656,864.2338 L526,864.2338 A2.5,2.5 0 0 1 528.5,866.7338 L528.5,1033.0269 A2.5,2.5 0 0 1 526,1035.5269 L82,1035.5269 A2.5,2.5 0 0 1 79.5,1033.0269 L79.5,844.4369 A2.5,2.5 0 0 1 82,841.9369" fill="none" style="stroke:#000000;stroke-width:1.5;"/><line style="stroke:#000000;stroke-width:1.5;" x1="79.5" x2="271.7656" y1="864.2338" y2="864.2338"/><text fill="#000000" font-family="sans-serif" font-size="14" font-weight="bold" lengthAdjust="spacing" textLength="179.2656" x="83.5" y="856.932">Donn&#233;es &amp; Int&#233;gration</text></g><!--cluster Edge / Infrastructure--><g class="cluster" data-entity="Edge . Infrastructure" data-source-line="30" data-uid="ent0019" id="cluster_Edge . Infrastructure"><path d="M1204,260.8969 L1369.835,260.8969 A3.75,3.75 0 0 1 1372.335,263.3969 L1379.335,283.1938 L1532,283.1938 A2.5,2.5 0 0 1 1534.5,285.6938 L1534.5,442.9869 A2.5,2.5 0 0 1 1532,445.4869 L1204,445.4869 A2.5,2.5 0 0 1 1201.5,442.9869 L1201.5,263.3969 A2.5,2.5 0 0 1 1204,260.8969" fill="none" style="stroke:#000000;stroke-width:1.5;"/><line style="stroke:#000000;stroke-width:1.5;" x1="1201.5" x2="1379.335" y1="283.1938" y2="283.1938"/><text fill="#000000" font-family="sans-serif" font-size="14" font-weight="bold" lengthAdjust="spacing" textLength="164.835" x="1205.5" y="275.892">Edge / Infrastructure</text></g><!--entity UIPub--><g class="entity" data-entity="UIPub" data-source-line="8" data-uid="ent0003" id="entity_UIPub"><rect fill="#F1F1F1" height="36.2969" rx="2.5" ry="2.5" style="stroke:#181818;stroke-width:0.5;" width="99.1807" x="1179.91" y="175.5969"/><text fill="#000000" font-family="sans-serif" font-size="14" lengthAdjust="spacing" textLength="79.1807" x="1189.91" y="198.592">UI Publique</text></g><!--entity UIBO--><g class="entity" data-entity="UIBO" data-source-line="9" data-uid="ent0004" id="entity_UIBO"><rect fill="#F1F1F1" height="36.2969" rx="2.5" ry="2.5" style="stroke:#181818;stroke-width:0.5;" width="116.4893" x="1314.26" y="175.5969"/><text fill="#000000" font-family="sans-serif" font-size="14" lengthAdjust="spacing" textLength="96.4893" x="1324.26" y="198.592">UI Back&#8209;office</text></g><!--entity Layout--><g class="entity" data-entity="Layout" data-source-line="10" data-uid="ent0005" id="entity_Layout"><rect fill="#F1F1F1" height="36.2969" rx="2.5" ry="2.5" style="stroke:#181818;stroke-width:0.5;" width="122.1699" x="1152.42" y="78.2969"/><text fill="#000000" font-family="sans-serif" font-size="14" lengthAdjust="spacing" textLength="102.1699" x="1162.42" y="101.292">Layout &amp; Meta</text></g><!--entity DS--><g class="entity" data-entity="DS" data-source-line="11" data-uid="ent0006" id="entity_DS"><rect fill="#F1F1F1" height="36.2969" rx="2.5" ry="2.5" style="stroke:#181818;stroke-width:0.5;" width="246.1533" x="1309.42" y="78.2969"/><text fill="#000000" font-family="sans-serif" font-size="14" lengthAdjust="spacing" textLength="226.1533" x="1319.42" y="101.292">Composants UI (Design System)</text></g><!--entity API_Interv--><g class="entity" data-entity="API_Interv" data-source-line="15" data-uid="ent0008" id="entity_API_Interv"><rect fill="#F1F1F1" height="36.2969" rx="2.5" ry="2.5" style="stroke:#181818;stroke-width:0.5;" width="139.3418" x="260.83" y="740.6369"/><text fill="#000000" font-family="sans-serif" font-size="14" lengthAdjust="spacing" textLength="119.3418" x="270.83" y="763.632">API Interventions</text></g><!--entity API_Equip--><g class="entity" data-entity="API_Equip" data-source-line="16" data-uid="ent0009" id="entity_API_Equip"><rect fill="#F1F1F1" height="36.2969" rx="2.5" ry="2.5" style="stroke:#181818;stroke-width:0.5;" width="138.501" x="435.25" y="740.6369"/><text fill="#000000" font-family="sans-serif" font-size="14" lengthAdjust="spacing" textLength="118.501" x="445.25" y="763.632">API Equipements</text></g><!--entity API_Freq--><g class="entity" data-entity="API_Freq" data-source-line="17" data-uid="ent0010" id="entity_API_Freq"><rect fill="#F1F1F1" height="36.2969" rx="2.5" ry="2.5" style="stroke:#181818;stroke-width:0.5;" width="127.8711" x="143.56" y="632.4869"/><text fill="#000000" font-family="sans-serif" font-size="14" lengthAdjust="spacing" textLength="107.8711" x="153.56" y="655.482">API Frequences</text></g><!--entity API_Content--><g class="entity" data-entity="API_Content" data-source-line="18" data-uid="ent0011" id="entity_API_Content"><rect fill="#F1F1F1" height="36.2969" rx="2.5" ry="2.5" style="stroke:#181818;stroke-width:0.5;" width="185.04" x="40.98" y="740.6369"/><text fill="#000000" font-family="sans-serif" font-size="14" lengthAdjust="spacing" textLength="165.04" x="50.98" y="763.632">API Actualites &amp; Alertes</text></g><!--entity API_Users--><g class="entity" data-entity="API_Users" data-source-line="19" data-uid="ent0012" id="entity_API_Users"><rect fill="#F1F1F1" height="36.2969" rx="2.5" ry="2.5" style="stroke:#181818;stroke-width:0.5;" width="184.4043" x="608.3" y="740.6369"/><text fill="#000000" font-family="sans-serif" font-size="14" lengthAdjust="spacing" textLength="164.4043" x="618.3" y="763.632">API Utilisateurs &amp; RBAC</text></g><!--entity MW_Auth--><g class="entity" data-entity="MW_Auth" data-source-line="20" data-uid="ent0013" id="entity_MW_Auth"><rect fill="#F1F1F1" height="36.2969" rx="2.5" ry="2.5" style="stroke:#181818;stroke-width:0.5;" width="190.208" x="409.4" y="632.4869"/><text fill="#000000" font-family="sans-serif" font-size="14" lengthAdjust="spacing" textLength="170.208" x="419.4" y="655.482">Middleware Auth / RBAC</text></g><!--entity Prisma--><g class="entity" data-entity="Prisma" data-source-line="24" data-uid="ent0015" id="entity_Prisma"><rect fill="#F1F1F1" height="36.2969" rx="2.5" ry="2.5" style="stroke:#181818;stroke-width:0.5;" width="104.875" x="263.06" y="876.9369"/><text fill="#000000" font-family="sans-serif" font-size="14" lengthAdjust="spacing" textLength="84.875" x="273.06" y="899.932">Prisma ORM</text></g><!--entity DB--><g class="entity" data-entity="DB" data-source-line="25" data-uid="ent0016" id="entity_DB"><path d="M352.46,984.2269 C352.46,974.2269 386.4952,974.2269 386.4952,974.2269 C386.4952,974.2269 420.5303,974.2269 420.5303,984.2269 L420.5303,1009.5238 C420.5303,1019.5238 386.4952,1019.5238 386.4952,1019.5238 C386.4952,1019.5238 352.46,1019.5238 352.46,1009.5238 L352.46,984.2269" fill="#F1F1F1" style="stroke:#181818;stroke-width:0.5;"/><path d="M352.46,984.2269 C352.46,994.2269 386.4952,994.2269 386.4952,994.2269 C386.4952,994.2269 420.5303,994.2269 420.5303,984.2269" fill="none" style="stroke:#181818;stroke-width:0.5;"/><text fill="#000000" font-family="sans-serif" font-size="14" lengthAdjust="spacing" textLength="48.0703" x="362.46" y="1011.222">MySQL</text></g><!--entity Audit--><g class="entity" data-entity="Audit" data-source-line="26" data-uid="ent0017" id="entity_Audit"><rect fill="#F1F1F1" height="36.2969" rx="2.5" ry="2.5" style="stroke:#181818;stroke-width:0.5;" width="109.6738" x="402.66" y="876.9369"/><text fill="#000000" font-family="sans-serif" font-size="14" lengthAdjust="spacing" textLength="89.6738" x="412.66" y="899.932">Audit Logger</text></g><!--entity Zod--><g class="entity" data-entity="Zod" data-source-line="27" data-uid="ent0018" id="entity_Zod"><rect fill="#F1F1F1" height="36.2969" rx="2.5" ry="2.5" style="stroke:#181818;stroke-width:0.5;" width="132.6357" x="95.18" y="876.9369"/><text fill="#000000" font-family="sans-serif" font-size="14" lengthAdjust="spacing" textLength="112.6357" x="105.18" y="899.932">Validation (Zod)</text></g><!--entity CF_Pages--><g class="entity" data-entity="CF_Pages" data-source-line="31" data-uid="ent0020" id="entity_CF_Pages"><rect fill="#F1F1F1" height="36.2969" rx="2.5" ry="2.5" style="stroke:#181818;stroke-width:0.5;" width="173.7676" x="1217.62" y="295.8969"/><text fill="#000000" font-family="sans-serif" font-size="14" lengthAdjust="spacing" textLength="153.7676" x="1227.62" y="318.892">Cloudflare Pages/CDN</text></g><!--entity CF_Workers--><g class="entity" data-entity="CF_Workers" data-source-line="32" data-uid="ent0021" id="entity_CF_Workers"><rect fill="#F1F1F1" height="36.2969" rx="2.5" ry="2.5" style="stroke:#181818;stroke-width:0.5;" width="207.4209" x="1217.79" y="393.1869"/><text fill="#000000" font-family="sans-serif" font-size="14" lengthAdjust="spacing" textLength="187.4209" x="1227.79" y="416.182">Cloudflare Workers/Routes</text></g><!--entity ENV--><g class="entity" data-entity="ENV" data-source-line="33" data-uid="ent0022" id="entity_ENV"><rect fill="#F1F1F1" height="36.2969" rx="2.5" ry="2.5" style="stroke:#181818;stroke-width:0.5;" width="91.5996" x="1426.7" y="295.8969"/><text fill="#000000" font-family="sans-serif" font-size="14" lengthAdjust="spacing" textLength="71.5996" x="1436.7" y="318.892">Env (.env)</text></g><!--entity I_Interv--><g class="entity" data-entity="I_Interv" data-source-line="37" data-uid="ent0023" id="entity_I_Interv"><ellipse cx="1168.5" cy="650.6369" fill="#FFFFFF" rx="8" ry="8" style="stroke:#181818;stroke-width:0.5;"/><text fill="#000000" font-family="sans-serif" font-size="14" lengthAdjust="spacing" textLength="171.5342" x="1082.7329" y="680.632">GET/POST /interventions</text></g><!--entity I_Equip--><g class="entity" data-entity="I_Equip" data-source-line="38" data-uid="ent0024" id="entity_I_Equip"><ellipse cx="1389.5" cy="650.6369" fill="#FFFFFF" rx="8" ry="8" style="stroke:#181818;stroke-width:0.5;"/><text fill="#000000" font-family="sans-serif" font-size="14" lengthAdjust="spacing" textLength="170.7002" x="1304.1499" y="680.632">GET/POST /equipements</text></g><!--entity I_Freq--><g class="entity" data-entity="I_Freq" data-source-line="39" data-uid="ent0025" id="entity_I_Freq"><ellipse cx="891.5" cy="521.4869" fill="#FFFFFF" rx="8" ry="8" style="stroke:#181818;stroke-width:0.5;"/><text fill="#000000" font-family="sans-serif" font-size="14" lengthAdjust="spacing" textLength="115.5615" x="833.7192" y="551.482">GET /frequences</text></g><!--entity I_Content--><g class="entity" data-entity="I_Content" data-source-line="40" data-uid="ent0026" id="entity_I_Content"><ellipse cx="932.5" cy="650.6369" fill="#FFFFFF" rx="8" ry="8" style="stroke:#181818;stroke-width:0.5;"/><text fill="#000000" font-family="sans-serif" font-size="14" lengthAdjust="spacing" textLength="200.375" x="832.3125" y="680.632">GET/POST /actualites|alertes</text></g><!--entity I_Users--><g class="entity" data-entity="I_Users" data-source-line="41" data-uid="ent0027" id="entity_I_Users"><ellipse cx="1601.5" cy="650.6369" fill="#FFFFFF" rx="8" ry="8" style="stroke:#181818;stroke-width:0.5;"/><text fill="#000000" font-family="sans-serif" font-size="14" lengthAdjust="spacing" textLength="153.4531" x="1524.7734" y="680.632">POST /login | GET /me</text></g><!--link UIPub to CF_Pages--><g class="link" data-entity-1="UIPub" data-entity-2="CF_Pages" data-source-line="44" data-uid="lnk28" id="link_UIPub_CF_Pages"><path d="M1240.57,212.1969 C1254.75,234.5669 1275.9775,268.0493 1290.1775,290.4493" fill="none" id="UIPub-to-CF_Pages" style="stroke:#181818;stroke-width:1;"/><polygon fill="#181818" points="1293.39,295.5169,1291.9497,285.7739,1290.7129,291.2939,1285.1929,290.0572,1293.39,295.5169" style="stroke:#181818;stroke-width:1;"/></g><!--link UIBO to CF_Pages--><g class="link" data-entity-1="UIBO" data-entity-2="CF_Pages" data-source-line="45" data-uid="lnk29" id="link_UIBO_CF_Pages"><path d="M1362.47,212.1969 C1349.61,234.5669 1330.4408,267.9154 1317.5608,290.3154" fill="none" id="UIBO-to-CF_Pages" style="stroke:#181818;stroke-width:1;"/><polygon fill="#181818" points="1314.57,295.5169,1322.5239,289.7086,1317.0624,291.1823,1315.5886,285.7208,1314.57,295.5169" style="stroke:#181818;stroke-width:1;"/></g><!--link CF_Pages to CF_Workers--><g class="link" data-entity-1="CF_Pages" data-entity-2="CF_Workers" data-source-line="46" data-uid="lnk30" id="link_CF_Pages_CF_Workers"><path d="M1307.62,332.5169 C1310.69,349.7169 1314.2861,369.9102 1317.3461,387.0602" fill="none" id="CF_Pages-to-CF_Workers" style="stroke:#181818;stroke-width:1;"/><polygon fill="#181818" points="1318.4,392.9669,1320.7569,383.4042,1317.5217,388.0446,1312.8813,384.8094,1318.4,392.9669" style="stroke:#181818;stroke-width:1;"/></g><!--link CF_Workers to I_Freq--><g class="link" data-entity-1="CF_Workers" data-entity-2="I_Freq" data-source-line="47" data-uid="lnk31" id="link_CF_Workers_I_Freq"><path d="M1243.19,429.9069 C1203.37,439.0069 1154.28,450.4969 1110.5,461.4869 C1028.39,482.1069 935.5052,508.08 906.0052,516.39" fill="none" id="CF_Workers-to-I_Freq" style="stroke:#181818;stroke-width:1;"/><polygon fill="#181818" points="900.23,518.0169,909.9774,519.4268,905.0427,516.6612,907.8083,511.7264,900.23,518.0169" style="stroke:#181818;stroke-width:1;"/></g><!--link CF_Workers to I_Content--><g class="link" data-entity-1="CF_Workers" data-entity-2="I_Content" data-source-line="48" data-uid="lnk32" id="link_CF_Workers_I_Content"><path d="M1292.58,429.9769 C1212.11,479.0669 993.5422,612.4023 946.4122,641.1523" fill="none" id="CF_Workers-to-I_Content" style="stroke:#181818;stroke-width:1;"/><polygon fill="#181818" points="941.29,644.2769,951.0564,643.0048,945.5585,641.673,946.8902,636.1752,941.29,644.2769" style="stroke:#181818;stroke-width:1;"/></g><!--link CF_Workers to I_Interv--><g class="link" data-entity-1="CF_Workers" data-entity-2="I_Interv" data-source-line="49" data-uid="lnk33" id="link_CF_Workers_I_Interv"><path d="M1310.25,429.7869 C1279.47,477.5269 1198.0015,603.8743 1176.6715,636.9543" fill="none" id="CF_Workers-to-I_Interv" style="stroke:#181818;stroke-width:1;"/><polygon fill="#181818" points="1173.42,641.9969,1181.659,636.6006,1176.1296,637.7947,1174.9355,632.2653,1173.42,641.9969" style="stroke:#181818;stroke-width:1;"/></g><!--link CF_Workers to I_Equip--><g class="link" data-entity-1="CF_Workers" data-entity-2="I_Equip" data-source-line="50" data-uid="lnk34" id="link_CF_Workers_I_Equip"><path d="M1326.5,429.7869 C1340.18,477.5269 1376.1771,603.149 1385.6571,636.229" fill="none" id="CF_Workers-to-I_Equip" style="stroke:#181818;stroke-width:1;"/><polygon fill="#181818" points="1387.31,641.9969,1388.6758,632.2432,1385.9326,637.1904,1380.9854,634.4471,1387.31,641.9969" style="stroke:#181818;stroke-width:1;"/></g><!--link CF_Workers to I_Users--><g class="link" data-entity-1="CF_Workers" data-entity-2="I_Users" data-source-line="51" data-uid="lnk35" id="link_CF_Workers_I_Users"><path d="M1342.09,429.7869 C1398.54,477.6369 1549.5725,605.6279 1588.1725,638.3379" fill="none" id="CF_Workers-to-I_Users" style="stroke:#181818;stroke-width:1;"/><polygon fill="#181818" points="1592.75,642.2169,1588.4698,633.3467,1588.9354,638.9844,1583.2978,639.45,1592.75,642.2169" style="stroke:#181818;stroke-width:1;"/></g><!--link I_Interv to API_Interv--><g class="link" data-entity-1="I_Interv" data-entity-2="API_Interv" data-source-line="54" data-uid="lnk36" id="link_I_Interv_API_Interv"><path d="M1159.76,654.3569 C1141.27,659.9869 1096.75,672.9869 1058.5,679.6369 C776.55,728.6369 700.68,699.3569 417.5,740.6369 C411.86,741.4569 411.9522,741.3744 406.1122,742.3844" fill="none" id="I_Interv-to-API_Interv" style="stroke:#181818;stroke-width:1;stroke-dasharray:7,7;"/><polygon fill="#181818" points="400.2,743.4069,409.75,745.8146,405.1269,742.5548,408.3867,737.9316,400.2,743.4069" style="stroke:#181818;stroke-width:1;"/></g><!--link I_Equip to API_Equip--><g class="link" data-entity-1="I_Equip" data-entity-2="API_Equip" data-source-line="55" data-uid="lnk37" id="link_I_Equip_API_Equip"><path d="M1380.76,654.3769 C1362.28,660.0469 1317.77,673.1169 1279.5,679.6369 C976.45,731.2769 894.8,696.9569 590.5,740.6369 C585.07,741.4169 585.3823,741.2946 579.7723,742.2646" fill="none" id="I_Equip-to-API_Equip" style="stroke:#181818;stroke-width:1;stroke-dasharray:7,7;"/><polygon fill="#181818" points="573.86,743.2869,583.4099,745.695,578.7869,742.435,582.0469,737.812,573.86,743.2869" style="stroke:#181818;stroke-width:1;"/></g><!--link I_Freq to API_Freq--><g class="link" data-entity-1="I_Freq" data-entity-2="API_Freq" data-source-line="56" data-uid="lnk38" id="link_I_Freq_API_Freq"><path d="M882.51,523.0769 C832.84,526.4569 587.03,544.8269 391.5,589.4869 C343.5,600.4569 295.814,616.5033 258.984,629.9933" fill="none" id="I_Freq-to-API_Freq" style="stroke:#181818;stroke-width:1;stroke-dasharray:7,7;"/><polygon fill="#181818" points="253.35,632.0569,263.1767,632.7175,258.045,630.3372,260.4252,625.2055,253.35,632.0569" style="stroke:#181818;stroke-width:1;"/></g><!--link I_Content to API_Content--><g class="link" data-entity-1="I_Content" data-entity-2="API_Content" data-source-line="57" data-uid="lnk39" id="link_I_Content_API_Content"><path d="M923.55,654.0269 C903.23,659.3769 852.04,672.3969 808.5,679.6369 C559.35,721.0769 493.9,707.6169 243.5,740.6369 C237.94,741.3669 238.1699,741.3098 232.4199,742.1298" fill="none" id="I_Content-to-API_Content" style="stroke:#181818;stroke-width:1;stroke-dasharray:7,7;"/><polygon fill="#181818" points="226.48,742.9769,235.9546,745.6662,231.4299,742.271,234.8251,737.7463,226.48,742.9769" style="stroke:#181818;stroke-width:1;"/></g><!--link I_Users to API_Users--><g class="link" data-entity-1="I_Users" data-entity-2="API_Users" data-source-line="58" data-uid="lnk40" id="link_I_Users_API_Users"><path d="M1592.7,654.6369 C1575.31,660.4269 1535.21,673.1769 1500.5,679.6369 C1247.03,726.7869 948.7428,746.2923 799.0028,753.6523" fill="none" id="I_Users-to-API_Users" style="stroke:#181818;stroke-width:1;stroke-dasharray:7,7;"/><polygon fill="#181818" points="793.01,753.9469,802.1955,757.5002,798.004,753.7014,801.8028,749.5099,793.01,753.9469" style="stroke:#181818;stroke-width:1;"/></g><!--link MW_Auth to API_Interv--><g class="link" data-entity-1="MW_Auth" data-entity-2="API_Interv" data-source-line="61" data-uid="lnk41" id="link_MW_Auth_API_Interv"><path d="M475.77,669.1669 C443.53,688.8369 396.6524,717.4326 364.4024,737.1026" fill="none" id="MW_Auth-to-API_Interv" style="stroke:#181818;stroke-width:1;stroke-dasharray:7,7;"/><polygon fill="#181818" points="359.28,740.2269,369.0464,738.9554,363.5487,737.6233,364.8808,732.1255,359.28,740.2269" style="stroke:#181818;stroke-width:1;"/></g><!--link MW_Auth to API_Equip--><g class="link" data-entity-1="MW_Auth" data-entity-2="API_Equip" data-source-line="62" data-uid="lnk42" id="link_MW_Auth_API_Equip"><path d="M504.5,669.1669 C504.5,688.8369 504.5,714.5569 504.5,734.2269" fill="none" id="MW_Auth-to-API_Equip" style="stroke:#181818;stroke-width:1;stroke-dasharray:7,7;"/><polygon fill="#181818" points="504.5,740.2269,508.5,731.2269,504.5,735.2269,500.5,731.2269,504.5,740.2269" style="stroke:#181818;stroke-width:1;"/></g><!--link MW_Auth to API_Content--><g class="link" data-entity-1="MW_Auth" data-entity-2="API_Content" data-source-line="63" data-uid="lnk43" id="link_MW_Auth_API_Content"><path d="M442.82,669.2869 C374.1,688.9469 269.4384,718.8858 200.7884,738.5358" fill="none" id="MW_Auth-to-API_Content" style="stroke:#181818;stroke-width:1;stroke-dasharray:7,7;"/><polygon fill="#181818" points="195.02,740.1869,204.7733,741.5558,199.827,738.811,202.5718,733.8647,195.02,740.1869" style="stroke:#181818;stroke-width:1;"/></g><!--link MW_Auth to API_Users--><g class="link" data-entity-1="MW_Auth" data-entity-2="API_Users" data-source-line="64" data-uid="lnk44" id="link_MW_Auth_API_Users"><path d="M536.87,669.1669 C573.18,688.8369 626.4734,717.7008 662.8134,737.3708" fill="none" id="MW_Auth-to-API_Users" style="stroke:#181818;stroke-width:1;stroke-dasharray:7,7;"/><polygon fill="#181818" points="668.09,740.2269,662.0792,732.425,663.6928,737.8468,658.271,739.4605,668.09,740.2269" style="stroke:#181818;stroke-width:1;"/></g><!--link Zod to API_Interv--><g class="link" data-entity-1="Zod" data-entity-2="API_Interv" data-source-line="65" data-uid="lnk45" id="link_Zod_API_Interv"><path d="M147.09,876.5569 C133.33,857.6269 117.08,827.6769 134.5,808.9369 C142.77,800.0369 231.76,804.0269 243.5,800.9369 C263.37,795.6969 278.932,788.8132 295.242,780.1432" fill="none" id="Zod-to-API_Interv" style="stroke:#181818;stroke-width:1;stroke-dasharray:7,7;"/><polygon fill="#181818" points="300.54,777.3269,290.7155,778.0193,296.125,779.6738,294.4705,785.0833,300.54,777.3269" style="stroke:#181818;stroke-width:1;"/></g><!--link Zod to API_Equip--><g class="link" data-entity-1="Zod" data-entity-2="API_Equip" data-source-line="66" data-uid="lnk46" id="link_Zod_API_Equip"><path d="M181.19,876.6469 C197.4,863.1469 221.54,844.9469 245.5,833.9369 C287.91,814.4369 301.55,817.1569 347.5,808.9369 C378.32,803.4169 387.39,809.5169 417.5,800.9369 C436.94,795.3869 452.1228,788.6768 468.3428,780.1968" fill="none" id="Zod-to-API_Equip" style="stroke:#181818;stroke-width:1;stroke-dasharray:7,7;"/><polygon fill="#181818" points="473.66,777.4169,463.831,778.0419,469.229,779.7334,467.5375,785.1315,473.66,777.4169" style="stroke:#181818;stroke-width:1;"/></g><!--link Zod to API_Content--><g class="link" data-entity-1="Zod" data-entity-2="API_Content" data-source-line="67" data-uid="lnk47" id="link_Zod_API_Content"><path d="M135.72,876.5069 C120.29,864.3269 102.06,846.6269 93.5,825.9369 C86.27,808.4469 94.8794,794.3815 107.8994,781.4715" fill="none" id="Zod-to-API_Content" style="stroke:#181818;stroke-width:1;stroke-dasharray:7,7;"/><polygon fill="#181818" points="112.16,777.2469,102.9527,780.7434,108.6095,780.7674,108.5855,786.4242,112.16,777.2469" style="stroke:#181818;stroke-width:1;"/></g><!--link Zod to API_Users--><g class="link" data-entity-1="Zod" data-entity-2="API_Users" data-source-line="68" data-uid="lnk48" id="link_Zod_API_Users"><path d="M179.81,876.5069 C195.78,862.3469 220.28,843.3069 245.5,833.9369 C282.31,820.2469 295.14,834.3269 333.5,825.9369 C355.61,821.0969 359.27,813.1869 381.5,808.9369 C473.23,791.3669 499.95,819.4469 591.5,800.9369 C616.08,795.9669 636.9115,788.512 657.5315,779.712" fill="none" id="Zod-to-API_Users" style="stroke:#181818;stroke-width:1;stroke-dasharray:7,7;"/><polygon fill="#181818" points="663.05,777.3569,653.2022,777.2106,658.4513,779.3195,656.3424,784.5685,663.05,777.3569" style="stroke:#181818;stroke-width:1;"/></g><!--link API_Interv to Prisma--><g class="link" data-entity-1="API_Interv" data-entity-2="Prisma" data-source-line="71" data-uid="lnk49" id="link_API_Interv_Prisma"><path d="M315.61,777.1969 C308.99,786.0769 301.92,797.4169 298.5,808.9369 C291.68,831.9069 297.5925,853.6542 304.7925,871.0242" fill="none" id="API_Interv-to-Prisma" style="stroke:#181818;stroke-width:1;"/><polygon fill="#181818" points="307.09,876.5669,307.3389,866.7212,305.1754,871.948,299.9486,869.7845,307.09,876.5669" style="stroke:#181818;stroke-width:1;"/></g><!--link API_Equip to Prisma--><g class="link" data-entity-1="API_Equip" data-entity-2="Prisma" data-source-line="72" data-uid="lnk50" id="link_API_Equip_Prisma"><path d="M472.68,777.2969 C456.56,785.5369 436.43,794.8569 417.5,800.9369 C398.58,807.0169 390.17,798.0969 373.5,808.9369 C348.3,825.3069 333.6363,851.3738 324.8563,871.1338" fill="none" id="API_Equip-to-Prisma" style="stroke:#181818;stroke-width:1;"/><polygon fill="#181818" points="322.42,876.6169,329.7299,870.0164,324.4503,872.0476,322.4191,866.768,322.42,876.6169" style="stroke:#181818;stroke-width:1;"/></g><!--link API_Freq to Prisma--><g class="link" data-entity-1="API_Freq" data-entity-2="Prisma" data-source-line="73" data-uid="lnk51" id="link_API_Freq_Prisma"><path d="M143.3,664.3569 C101.33,676.3669 49.61,698.9969 23.5,740.6369 C9.26,763.3369 6,780.6369 23.5,800.9369 C56.07,838.7069 200.14,813.1969 245.5,833.9369 C267.21,843.8569 283.2578,858.2283 296.3178,872.1683" fill="none" id="API_Freq-to-Prisma" style="stroke:#181818;stroke-width:1;"/><polygon fill="#181818" points="300.42,876.5469,297.1858,867.2442,297.0015,872.898,291.3477,872.7138,300.42,876.5469" style="stroke:#181818;stroke-width:1;"/></g><!--link API_Content to Prisma--><g class="link" data-entity-1="API_Content" data-entity-2="Prisma" data-source-line="74" data-uid="lnk52" id="link_API_Content_Prisma"><path d="M163.64,777.2169 C178.85,786.2769 197.43,797.7769 213.5,808.9369 C244.19,830.2469 272.4444,854.6574 292.3144,872.6674" fill="none" id="API_Content-to-Prisma" style="stroke:#181818;stroke-width:1;"/><polygon fill="#181818" points="296.76,876.6969,292.7779,867.6889,293.0553,873.339,287.4053,873.6164,296.76,876.6969" style="stroke:#181818;stroke-width:1;"/></g><!--link API_Users to Prisma--><g class="link" data-entity-1="API_Users" data-entity-2="Prisma" data-source-line="75" data-uid="lnk53" id="link_API_Users_Prisma"><path d="M662.79,777.3769 C642.19,786.1169 615.96,795.8769 591.5,800.9369 C554.46,808.5969 457.32,796.7869 421.5,808.9369 C383.27,821.8969 352.816,851.0612 334.156,871.9612" fill="none" id="API_Users-to-Prisma" style="stroke:#181818;stroke-width:1;"/><polygon fill="#181818" points="330.16,876.4369,339.1378,872.3873,333.49,872.7071,333.1702,867.0593,330.16,876.4369" style="stroke:#181818;stroke-width:1;"/></g><!--link Prisma to DB--><g class="link" data-entity-1="Prisma" data-entity-2="DB" data-source-line="78" data-uid="lnk54" id="link_Prisma_DB"><path d="M327.87,913.4669 C339.79,930.2169 354.3912,950.7483 367.3212,968.9183" fill="none" id="Prisma-to-DB" style="stroke:#181818;stroke-width:1;"/><polygon fill="#181818" points="370.8,973.8069,368.8409,964.1548,367.901,969.7331,362.3228,968.7932,370.8,973.8069" style="stroke:#181818;stroke-width:1;"/></g><!--link API_Interv to Audit--><g class="link" data-entity-1="API_Interv" data-entity-2="Audit" data-source-line="81" data-uid="lnk55" id="link_API_Interv_Audit"><path d="M347.1,777.3369 C371.44,803.0769 412.4276,846.4173 436.7676,872.1573" fill="none" id="API_Interv-to-Audit" style="stroke:#181818;stroke-width:1;stroke-dasharray:7,7;"/><polygon fill="#181818" points="440.89,876.5169,437.6127,867.2293,437.4546,872.8839,431.8,872.7258,440.89,876.5169" style="stroke:#181818;stroke-width:1;"/><text fill="#000000" font-family="sans-serif" font-size="13" lengthAdjust="spacing" textLength="159.561" x="391.5" y="822.0038">log(create/update/close)</text></g><!--link API_Equip to Audit--><g class="link" data-entity-1="API_Equip" data-entity-2="Audit" data-source-line="82" data-uid="lnk56" id="link_API_Equip_Audit"><path d="M537.8,777.4169 C553.51,785.2869 572.67,794.2669 590.5,800.9369 C603.02,805.6169 611.4,798.2969 619.5,808.9369 C624.08,814.9469 623.68,819.6369 619.5,825.9369 C595.87,861.5169 555.4899,877.2679 518.4399,885.4179" fill="none" id="API_Equip-to-Audit" style="stroke:#181818;stroke-width:1;stroke-dasharray:7,7;"/><polygon fill="#181818" points="512.58,886.7069,522.2292,888.6799,517.4632,885.6327,520.5105,880.8667,512.58,886.7069" style="stroke:#181818;stroke-width:1;"/><text fill="#000000" font-family="sans-serif" font-size="13" lengthAdjust="spacing" textLength="58.9443" x="624.5" y="822.0038">log(crud)</text></g><!--link API_Users to Audit--><g class="link" data-entity-1="API_Users" data-entity-2="Audit" data-source-line="83" data-uid="lnk57" id="link_API_Users_Audit"><path d="M702.97,777.3469 C704,792.0469 702.93,812.6769 691.5,825.9369 C647.23,877.2969 572.6801,890.7122 518.6301,893.8222" fill="none" id="API_Users-to-Audit" style="stroke:#181818;stroke-width:1;stroke-dasharray:7,7;"/><polygon fill="#181818" points="512.64,894.1669,521.8549,897.6433,517.6317,893.8797,521.3954,889.6565,512.64,894.1669" style="stroke:#181818;stroke-width:1;"/><text fill="#000000" font-family="sans-serif" font-size="13" lengthAdjust="spacing" textLength="90.9175" x="701.5" y="822.0038">log(login/role)</text></g><!--link Audit to DB--><g class="link" data-entity-1="Audit" data-entity-2="DB" data-source-line="84" data-uid="lnk58" id="link_Audit_DB"><path d="M445.13,913.4669 C433.21,930.2169 418.6088,950.7483 405.6788,968.9183" fill="none" id="Audit-to-DB" style="stroke:#181818;stroke-width:1;"/><polygon fill="#181818" points="402.2,973.8069,410.6772,968.7932,405.099,969.7331,404.1591,964.1548,402.2,973.8069" style="stroke:#181818;stroke-width:1;"/></g><!--link Layout to UIPub--><g class="link" data-entity-1="Layout" data-entity-2="UIPub" data-source-line="87" data-uid="lnk59" id="link_Layout_UIPub"><path d="M1216.43,114.9269 C1219.32,132.1269 1222.7069,152.2996 1225.5869,169.4596" fill="none" id="Layout-to-UIPub" style="stroke:#181818;stroke-width:1;stroke-dasharray:7,7;"/><polygon fill="#181818" points="1226.58,175.3769,1229.0352,165.8389,1225.7524,170.4458,1221.1455,167.1631,1226.58,175.3769" style="stroke:#181818;stroke-width:1;"/></g><!--link Layout to UIBO--><g class="link" data-entity-1="Layout" data-entity-2="UIBO" data-source-line="88" data-uid="lnk60" id="link_Layout_UIBO"><path d="M1242.66,114.9269 C1271.26,132.0669 1309.4841,154.9715 1338.1041,172.1315" fill="none" id="Layout-to-UIBO" style="stroke:#181818;stroke-width:1;stroke-dasharray:7,7;"/><polygon fill="#181818" points="1343.25,175.2169,1337.5881,167.1582,1338.9617,172.6457,1333.4742,174.0194,1343.25,175.2169" style="stroke:#181818;stroke-width:1;"/></g><!--link DS to UIPub--><g class="link" data-entity-1="DS" data-entity-2="UIPub" data-source-line="89" data-uid="lnk61" id="link_DS_UIPub"><path d="M1395.27,114.9269 C1358.75,132.0669 1308.8212,155.507 1272.2712,172.667" fill="none" id="DS-to-UIPub" style="stroke:#181818;stroke-width:1;stroke-dasharray:7,7;"/><polygon fill="#181818" points="1266.84,175.2169,1276.6867,175.0128,1271.366,173.0919,1273.2869,167.7712,1266.84,175.2169" style="stroke:#181818;stroke-width:1;"/></g><!--link DS to UIBO--><g class="link" data-entity-1="DS" data-entity-2="UIBO" data-source-line="90" data-uid="lnk62" id="link_DS_UIBO"><path d="M1421.5,114.9269 C1410.67,132.1269 1397.4359,153.1389 1386.6359,170.2989" fill="none" id="DS-to-UIBO" style="stroke:#181818;stroke-width:1;stroke-dasharray:7,7;"/><polygon fill="#181818" points="1383.44,175.3769,1391.6192,169.8905,1386.1033,171.1452,1384.8486,165.6293,1383.44,175.3769" style="stroke:#181818;stroke-width:1;"/></g><!--link ENV to MW_Auth--><g class="link" data-entity-1="ENV" data-entity-2="MW_Auth" data-source-line="93" data-uid="lnk63" id="link_ENV_MW_Auth"><path d="M1426.36,327.4069 C1420.35,329.0169 1414.28,330.6469 1408.5,332.1869 C1141.86,403.5269 1065.93,392.9069 808.5,492.4869 C702.94,533.3169 591.2875,597.3242 538.4375,628.9742" fill="none" id="ENV-to-MW_Auth" style="stroke:#181818;stroke-width:1;stroke-dasharray:7,7;"/><polygon fill="#181818" points="533.29,632.0569,543.0664,630.8645,537.5796,629.488,538.9562,624.0012,533.29,632.0569" style="stroke:#181818;stroke-width:1;"/></g><!--link ENV to Prisma--><g class="link" data-entity-1="ENV" data-entity-2="Prisma" data-source-line="94" data-uid="lnk64" id="link_ENV_Prisma"><path d="M1518.65,318.4169 C1610.95,326.4269 1809.5,350.6069 1809.5,410.3369 C1809.5,410.3369 1809.5,410.3369 1809.5,759.7869 C1809.5,872.1369 912.75,821.1769 800.5,825.9369 C777.46,826.9069 407.04,825.7069 385.5,833.9369 C362.75,842.6169 346.3089,857.7059 333.4889,872.1759" fill="none" id="ENV-to-Prisma" style="stroke:#181818;stroke-width:1;stroke-dasharray:7,7;"/><polygon fill="#181818" points="329.51,876.6669,338.4723,872.583,332.8257,872.9244,332.4843,867.2779,329.51,876.6669" style="stroke:#181818;stroke-width:1;"/></g><!--link ENV to API_Users--><g class="link" data-entity-1="ENV" data-entity-2="API_Users" data-source-line="95" data-uid="lnk65" id="link_ENV_API_Users"><path d="M1518.53,321.8269 C1594.66,334.3669 1738.5,364.1669 1738.5,410.3369 C1738.5,410.3369 1738.5,410.3369 1738.5,651.6369 C1738.5,746.2269 1053.48,757.1078 799.07,757.9178" fill="none" id="ENV-to-API_Users" style="stroke:#181818;stroke-width:1;stroke-dasharray:7,7;"/><polygon fill="#181818" points="793.07,757.9369,802.0827,761.9082,798.07,757.921,802.0572,753.9082,793.07,757.9369" style="stroke:#181818;stroke-width:1;"/></g><!--SRC=[RLNRJXin47tVhnXH2P87s0VU-e2K6nKLWPHmaQWgPBBEuhAn5ziRcfPA_OL-1j_1d_HBEhx6sS13M9yvFfuPpumrqnM5WLZKGX6k5Up3-Tabt1BvawbCFJ9U4qaMe1v88PuPBs5EAaKJoypivPJhgLwXbAGpJNXPfPI8zOKig1o8IaZuS7Xuc70OrrJEoOpsoUonbABXXUSTsxyigz50IWexnr8WcHVGEQC_zC5t1RswXWlHe49t1tvb05-lJc3It5VigQ7VW2YuEi6bDvWJ_ltvA-PpDWlM_handf8Lgi0kZAacrk8GOqjoX1gT8LMiv31TAKqNNSiTJhFVYPkzoGdaCALoYSSexvS1JqoeIymO4rpPdOZUEJHmHayDg-a2IMk6nGBXM5ACZQDoj1iec7iptP2AQQemcbv5fKw80vi_7RXNcbLC4KqRQTWN_TuWKgyKbSeGnwmeAlfC98LUenymiiWRtzmPQ2FueU3yxTMUZe6zlPQIc71z5YQIgGM1yukn5N1BD1H4atkYSFzuDVrokcEpshT-DWNJS2hAaahdd06CvHh3BAmuT6v5uQu2FpRS6HNucwChSqcKbWrcHrBlpA0IJJ6lJ6GJ9AjyC3op8eFZEmkqI3T2Fc9ISbjmAZ0zQhWZleJE0ULBvylexDhuikVktPIuWaujf5RTB5Ozx7mQNUQJy-abv2oj3vk3M1tlykcwLZpRLSec6V9vB1bFimNphYI9vVD2NF7uBQ5qabrkHoLAnk45x4aBwkckV31stCVf3nEGwPxz8rDSq5ao0kPgkfdjJzX7GyowQSfD97m4DEHy_MajFh0jDFY-PV39tS9T6hVW65HoeMXWYxeoOML140uEZjBMze8HTlBEsmXQrwEl4Gw- -zCZ7dr9-dCNbh4dCj-SRL_QiFEbZOPJsxWx5PkiBPj2JZ95WboAnG1CGM0Mm-38rgesxNv6HE4sQ9FOma8IMx3BO0BYwJYAxEdzpC-cVRT2qsVHI4xiX3G9JVooCTZ1z16m_ZipIN6AvarTc7-pIYYixBN7s_Icw2OUjUssfN8fAgDYyRLJxbtAXrDexFH-UrM03obKr3HOvXyoe-XUlWq07plSk3R61HfG-vf8HkwDKh67Kun9qxjclCIpy7fmgjbDOVY7jKzfMCRe_WC0]--></g></svg>