<svg xmlns="http://www.w3.org/2000/svg" xmlns:xlink="http://www.w3.org/1999/xlink" contentStyleType="text/css" data-diagram-type="DESCRIPTION" height="1111px" preserveAspectRatio="none" style="width:1007px;height:1111px;background:#FFFFFF;" version="1.1" viewBox="0 0 1007 1111" width="1007px" zoomAndPan="magnify"><title>D&#233;ploiement - ONT Zarzis (Client &#8596; Cloudflare &#8596; App &#8596; MySQL)</title><defs/><g><g class="title" data-source-line="1"><text fill="#000000" font-family="sans-serif" font-size="14" font-weight="bold" lengthAdjust="spacing" textLength="496.3643" x="248.6437" y="22.9951">D&#233;ploiement - ONT Zarzis (Client &#8596; Cloudflare &#8596; App &#8596; MySQL)</text></g><!--cluster CF--><g class="cluster" data-entity="CF" data-source-line="11" data-uid="ent0004" id="cluster_CF"><path d="M54.3558,328.8288 C65.2918,310.4636 77.937,313.1767 88.7717,328.9309 C95.2022,314.1814 105.4089,314.3164 115.3323,325.3298 C124.775,308.1598 136.3234,309.0429 148.3495,322.5492 C159.6769,312.6307 170.0848,311.8753 177.0418,327.4651 C185.9949,313.3801 202.2336,313.476 211.0872,327.5853 C225.946,314.916 236.6126,319.4416 244.45,335.6869 C246.9065,335.3717 247.8865,336.2283 247.442,338.7483 C261.0996,344.8262 263.1269,359.0636 251.0077,368.2564 C261.7907,378.4903 261.3988,387.0013 248.2031,394.6912 C266.0273,401.8846 264.4962,417.7981 249.7792,426.5987 C262.977,434.7923 262.7399,443.9985 249.8307,452.2446 C262.5609,460.7993 265.657,471.5934 251.6313,481.7793 C265.397,489.3234 268.6289,500.4387 255.2655,511.3204 C267.5581,519.4341 270.4316,530.3437 256.4884,539.5922 C270.6982,550.4832 271.0487,559.8885 254.807,569.0409 C266.7107,578.4239 264.5606,588.5615 252.281,595.6487 C267.0194,602.8798 263.987,616.6567 252.616,624.1942 C263.945,631.9947 264.7161,644.5747 252.1242,651.9513 C266.0784,661.7626 266.0471,672.8028 251.8068,682.3194 C262.6388,695.4923 262.6656,705.4161 245.9177,713.3558 C259.8408,725.4276 253.0496,739.8425 237.45,743.6669 C239.9029,744.4809 240.9445,745.9897 239.1669,748.3536 C230.66,764.081 221.6119,763.675 209.6764,752.0502 C199.9956,767.6485 188.6085,767.9825 177.7953,753.2403 C171.5938,770.77 156.202,771.6693 146.4565,756.6528 C138.9872,768.7256 124.53,769.0469 117.0814,756.6279 C106.7066,768.1363 93.196,763.5236 88.6661,749.9945 C69.494,762.806 54.4668,759.1908 46.45,736.6669 C48.8648,734.8267 51.027,736.0461 51.2869,738.8914 C36.3409,731.8034 37.0594,719.3975 49.5077,710.5875 C33.935,702.5912 35.2056,693.4899 46.8919,682.9167 C30.8814,674.1196 34.7095,661.5382 47.0742,652.9135 C32.2484,647.1371 27.8679,633.2515 41.78,622.4765 C28.9753,613.0053 32.8985,604.4593 44.0615,597.1471 C32.1033,587.7362 30.5675,579.3138 42.9754,568.9639 C27.5372,561.7636 26.7218,550.7785 38.9126,539.7375 C24.9556,530.4711 27.4196,521.4082 38.9805,512.2048 C25.2391,501.7673 25.6469,490.1964 42.3993,483.375 C25.6026,474.1795 26.7791,459.7537 43.7707,452.0369 C32.0372,442.2213 33.7725,433.8476 45.5081,425.5728 C31.6571,417.6515 32.626,405.0521 46.0257,397.6356 C35.3078,386.1741 33.0777,375.9366 50.26,368.5347 C31.8227,356.3029 34.6294,337.9359 53.45,328.6869 C53.8161,328.2958 54.1316,328.3148 54.3558,328.8288" fill="none" style="stroke:#333333;stroke-width:1;"/><text fill="#000000" font-family="sans-serif" font-size="14" font-weight="bold" lengthAdjust="spacing" textLength="81.416" x="104.742" y="346.682">Cloudflare</text></g><!--cluster App--><g class="cluster" data-entity="App" data-source-line="17" data-uid="ent0008" id="cluster_App"><polygon fill="none" points="284.45,622.5769,294.45,612.5769,915.45,612.5769,915.45,968.2669,905.45,978.2669,284.45,978.2669,284.45,622.5769" style="stroke:#333333;stroke-width:1;"/><line style="stroke:#333333;stroke-width:1;" x1="905.45" x2="915.45" y1="622.5769" y2="612.5769"/><line style="stroke:#333333;stroke-width:1;" x1="284.45" x2="905.45" y1="622.5769" y2="622.5769"/><line style="stroke:#333333;stroke-width:1;" x1="905.45" x2="905.45" y1="622.5769" y2="978.2669"/><text fill="#000000" font-family="sans-serif" font-size="14" font-weight="bold" lengthAdjust="spacing" textLength="149.5566" x="521.1717" y="638.572">Application Next.js</text><text fill="#000000" font-family="sans-serif" font-size="14" font-weight="bold" lengthAdjust="spacing" textLength="194.3867" x="498.7566" y="654.8689">(App Router, API routes)</text></g><!--entity DNS--><g class="entity" data-entity="DNS" data-source-line="12" data-uid="ent0005" id="entity_DNS"><polygon fill="#F1F1F1" points="54.55,365.6869,64.55,355.6869,176.3488,355.6869,176.3488,391.9838,166.3488,401.9838,54.55,401.9838,54.55,365.6869" style="stroke:#333333;stroke-width:0.5;"/><line style="stroke:#333333;stroke-width:0.5;" x1="166.3488" x2="176.3488" y1="365.6869" y2="355.6869"/><line style="stroke:#333333;stroke-width:0.5;" x1="54.55" x2="166.3488" y1="365.6869" y2="365.6869"/><line style="stroke:#333333;stroke-width:0.5;" x1="166.3488" x2="166.3488" y1="365.6869" y2="401.9838"/><text fill="#000000" font-family="sans-serif" font-size="14" lengthAdjust="spacing" textLength="81.7988" x="69.55" y="388.682">DNS + CDN</text></g><!--entity Pages--><g class="entity" data-entity="Pages" data-source-line="13" data-uid="ent0006" id="entity_Pages"><polygon fill="#F1F1F1" points="54.92,488.9769,64.92,478.9769,233.9835,478.9769,233.9835,531.5706,223.9835,541.5706,54.92,541.5706,54.92,488.9769" style="stroke:#333333;stroke-width:0.5;"/><line style="stroke:#333333;stroke-width:0.5;" x1="223.9835" x2="233.9835" y1="488.9769" y2="478.9769"/><line style="stroke:#333333;stroke-width:0.5;" x1="54.92" x2="223.9835" y1="488.9769" y2="488.9769"/><line style="stroke:#333333;stroke-width:0.5;" x1="223.9835" x2="223.9835" y1="488.9769" y2="541.5706"/><text fill="#000000" font-family="sans-serif" font-size="14" lengthAdjust="spacing" textLength="139.0635" x="69.92" y="511.972">Pages (assets Next)</text><text fill="#000000" font-family="sans-serif" font-size="14" lengthAdjust="spacing" textLength="100.2422" x="69.92" y="528.2689">+ Cache HTTP</text></g><!--entity Workers--><g class="entity" data-entity="Workers" data-source-line="14" data-uid="ent0007" id="entity_Workers"><polygon fill="#F1F1F1" points="65.39,683.0769,75.39,673.0769,225.5043,673.0769,225.5043,725.6706,215.5043,735.6706,65.39,735.6706,65.39,683.0769" style="stroke:#333333;stroke-width:0.5;"/><line style="stroke:#333333;stroke-width:0.5;" x1="215.5043" x2="225.5043" y1="683.0769" y2="673.0769"/><line style="stroke:#333333;stroke-width:0.5;" x1="65.39" x2="215.5043" y1="683.0769" y2="683.0769"/><line style="stroke:#333333;stroke-width:0.5;" x1="215.5043" x2="215.5043" y1="683.0769" y2="735.6706"/><text fill="#000000" font-family="sans-serif" font-size="14" lengthAdjust="spacing" textLength="120.1143" x="80.39" y="706.072">Workers / Routes</text><text fill="#000000" font-family="sans-serif" font-size="14" lengthAdjust="spacing" textLength="114.8574" x="80.39" y="722.3689">(edge functions)</text></g><!--entity FE--><g class="entity" data-entity="FE" data-source-line="18" data-uid="ent0009" id="entity_FE"><rect fill="#F1F1F1" height="39.2969" rx="2.5" ry="2.5" style="stroke:#181818;stroke-width:0.5;" width="169.3232" x="308.79" y="684.7269"/><polygon fill="#F1F1F1" points="461.1132,689.7269,461.1132,703.7269,473.1132,703.7269,473.1132,695.7269,467.1132,689.7269,461.1132,689.7269" style="stroke:#181818;stroke-width:0.5;"/><line style="stroke:#181818;stroke-width:0.5;" x1="467.1132" x2="467.1132" y1="689.7269" y2="695.7269"/><line style="stroke:#181818;stroke-width:0.5;" x1="473.1132" x2="467.1132" y1="695.7269" y2="695.7269"/><text fill="#000000" font-family="sans-serif" font-size="14" lengthAdjust="spacing" textLength="139.3232" x="318.79" y="710.722">Frontend (SSR/SSG)</text></g><!--entity API--><g class="entity" data-entity="API" data-source-line="19" data-uid="ent0010" id="entity_API"><rect fill="#F1F1F1" height="39.2969" rx="2.5" ry="2.5" style="stroke:#181818;stroke-width:0.5;" width="210.4961" x="512.2" y="814.6669"/><polygon fill="#F1F1F1" points="705.6961,819.6669,705.6961,833.6669,717.6961,833.6669,717.6961,825.6669,711.6961,819.6669,705.6961,819.6669" style="stroke:#181818;stroke-width:0.5;"/><line style="stroke:#181818;stroke-width:0.5;" x1="711.6961" x2="711.6961" y1="819.6669" y2="825.6669"/><line style="stroke:#181818;stroke-width:0.5;" x1="717.6961" x2="711.6961" y1="825.6669" y2="825.6669"/><text fill="#000000" font-family="sans-serif" font-size="14" lengthAdjust="spacing" textLength="180.4961" x="522.2" y="840.662">API REST (route handlers)</text></g><!--entity Auth--><g class="entity" data-entity="Auth" data-source-line="20" data-uid="ent0011" id="entity_Auth"><rect fill="#F1F1F1" height="55.5938" rx="2.5" ry="2.5" style="stroke:#181818;stroke-width:0.5;" width="209.4297" x="512.74" y="676.5769"/><polygon fill="#F1F1F1" points="705.1697,681.5769,705.1697,695.5769,717.1697,695.5769,717.1697,687.5769,711.1697,681.5769,705.1697,681.5769" style="stroke:#181818;stroke-width:0.5;"/><line style="stroke:#181818;stroke-width:0.5;" x1="711.1697" x2="711.1697" y1="681.5769" y2="687.5769"/><line style="stroke:#181818;stroke-width:0.5;" x1="717.1697" x2="711.1697" y1="687.5769" y2="687.5769"/><text fill="#000000" font-family="sans-serif" font-size="14" lengthAdjust="spacing" textLength="76.2139" x="522.74" y="702.572">Auth/RBAC</text><text fill="#000000" font-family="sans-serif" font-size="14" lengthAdjust="spacing" textLength="179.4297" x="522.74" y="718.8689">(NextAuth + middleware)</text></g><!--entity Prisma--><g class="entity" data-entity="Prisma" data-source-line="21" data-uid="ent0012" id="entity_Prisma"><rect fill="#F1F1F1" height="39.2969" rx="2.5" ry="2.5" style="stroke:#181818;stroke-width:0.5;" width="114.875" x="659.01" y="914.9669"/><polygon fill="#F1F1F1" points="756.885,919.9669,756.885,933.9669,768.885,933.9669,768.885,925.9669,762.885,919.9669,756.885,919.9669" style="stroke:#181818;stroke-width:0.5;"/><line style="stroke:#181818;stroke-width:0.5;" x1="762.885" x2="762.885" y1="919.9669" y2="925.9669"/><line style="stroke:#181818;stroke-width:0.5;" x1="768.885" x2="762.885" y1="925.9669" y2="925.9669"/><text fill="#000000" font-family="sans-serif" font-size="14" lengthAdjust="spacing" textLength="84.875" x="669.01" y="940.962">Prisma ORM</text></g><!--entity Env--><g class="entity" data-entity="Env" data-source-line="22" data-uid="ent0013" id="entity_Env"><rect fill="#F1F1F1" height="39.2969" rx="2.5" ry="2.5" style="stroke:#181818;stroke-width:0.5;" width="126.3525" x="757.27" y="684.7269"/><polygon fill="#F1F1F1" points="866.6225,689.7269,866.6225,703.7269,878.6225,703.7269,878.6225,695.7269,872.6225,689.7269,866.6225,689.7269" style="stroke:#181818;stroke-width:0.5;"/><line style="stroke:#181818;stroke-width:0.5;" x1="872.6225" x2="872.6225" y1="689.7269" y2="695.7269"/><line style="stroke:#181818;stroke-width:0.5;" x1="878.6225" x2="872.6225" y1="695.7269" y2="695.7269"/><text fill="#000000" font-family="sans-serif" font-size="14" lengthAdjust="spacing" textLength="96.3525" x="767.27" y="710.722">.env (secrets)</text></g><!--entity User--><g class="entity" data-entity="User" data-source-line="7" data-uid="ent0002" id="entity_User"><ellipse cx="115.4549" cy="51.2969" fill="#F1F1F1" rx="8" ry="8" style="stroke:#181818;stroke-width:0.5;"/><path d="M115.4549,59.2969 L115.4549,86.2969 M102.4549,67.2969 L128.4549,67.2969 M115.4549,86.2969 L102.4549,101.2969 M115.4549,86.2969 L128.4549,101.2969" fill="none" style="stroke:#181818;stroke-width:0.5;"/><text fill="#000000" font-family="sans-serif" font-size="14" lengthAdjust="spacing" textLength="72.0098" x="79.45" y="115.792">Utilisateur</text></g><!--entity Browser--><g class="entity" data-entity="Browser" data-source-line="9" data-uid="ent0003" id="entity_Browser"><polygon fill="#F1F1F1" points="16,190.0869,26,180.0869,214.9014,180.0869,214.9014,232.6806,204.9014,242.6806,16,242.6806,16,190.0869" style="stroke:#333333;stroke-width:0.5;"/><line style="stroke:#333333;stroke-width:0.5;" x1="204.9014" x2="214.9014" y1="190.0869" y2="180.0869"/><line style="stroke:#333333;stroke-width:0.5;" x1="16" x2="204.9014" y1="190.0869" y2="190.0869"/><line style="stroke:#333333;stroke-width:0.5;" x1="204.9014" x2="204.9014" y1="190.0869" y2="242.6806"/><text fill="#000000" font-family="sans-serif" font-size="14" lengthAdjust="spacing" textLength="113.2168" x="31" y="213.082">Navigateur Web</text><text fill="#000000" font-family="sans-serif" font-size="14" lengthAdjust="spacing" textLength="158.9014" x="31" y="229.3789">(Chrome/Firefox/Edge)</text></g><!--entity DB--><g class="entity" data-entity="DB" data-source-line="25" data-uid="ent0014" id="entity_DB"><path d="M749.1,1043.2669 C749.1,1033.2669 829.4521,1033.2669 829.4521,1033.2669 C829.4521,1033.2669 909.8041,1033.2669 909.8041,1043.2669 L909.8041,1084.8606 C909.8041,1094.8606 829.4521,1094.8606 829.4521,1094.8606 C829.4521,1094.8606 749.1,1094.8606 749.1,1084.8606 L749.1,1043.2669" fill="#F1F1F1" style="stroke:#333333;stroke-width:0.5;"/><path d="M749.1,1043.2669 C749.1,1053.2669 829.4521,1053.2669 829.4521,1053.2669 C829.4521,1053.2669 909.8041,1053.2669 909.8041,1043.2669" fill="none" style="stroke:#333333;stroke-width:0.5;"/><text fill="#000000" font-family="sans-serif" font-size="14" lengthAdjust="spacing" textLength="48.0703" x="759.1" y="1070.262">MySQL</text><text fill="#000000" font-family="sans-serif" font-size="14" lengthAdjust="spacing" textLength="140.7041" x="759.1" y="1086.5589">(Instance manag&#233;e)</text></g><!--link User to Browser--><g class="link" data-entity-1="User" data-entity-2="Browser" data-source-line="28" data-uid="lnk15" id="link_User_Browser"><path d="M115.45,119.4369 C115.45,138.6969 115.45,155.8469 115.45,173.9669" fill="none" id="User-to-Browser" style="stroke:#181818;stroke-width:1;"/><polygon fill="#181818" points="115.45,179.9669,119.45,170.9669,115.45,174.9669,111.45,170.9669,115.45,179.9669" style="stroke:#181818;stroke-width:1;"/></g><!--link Browser to DNS--><g class="link" data-entity-1="Browser" data-entity-2="DNS" data-source-line="29" data-uid="lnk16" id="link_Browser_DNS"><path d="M115.45,243.1169 C115.45,275.6369 115.45,320.1869 115.45,349.2369" fill="none" id="Browser-to-DNS" style="stroke:#181818;stroke-width:1;"/><polygon fill="#181818" points="115.45,355.2369,119.45,346.2369,115.45,350.2369,111.45,346.2369,115.45,355.2369" style="stroke:#181818;stroke-width:1;"/><text fill="#000000" font-family="sans-serif" font-size="13" lengthAdjust="spacing" textLength="41.7485" x="116.45" y="285.7538">HTTPS</text><text fill="#000000" font-family="sans-serif" font-size="13" lengthAdjust="spacing" textLength="34.7407" x="119.9539" y="300.8866">GET /</text></g><!--link DNS to Pages--><g class="link" data-entity-1="DNS" data-entity-2="Pages" data-source-line="30" data-uid="lnk17" id="link_DNS_Pages"><path d="M120.5,402.3769 C125.24,423.5369 131.0476,449.4722 136.2976,472.8922" fill="none" id="DNS-to-Pages" style="stroke:#181818;stroke-width:1;"/><polygon fill="#181818" points="137.61,478.7469,139.5445,469.0899,136.5163,473.868,131.7382,470.8398,137.61,478.7469" style="stroke:#181818;stroke-width:1;"/><text fill="#000000" font-family="sans-serif" font-size="13" lengthAdjust="spacing" textLength="125.4678" x="132.45" y="445.0438">CDN cache / assets</text></g><!--link Pages to Workers--><g class="link" data-entity-1="Pages" data-entity-2="Workers" data-source-line="31" data-uid="lnk18" id="link_Pages_Workers"><path d="M144.61,541.7169 C144.8,577.5769 145.0683,630.817 145.2583,666.757" fill="none" id="Pages-to-Workers" style="stroke:#181818;stroke-width:1;"/><polygon fill="#181818" points="145.29,672.7569,149.2424,663.7359,145.2636,667.7569,141.2425,663.7781,145.29,672.7569" style="stroke:#181818;stroke-width:1;"/><text fill="#000000" font-family="sans-serif" font-size="13" lengthAdjust="spacing" textLength="145.209" x="146.45" y="584.6438">Requ&#234;tes dynamiques</text></g><!--link Workers to App--><g class="link" data-entity-1="Workers" data-entity-2="App" data-source-line="32" data-uid="lnk19" id="link_Workers_App"><path d="M162.35,735.7869 C173.95,753.4269 191.1,774.1869 212.45,784.6669 C221.0225,788.8769 237.2041,791.8245 259.0812,793.8445 C264.5505,794.3495 270.3758,794.7965 276.5272,795.1907 C278.065,795.2893 279.6232,795.3845 281.2014,795.4766 C281.9904,795.5226 276.7937,795.2347 277.5927,795.2791" fill="none" id="Workers-to-App" style="stroke:#181818;stroke-width:1;"/><polygon fill="#181818" points="283.5834,795.6123,274.8194,791.1187,278.5911,795.3347,274.3752,799.1064,283.5834,795.6123" style="stroke:#181818;stroke-width:1;"/><text fill="#000000" font-family="sans-serif" font-size="13" lengthAdjust="spacing" textLength="78.0952" x="213.45" y="780.7338">Proxy /fetch</text></g><!--link App to DB--><g class="link" data-entity-1="App" data-entity-2="DB" data-source-line="33" data-uid="lnk20" id="link_App_DB"><path d="M905.2824,978.9055 C904.9484,979.9574 904.6038,981.0045 904.2485,982.0463 C902.8271,986.2137 901.2331,990.2969 899.45,994.2669 C892.89,1008.8769 886.089,1017.9251 874.559,1028.7251" fill="none" id="App-to-DB" style="stroke:#181818;stroke-width:1;"/><polygon fill="#181818" points="870.18,1032.8269,879.483,1029.5936,873.8292,1029.4087,874.014,1023.7549,870.18,1032.8269" style="stroke:#181818;stroke-width:1;"/><text fill="#000000" font-family="sans-serif" font-size="13" lengthAdjust="spacing" textLength="84.2017" x="915.45" y="939.1838">SQL (Prisma)</text></g><!--link App to Pages--><!--link FE to API--><!--link API to Prisma--><g class="link" data-entity-1="API" data-entity-2="Prisma" data-source-line="38" data-uid="lnk23" id="link_API_Prisma"><path d="M636.54,854.2669 C654.07,871.6769 675.6516,893.1101 693.1616,910.4901" fill="none" id="API-to-Prisma" style="stroke:#181818;stroke-width:1;"/><polygon fill="#181818" points="697.42,914.7169,693.8502,905.5377,693.8713,911.1945,688.2145,911.2156,697.42,914.7169" style="stroke:#181818;stroke-width:1;"/></g><!--link Prisma to DB--><g class="link" data-entity-1="Prisma" data-entity-2="DB" data-source-line="39" data-uid="lnk24" id="link_Prisma_DB"><path d="M733.37,954.6969 C751.72,975.3869 777.2688,1004.218 798.7588,1028.448" fill="none" id="Prisma-to-DB" style="stroke:#181818;stroke-width:1;"/><polygon fill="#181818" points="802.74,1032.9369,799.7607,1023.5494,799.4223,1029.1962,793.7756,1028.8578,802.74,1032.9369" style="stroke:#181818;stroke-width:1;"/></g><!--link Auth to API--><g class="link" data-entity-1="Auth" data-entity-2="API" data-source-line="40" data-uid="lnk25" id="link_Auth_API"><path d="M617.45,732.5069 C617.45,757.1569 617.45,786.8669 617.45,808.5069" fill="none" id="Auth-to-API" style="stroke:#181818;stroke-width:1;stroke-dasharray:7,7;"/><polygon fill="#181818" points="617.45,814.5069,621.45,805.5069,617.45,809.5069,613.45,805.5069,617.45,814.5069" style="stroke:#181818;stroke-width:1;"/></g><!--link Env to App--><g class="link" data-entity-1="Env" data-entity-2="App" data-source-line="41" data-uid="lnk26" id="link_Env_App"><path d="M823.37,724.5069 C826.83,741.8169 834.06,767.2069 848.45,784.6669 C865.17,804.9669 882.07,794.9369 899.45,814.6669 C905.04,821.0169 906.0716,825.9601 906.3216,827.2901" fill="none" id="Env-to-App" style="stroke:#181818;stroke-width:1;stroke-dasharray:7,7;"/><polygon fill="#181818" points="907.43,833.1869,909.6985,823.6028,906.5063,828.2729,901.8362,825.0807,907.43,833.1869" style="stroke:#181818;stroke-width:1;"/><text fill="#000000" font-family="sans-serif" font-size="13" lengthAdjust="spacing" textLength="60.417" x="849.45" y="780.7338">Variables</text></g><!--SRC=[VLDBRjim4Dtp50DtKHjjh4LsNXI8PJiDa3YkvJH0cox6qiXY8v4EIULNTDiJz1BfDNAJdgH3qdPZ5EZAuhmtCu_lqKwwcc3q_BIkjQI6b8C3E9yku1EQHscXczRI5t__-0bfhTkYhD5GE1wjr-7tx27xSDeJzbggDHfim5POw3kfLb1YRUa5edH1GsqACgckjO5NXuU7B-3SB_WFNg339Tf_HmZC7NztBfoifKL7hUa0MhYmP8JmMw4pnLkv2X1Sql9ATTFAw8QIYJHKwljaNAoe5xg6Hj-5ng07Ed_l7U1q0jy4G9mwccRm1jBHD41ysY4pN17xXzQIip2bUzUxKap5l29ulrZCGaTWxNekjRacOo61kMuTMLP9B0lALkLEQcMZm0rDVD_UZQEePOwU4ZRrl_fM7r2OOzx2qUm4J9WPHtZCtmADaoMx1vs9qSgHAg2RPVCaouuZSJBUO_avyt6sW6wO1XMgecOjcwcpatrswwfaFZnAMOtNvSziLoCBRhfZGpTjNDxhcnbf6uJp-LaqAHpt67rIjz2rb1jsDquPgrlloFQHG2SyJDvyegn3bHCqg73r_BJPEXeAyHeM1akP2_zIuE3WtIxypM-e-P078RFiIXsF5v08N_9GJ7dWNm3a8Te4OkGYGfwqZNK0Sxffdtzn2b0yA6paJSlfRs5FzRaC-CBw_W6IabnU2LyAAeQCy8sW6_teUVcd_E-q83avetXKu7wks5zINxRon6IyL_Gf-Ho3_cZjnl2uHeIO-lt8P5lZTr3s4Ot4PKts3m00]--></g></svg>