<svg xmlns="http://www.w3.org/2000/svg" xmlns:xlink="http://www.w3.org/1999/xlink" contentStyleType="text/css" data-diagram-type="CLASS" height="940px" preserveAspectRatio="none" style="width:1863px;height:940px;background:#FFFFFF;" version="1.1" viewBox="0 0 1863 940" width="1863px" zoomAndPan="magnify"><title>ERD - ONT Zarzis (MySQL)</title><defs/><g><g class="title" data-source-line="1"><text fill="#000000" font-family="sans-serif" font-size="14" font-weight="bold" lengthAdjust="spacing" textLength="204.9824" x="822.2327" y="22.9951">ERD - ONT Zarzis (MySQL)</text></g><!--class U--><g class="entity" data-entity="U" data-source-line="7" data-uid="ent0002" id="entity_U"><rect fill="#F1F1F1" height="156.375" rx="2.5" ry="2.5" style="stroke:#181818;stroke-width:0.5;" width="272.2305" x="629.27" y="245.0769"/><text fill="#000000" font-family="sans-serif" font-size="14" lengthAdjust="spacing" textLength="77.9297" x="726.4204" y="263.072">utilisateurs</text><line style="stroke:#181818;stroke-width:0.5;" x1="630.27" x2="900.5005" y1="271.3738" y2="271.3738"/><ellipse cx="640.27" cy="285.0222" fill="#000000" rx="3" ry="3" style="stroke:#000000;stroke-width:1;"/><text fill="#000000" font-family="sans-serif" font-size="14" lengthAdjust="spacing" textLength="88.751" x="649.27" y="288.3689">id : INT &#171;PK&#187;</text><line style="stroke:#181818;stroke-width:1;" x1="630.27" x2="900.5005" y1="295.6706" y2="295.6706"/><text fill="#000000" font-family="sans-serif" font-size="14" lengthAdjust="spacing" textLength="150.8281" x="635.27" y="312.6657">nom : VARCHAR(120)</text><text fill="#000000" font-family="sans-serif" font-size="14" lengthAdjust="spacing" textLength="234.9033" x="635.27" y="328.9626">email : VARCHAR(190) &#171;UNIQUE&#187;</text><text fill="#000000" font-family="sans-serif" font-size="14" lengthAdjust="spacing" textLength="260.2305" x="635.27" y="345.2595">mot_de_passe_hash : VARCHAR(255)</text><text fill="#000000" font-family="sans-serif" font-size="14" lengthAdjust="spacing" textLength="246.9414" x="635.27" y="361.5564">role : ENUM('ADMIN','CHEF','TECH')</text><text fill="#000000" font-family="sans-serif" font-size="14" lengthAdjust="spacing" textLength="148.4287" x="635.27" y="377.8532">actif : TINYINT(1) = 1</text><text fill="#000000" font-family="sans-serif" font-size="14" lengthAdjust="spacing" textLength="135.1602" x="635.27" y="394.1501">cree_le : DATETIME</text></g><!--class S--><g class="entity" data-entity="S" data-source-line="18" data-uid="ent0003" id="entity_S"><rect fill="#F1F1F1" height="123.7813" rx="2.5" ry="2.5" style="stroke:#181818;stroke-width:0.5;" width="209.0869" x="1492.84" y="44.2969"/><text fill="#000000" font-family="sans-serif" font-size="14" lengthAdjust="spacing" textLength="32.5801" x="1581.0934" y="62.292">sites</text><line style="stroke:#181818;stroke-width:0.5;" x1="1493.84" x2="1700.9269" y1="70.5938" y2="70.5938"/><ellipse cx="1503.84" cy="84.2422" fill="#000000" rx="3" ry="3" style="stroke:#000000;stroke-width:1;"/><text fill="#000000" font-family="sans-serif" font-size="14" lengthAdjust="spacing" textLength="88.751" x="1512.84" y="87.5889">id : INT &#171;PK&#187;</text><line style="stroke:#181818;stroke-width:1;" x1="1493.84" x2="1700.9269" y1="94.8906" y2="94.8906"/><text fill="#000000" font-family="sans-serif" font-size="14" lengthAdjust="spacing" textLength="150.8281" x="1498.84" y="111.8857">nom : VARCHAR(120)</text><text fill="#000000" font-family="sans-serif" font-size="14" lengthAdjust="spacing" textLength="197.0869" x="1498.84" y="128.1826">gouvernorat : VARCHAR(90)</text><text fill="#000000" font-family="sans-serif" font-size="14" lengthAdjust="spacing" textLength="163.502" x="1498.84" y="144.4795">latitude : DECIMAL(9,6)</text><text fill="#000000" font-family="sans-serif" font-size="14" lengthAdjust="spacing" textLength="175.7588" x="1498.84" y="160.7764">longitude : DECIMAL(9,6)</text></g><!--class E--><g class="entity" data-entity="E" data-source-line="27" data-uid="ent0004" id="entity_E"><rect fill="#F1F1F1" height="140.0781" rx="2.5" ry="2.5" style="stroke:#181818;stroke-width:0.5;" width="401.2246" x="1009.77" y="253.2269"/><text fill="#000000" font-family="sans-serif" font-size="14" lengthAdjust="spacing" textLength="91.6699" x="1164.5473" y="271.222">equipements</text><line style="stroke:#181818;stroke-width:0.5;" x1="1010.77" x2="1409.9946" y1="279.5238" y2="279.5238"/><ellipse cx="1020.77" cy="293.1722" fill="#000000" rx="3" ry="3" style="stroke:#000000;stroke-width:1;"/><text fill="#000000" font-family="sans-serif" font-size="14" lengthAdjust="spacing" textLength="88.751" x="1029.77" y="296.5189">id : INT &#171;PK&#187;</text><line style="stroke:#181818;stroke-width:1;" x1="1010.77" x2="1409.9946" y1="303.8206" y2="303.8206"/><text fill="#000000" font-family="sans-serif" font-size="14" lengthAdjust="spacing" textLength="151.2109" x="1015.77" y="320.8157">site_id : INT &#171;FK S.id&#187;</text><text fill="#000000" font-family="sans-serif" font-size="14" lengthAdjust="spacing" textLength="139.0498" x="1015.77" y="337.1126">ref : VARCHAR(120)</text><text fill="#000000" font-family="sans-serif" font-size="14" lengthAdjust="spacing" textLength="142.1191" x="1015.77" y="353.4095">type : VARCHAR(80)</text><text fill="#000000" font-family="sans-serif" font-size="14" lengthAdjust="spacing" textLength="389.2246" x="1015.77" y="369.7064">statut : ENUM('ACTIF','MAINTENANCE','HORS_SERVICE')</text><text fill="#000000" font-family="sans-serif" font-size="14" lengthAdjust="spacing" textLength="321.6445" x="1015.77" y="386.0032">criticite : ENUM('FAIBLE','MOYENNE','ELEVEE')</text></g><!--class I--><g class="entity" data-entity="I" data-source-line="37" data-uid="ent0005" id="entity_I"><rect fill="#F1F1F1" height="254.1563" rx="2.5" ry="2.5" style="stroke:#181818;stroke-width:0.5;" width="391.8936" x="833.44" y="478.4469"/><text fill="#000000" font-family="sans-serif" font-size="14" lengthAdjust="spacing" textLength="92.5039" x="983.1348" y="496.442">interventions</text><line style="stroke:#181818;stroke-width:0.5;" x1="834.44" x2="1224.3336" y1="504.7438" y2="504.7438"/><ellipse cx="844.44" cy="518.3922" fill="#000000" rx="3" ry="3" style="stroke:#000000;stroke-width:1;"/><text fill="#000000" font-family="sans-serif" font-size="14" lengthAdjust="spacing" textLength="88.751" x="853.44" y="521.7389">id : INT &#171;PK&#187;</text><line style="stroke:#181818;stroke-width:1;" x1="834.44" x2="1224.3336" y1="529.0406" y2="529.0406"/><text fill="#000000" font-family="sans-serif" font-size="14" lengthAdjust="spacing" textLength="210.2598" x="839.44" y="546.0357">equipement_id : INT &#171;FK E.id&#187;</text><text fill="#000000" font-family="sans-serif" font-size="14" lengthAdjust="spacing" textLength="148.9893" x="839.44" y="562.3326">titre : VARCHAR(160)</text><text fill="#000000" font-family="sans-serif" font-size="14" lengthAdjust="spacing" textLength="126.998" x="839.44" y="578.6295">description : TEXT</text><text fill="#000000" font-family="sans-serif" font-size="14" lengthAdjust="spacing" textLength="119.3213" x="839.44" y="594.9264">priorite : TINYINT</text><text fill="#000000" font-family="sans-serif" font-size="14" lengthAdjust="spacing" textLength="379.8936" x="839.44" y="611.2232">statut : ENUM('EN_ATTENTE','EN_COURS','CLOTUREE')</text><text fill="#000000" font-family="sans-serif" font-size="14" lengthAdjust="spacing" textLength="168.4102" x="839.44" y="627.5201">cree_par : INT &#171;FK U.id&#187;</text><text fill="#000000" font-family="sans-serif" font-size="14" lengthAdjust="spacing" textLength="176.5176" x="839.44" y="643.817">assigne_a : INT &#171;FK U.id&#187;</text><text fill="#000000" font-family="sans-serif" font-size="14" lengthAdjust="spacing" textLength="164.2949" x="839.44" y="660.1139">date_debut : DATETIME</text><text fill="#000000" font-family="sans-serif" font-size="14" lengthAdjust="spacing" textLength="141.2373" x="839.44" y="676.4107">date_fin : DATETIME</text><text fill="#000000" font-family="sans-serif" font-size="14" lengthAdjust="spacing" textLength="101.0762" x="839.44" y="692.7076">rapport : TEXT</text><text fill="#000000" font-family="sans-serif" font-size="14" lengthAdjust="spacing" textLength="159.6807" x="839.44" y="709.0045">created_at : DATETIME</text><text fill="#000000" font-family="sans-serif" font-size="14" lengthAdjust="spacing" textLength="164.2607" x="839.44" y="725.3014">updated_at : DATETIME</text></g><!--class P--><g class="entity" data-entity="P" data-source-line="54" data-uid="ent0006" id="entity_P"><rect fill="#F1F1F1" height="123.7813" rx="2.5" ry="2.5" style="stroke:#181818;stroke-width:0.5;" width="218.377" x="656.2" y="809.6069"/><text fill="#000000" font-family="sans-serif" font-size="14" lengthAdjust="spacing" textLength="60.751" x="735.013" y="827.602">planning</text><line style="stroke:#181818;stroke-width:0.5;" x1="657.2" x2="873.577" y1="835.9038" y2="835.9038"/><ellipse cx="667.2" cy="849.5522" fill="#000000" rx="3" ry="3" style="stroke:#000000;stroke-width:1;"/><text fill="#000000" font-family="sans-serif" font-size="14" lengthAdjust="spacing" textLength="88.751" x="676.2" y="852.8989">id : INT &#171;PK&#187;</text><line style="stroke:#181818;stroke-width:1;" x1="657.2" x2="873.577" y1="860.2006" y2="860.2006"/><text fill="#000000" font-family="sans-serif" font-size="14" lengthAdjust="spacing" textLength="197.9209" x="662.2" y="877.1957">utilisateur_id : INT &#171;FK U.id&#187;</text><text fill="#000000" font-family="sans-serif" font-size="14" lengthAdjust="spacing" textLength="206.377" x="662.2" y="893.4926">intervention_id : INT &#171;FK I.id&#187;</text><text fill="#000000" font-family="sans-serif" font-size="14" lengthAdjust="spacing" textLength="125.7266" x="662.2" y="909.7895">debut : DATETIME</text><text fill="#000000" font-family="sans-serif" font-size="14" lengthAdjust="spacing" textLength="102.6689" x="662.2" y="926.0864">fin : DATETIME</text></g><!--class FQ--><g class="entity" data-entity="FQ" data-source-line="63" data-uid="ent0007" id="entity_FQ"><rect fill="#F1F1F1" height="156.375" rx="2.5" ry="2.5" style="stroke:#181818;stroke-width:0.5;" width="302.0898" x="1446.34" y="245.0769"/><text fill="#000000" font-family="sans-serif" font-size="14" lengthAdjust="spacing" textLength="78.1484" x="1558.3107" y="263.072">frequences</text><line style="stroke:#181818;stroke-width:0.5;" x1="1447.34" x2="1747.4298" y1="271.3738" y2="271.3738"/><ellipse cx="1457.34" cy="285.0222" fill="#000000" rx="3" ry="3" style="stroke:#000000;stroke-width:1;"/><text fill="#000000" font-family="sans-serif" font-size="14" lengthAdjust="spacing" textLength="88.751" x="1466.34" y="288.3689">id : INT &#171;PK&#187;</text><line style="stroke:#181818;stroke-width:1;" x1="1447.34" x2="1747.4298" y1="295.6706" y2="295.6706"/><text fill="#000000" font-family="sans-serif" font-size="14" lengthAdjust="spacing" textLength="151.2109" x="1452.34" y="312.6657">site_id : INT &#171;FK S.id&#187;</text><text fill="#000000" font-family="sans-serif" font-size="14" lengthAdjust="spacing" textLength="290.0898" x="1452.34" y="328.9626">service : VARCHAR(40)   -- FM / TNT / etc.</text><text fill="#000000" font-family="sans-serif" font-size="14" lengthAdjust="spacing" textLength="154.6836" x="1452.34" y="345.2595">bande : VARCHAR(40)</text><text fill="#000000" font-family="sans-serif" font-size="14" lengthAdjust="spacing" textLength="139.6514" x="1452.34" y="361.5564">mhz : DECIMAL(8,3)</text><text fill="#000000" font-family="sans-serif" font-size="14" lengthAdjust="spacing" textLength="167.9316" x="1452.34" y="377.8532">station : VARCHAR(120)</text><text fill="#000000" font-family="sans-serif" font-size="14" lengthAdjust="spacing" textLength="152.0586" x="1452.34" y="394.1501">statut : VARCHAR(40)</text></g><!--class AL--><g class="entity" data-entity="AL" data-source-line="74" data-uid="ent0008" id="entity_AL"><rect fill="#F1F1F1" height="188.9688" rx="2.5" ry="2.5" style="stroke:#181818;stroke-width:0.5;" width="381.4824" x="1444.64" y="511.0469"/><text fill="#000000" font-family="sans-serif" font-size="14" lengthAdjust="spacing" textLength="48.2344" x="1611.264" y="529.042">alertes</text><line style="stroke:#181818;stroke-width:0.5;" x1="1445.64" x2="1825.1224" y1="537.3438" y2="537.3438"/><ellipse cx="1455.64" cy="550.9922" fill="#000000" rx="3" ry="3" style="stroke:#000000;stroke-width:1;"/><text fill="#000000" font-family="sans-serif" font-size="14" lengthAdjust="spacing" textLength="88.751" x="1464.64" y="554.3389">id : INT &#171;PK&#187;</text><line style="stroke:#181818;stroke-width:1;" x1="1445.64" x2="1825.1224" y1="561.6406" y2="561.6406"/><text fill="#000000" font-family="sans-serif" font-size="14" lengthAdjust="spacing" textLength="148.9893" x="1450.64" y="578.6357">titre : VARCHAR(160)</text><text fill="#000000" font-family="sans-serif" font-size="14" lengthAdjust="spacing" textLength="112.0752" x="1450.64" y="594.9326">message : TEXT</text><text fill="#000000" font-family="sans-serif" font-size="14" lengthAdjust="spacing" textLength="369.4824" x="1450.64" y="611.2295">niveau : VARCHAR(40)   -- info/maintenance/incident</text><text fill="#000000" font-family="sans-serif" font-size="14" lengthAdjust="spacing" textLength="182.1777" x="1450.64" y="627.5264">visible_public : TINYINT(1)</text><text fill="#000000" font-family="sans-serif" font-size="14" lengthAdjust="spacing" textLength="125.7266" x="1450.64" y="643.8232">debut : DATETIME</text><text fill="#000000" font-family="sans-serif" font-size="14" lengthAdjust="spacing" textLength="102.6689" x="1450.64" y="660.1201">fin : DATETIME</text><text fill="#000000" font-family="sans-serif" font-size="14" lengthAdjust="spacing" textLength="180.7695" x="1450.64" y="676.417">publie_par : INT &#171;FK U.id&#187;</text><text fill="#000000" font-family="sans-serif" font-size="14" lengthAdjust="spacing" textLength="240.3105" x="1450.64" y="692.7139">site_id : INT &#171;FK S.id&#187;  -- optionnel</text></g><!--class AC--><g class="entity" data-entity="AC" data-source-line="87" data-uid="ent0009" id="entity_AC"><rect fill="#F1F1F1" height="123.7813" rx="2.5" ry="2.5" style="stroke:#181818;stroke-width:0.5;" width="192.7695" x="7" y="543.6369"/><text fill="#000000" font-family="sans-serif" font-size="14" lengthAdjust="spacing" textLength="68.3936" x="69.188" y="561.632">actualites</text><line style="stroke:#181818;stroke-width:0.5;" x1="8" x2="198.7695" y1="569.9338" y2="569.9338"/><ellipse cx="18" cy="583.5822" fill="#000000" rx="3" ry="3" style="stroke:#000000;stroke-width:1;"/><text fill="#000000" font-family="sans-serif" font-size="14" lengthAdjust="spacing" textLength="88.751" x="27" y="586.9289">id : INT &#171;PK&#187;</text><line style="stroke:#181818;stroke-width:1;" x1="8" x2="198.7695" y1="594.2306" y2="594.2306"/><text fill="#000000" font-family="sans-serif" font-size="14" lengthAdjust="spacing" textLength="148.9893" x="13" y="611.2257">titre : VARCHAR(160)</text><text fill="#000000" font-family="sans-serif" font-size="14" lengthAdjust="spacing" textLength="106.1416" x="13" y="627.5226">contenu : TEXT</text><text fill="#000000" font-family="sans-serif" font-size="14" lengthAdjust="spacing" textLength="147.5195" x="13" y="643.8195">publie_le : DATETIME</text><text fill="#000000" font-family="sans-serif" font-size="14" lengthAdjust="spacing" textLength="180.7695" x="13" y="660.1164">publie_par : INT &#171;FK U.id&#187;</text></g><!--class AU--><g class="entity" data-entity="AU" data-source-line="96" data-uid="ent0010" id="entity_AU"><rect fill="#F1F1F1" height="140.0781" rx="2.5" ry="2.5" style="stroke:#181818;stroke-width:0.5;" width="431.0498" x="234.86" y="535.4869"/><text fill="#000000" font-family="sans-serif" font-size="14" lengthAdjust="spacing" textLength="71.3535" x="414.7081" y="553.482">audit_logs</text><line style="stroke:#181818;stroke-width:0.5;" x1="235.86" x2="664.9098" y1="561.7838" y2="561.7838"/><ellipse cx="245.86" cy="575.4322" fill="#000000" rx="3" ry="3" style="stroke:#000000;stroke-width:1;"/><text fill="#000000" font-family="sans-serif" font-size="14" lengthAdjust="spacing" textLength="113.333" x="254.86" y="578.7789">id : BIGINT &#171;PK&#187;</text><line style="stroke:#181818;stroke-width:1;" x1="235.86" x2="664.9098" y1="586.0806" y2="586.0806"/><text fill="#000000" font-family="sans-serif" font-size="14" lengthAdjust="spacing" textLength="172.293" x="240.86" y="603.0757">acteur_id : INT &#171;FK U.id&#187;</text><text fill="#000000" font-family="sans-serif" font-size="14" lengthAdjust="spacing" textLength="419.0498" x="240.86" y="619.3726">action : VARCHAR(40)   -- CREATE/UPDATE/DELETE/LOGIN...</text><text fill="#000000" font-family="sans-serif" font-size="14" lengthAdjust="spacing" textLength="233.584" x="240.86" y="635.6695">cible : VARCHAR(120)   -- table/id</text><text fill="#000000" font-family="sans-serif" font-size="14" lengthAdjust="spacing" textLength="160.4941" x="240.86" y="651.9664">timestamp : DATETIME</text><text fill="#000000" font-family="sans-serif" font-size="14" lengthAdjust="spacing" textLength="95.7988" x="240.86" y="668.2632">details : TEXT</text></g><!--link S to E--><g class="link" data-entity-1="S" data-entity-2="E" data-source-line="107" data-uid="lnk11" id="link_S_E"><path codeLine="107" d="M1485.4072,169.4129 C1436.9472,196.3429 1401.7731,215.8921 1351.0731,244.0721" fill="none" id="S-E" style="stroke:#181818;stroke-width:1;"/><line style="stroke:#181818;stroke-width:1;" x1="1486.9606" x2="1490.8466" y1="163.9735" y2="170.9663"/><line style="stroke:#181818;stroke-width:1;" x1="1484.3383" x2="1488.2243" y1="165.4307" y2="172.4235"/><line style="stroke:#181818;stroke-width:1;" x1="1485.4072" x2="1492.4" y1="169.4129" y2="165.5269"/><line style="stroke:#181818;stroke-width:1;" x1="1342.3325" x2="1338.2549" y1="248.9303" y2="258.0612"/><line style="stroke:#181818;stroke-width:1;" x1="1342.3325" x2="1332.4251" y1="248.9303" y2="247.5725"/><line style="stroke:#181818;stroke-width:1;" x1="1342.3325" x2="1335.34" y1="248.9303" y2="252.8169"/><ellipse cx="1347.5768" cy="246.0154" fill="none" rx="4" ry="4" style="stroke:#181818;stroke-width:1;"/><polygon fill="#000000" points="1427.0096,209.0722,1436.3434,207.2471,1433.488,202.1094,1427.0096,209.0722" style="stroke:#000000;stroke-width:1;"/><text fill="#000000" font-family="sans-serif" font-size="13" lengthAdjust="spacing" textLength="53.9995" x="1440.38" y="211.1438">poss&#232;de</text></g><!--link S to FQ--><g class="link" data-entity-1="S" data-entity-2="FQ" data-source-line="108" data-uid="lnk12" id="link_S_FQ"><path codeLine="108" d="M1597.38,176.5269 C1597.38,200.2469 1597.38,201.6569 1597.38,226.7169" fill="none" id="S-FQ" style="stroke:#181818;stroke-width:1;"/><line style="stroke:#181818;stroke-width:1;" x1="1593.38" x2="1601.38" y1="172.5269" y2="172.5269"/><line style="stroke:#181818;stroke-width:1;" x1="1593.38" x2="1601.38" y1="175.5269" y2="175.5269"/><line style="stroke:#181818;stroke-width:1;" x1="1597.38" x2="1597.38" y1="176.5269" y2="168.5269"/><line style="stroke:#181818;stroke-width:1;" x1="1597.38" x2="1603.38" y1="236.7169" y2="244.7169"/><line style="stroke:#181818;stroke-width:1;" x1="1597.38" x2="1591.38" y1="236.7169" y2="244.7169"/><line style="stroke:#181818;stroke-width:1;" x1="1597.38" x2="1597.38" y1="236.7169" y2="244.7169"/><ellipse cx="1597.38" cy="230.7169" fill="none" rx="4" ry="4" style="stroke:#181818;stroke-width:1;"/><polygon fill="#000000" points="1602.38,211.6433,1605.3189,202.5982,1599.4411,202.5982,1602.38,211.6433" style="stroke:#000000;stroke-width:1;"/><text fill="#000000" font-family="sans-serif" font-size="13" lengthAdjust="spacing" textLength="44.3765" x="1611.38" y="211.1438">couvre</text></g><!--link E to I--><g class="link" data-entity-1="E" data-entity-2="I" data-source-line="109" data-uid="lnk13" id="link_E_I"><path codeLine="109" d="M1249.208,401.2014 C1254.268,419.6314 1253.06,431.4169 1244.38,448.4469 C1239.1,458.8269 1243.6969,454.3806 1236.5669,463.7006" fill="none" id="E-I" style="stroke:#181818;stroke-width:1;"/><line style="stroke:#181818;stroke-width:1;" x1="1244.2918" x2="1252.0063" y1="398.4032" y2="396.2851"/><line style="stroke:#181818;stroke-width:1;" x1="1245.086" x2="1252.8005" y1="401.2961" y2="399.1781"/><line style="stroke:#181818;stroke-width:1;" x1="1249.208" x2="1247.09" y1="401.2014" y2="393.4869"/><line style="stroke:#181818;stroke-width:1;" x1="1230.4909" x2="1230.3954" y1="471.643" y2="481.6425"/><line style="stroke:#181818;stroke-width:1;" x1="1230.4909" x2="1220.8646" y1="471.643" y2="474.3512"/><line style="stroke:#181818;stroke-width:1;" x1="1230.4909" x2="1225.63" y1="471.643" y2="477.9969"/><ellipse cx="1234.1365" cy="466.8776" fill="none" rx="4" ry="4" style="stroke:#181818;stroke-width:1;"/><polygon fill="#000000" points="1253.3888,444.914,1258.0625,436.6311,1252.3013,435.4659,1253.3888,444.914" style="stroke:#000000;stroke-width:1;"/><text fill="#000000" font-family="sans-serif" font-size="13" lengthAdjust="spacing" textLength="60.0679" x="1263.38" y="444.5138">concerne</text></g><!--link U to I--><g class="link" data-entity-1="U" data-entity-2="I" data-source-line="110" data-uid="lnk14" id="link_U_I"><path codeLine="110" d="M908.5564,387.3948 C930.0864,400.9748 943.88,412.7769 960.38,431.4469 C972.49,445.1469 974.5141,445.1503 982.9441,461.8903" fill="none" id="U-I" style="stroke:#181818;stroke-width:1;"/><line style="stroke:#181818;stroke-width:1;" x1="903.0393" x2="907.3072" y1="388.6441" y2="381.8776"/><line style="stroke:#181818;stroke-width:1;" x1="905.5767" x2="909.8446" y1="390.2445" y2="383.4781"/><line style="stroke:#181818;stroke-width:1;" x1="908.5564" x2="901.79" y1="387.3948" y2="383.1269"/><line style="stroke:#181818;stroke-width:1;" x1="987.4418" x2="996.3989" y1="470.8217" y2="475.2682"/><line style="stroke:#181818;stroke-width:1;" x1="987.4418" x2="985.6811" y1="470.8217" y2="480.6655"/><line style="stroke:#181818;stroke-width:1;" x1="987.4418" x2="991.04" y1="470.8217" y2="477.9669"/><ellipse cx="984.7432" cy="465.4629" fill="none" rx="4" ry="4" style="stroke:#181818;stroke-width:1;"/><text fill="#000000" font-family="sans-serif" font-size="13" lengthAdjust="spacing" textLength="148.7954" x="973.38" y="444.5138">cr&#233;e &gt;        ' I.cree_par</text></g><!--link U to I--><g class="link" data-entity-1="U" data-entity-2="I" data-source-line="111" data-uid="lnk15" id="link_U_I"><path codeLine="111" d="M770.7717,409.7145 C774.2217,426.0645 778.23,434.6869 787.38,448.4469 C799.98,467.3969 802.2533,472.6159 819.6533,487.9959" fill="none" id="U-I-1" style="stroke:#181818;stroke-width:1;"/><line style="stroke:#181818;stroke-width:1;" x1="766.032" x2="773.8597" y1="406.6265" y2="404.9748"/><line style="stroke:#181818;stroke-width:1;" x1="766.6514" x2="774.4791" y1="409.5619" y2="407.9102"/><line style="stroke:#181818;stroke-width:1;" x1="770.7717" x2="769.12" y1="409.7145" y2="401.8869"/><line style="stroke:#181818;stroke-width:1;" x1="827.1459" x2="837.1137" y1="494.6187" y2="495.4213"/><line style="stroke:#181818;stroke-width:1;" x1="827.1459" x2="829.1663" y1="494.6187" y2="504.4124"/><line style="stroke:#181818;stroke-width:1;" x1="827.1459" x2="833.14" y1="494.6187" y2="499.9169"/><ellipse cx="822.6504" cy="490.645" fill="none" rx="4" ry="4" style="stroke:#181818;stroke-width:1;"/><polygon fill="#000000" points="789.7317,435.7722,792.0297,445.001,797.0153,441.8878,789.7317,435.7722" style="stroke:#000000;stroke-width:1;"/><text fill="#000000" font-family="sans-serif" font-size="13" lengthAdjust="spacing" textLength="150.0269" x="801.38" y="444.5138">assign&#233;     ' I.assigne_a</text></g><!--link I to P--><g class="link" data-entity-1="I" data-entity-2="P" data-source-line="112" data-uid="lnk16" id="link_I_P"><path codeLine="112" d="M897.1431,738.7537 C870.5431,765.3537 862.0407,773.8617 839.1807,796.7117" fill="none" id="I-P" style="stroke:#181818;stroke-width:1;"/><line style="stroke:#181818;stroke-width:1;" x1="897.1431" x2="902.8" y1="733.0969" y2="738.7537"/><line style="stroke:#181818;stroke-width:1;" x1="895.0218" x2="900.6787" y1="735.2182" y2="740.875"/><line style="stroke:#181818;stroke-width:1;" x1="897.1431" x2="902.8" y1="738.7537" y2="733.0969"/><line style="stroke:#181818;stroke-width:1;" x1="832.1081" x2="830.6917" y1="803.7813" y2="813.6804"/><line style="stroke:#181818;stroke-width:1;" x1="832.1081" x2="822.2083" y1="803.7813" y2="805.1933"/><line style="stroke:#181818;stroke-width:1;" x1="832.1081" x2="826.45" y1="803.7813" y2="809.4369"/><ellipse cx="836.3517" cy="799.5395" fill="none" rx="4" ry="4" style="stroke:#181818;stroke-width:1;"/><polygon fill="#000000" points="866.8443,774.7087,875.3185,770.3913,871.1624,766.2349,866.8443,774.7087" style="stroke:#000000;stroke-width:1;"/><text fill="#000000" font-family="sans-serif" font-size="13" lengthAdjust="spacing" textLength="86.6582" x="879.38" y="775.6738">planifications</text></g><!--link U to P--><g class="link" data-entity-1="U" data-entity-2="P" data-source-line="113" data-uid="lnk17" id="link_U_P"><path codeLine="113" d="M758.1833,409.8353 C756.3833,434.3153 755.27,453.5069 754.38,478.4469 C750.36,591.3369 749.89,619.7369 754.38,732.6069 C755.38,757.6769 755.8666,767.3323 757.9066,791.1923" fill="none" id="U-P" style="stroke:#181818;stroke-width:1;"/><line style="stroke:#181818;stroke-width:1;" x1="754.4874" x2="762.4659" y1="405.5528" y2="406.1394"/><line style="stroke:#181818;stroke-width:1;" x1="754.2674" x2="762.2459" y1="408.5447" y2="409.1314"/><line style="stroke:#181818;stroke-width:1;" x1="758.1833" x2="758.77" y1="409.8353" y2="401.8569"/><line style="stroke:#181818;stroke-width:1;" x1="758.7585" x2="765.4182" y1="801.156" y2="808.6157"/><line style="stroke:#181818;stroke-width:1;" x1="758.7585" x2="753.4618" y1="801.156" y2="809.638"/><line style="stroke:#181818;stroke-width:1;" x1="758.7585" x2="759.44" y1="801.156" y2="809.1269"/><ellipse cx="758.2474" cy="795.1778" fill="none" rx="4" ry="4" style="stroke:#181818;stroke-width:1;"/><polygon fill="#000000" points="759.3764,610.5933,762.3219,601.5503,756.444,601.5461,759.3764,610.5933" style="stroke:#000000;stroke-width:1;"/><text fill="#000000" font-family="sans-serif" font-size="13" lengthAdjust="spacing" textLength="47.8677" x="768.38" y="610.0938">planifi&#233;</text></g><!--link U to AL--><g class="link" data-entity-1="U" data-entity-2="AL" data-source-line="114" data-uid="lnk18" id="link_U_AL"><path codeLine="114" d="M909.3374,375.9628 C939.0174,385.8828 962.81,393.2369 992.38,401.4469 C1052.86,418.2469 1069.93,414.5769 1130.38,431.4469 C1146.66,435.9869 1291.3443,485.6862 1427.4543,532.6462" fill="none" id="U-AL" style="stroke:#181818;stroke-width:1;"/><line style="stroke:#181818;stroke-width:1;" x1="904.2757" x2="906.8117" y1="378.4886" y2="370.9011"/><line style="stroke:#181818;stroke-width:1;" x1="907.121" x2="909.657" y1="379.4395" y2="371.8521"/><line style="stroke:#181818;stroke-width:1;" x1="909.3374" x2="901.75" y1="375.9628" y2="373.4269"/><line style="stroke:#181818;stroke-width:1;" x1="1436.9075" x2="1446.4269" y1="535.9077" y2="532.845"/><line style="stroke:#181818;stroke-width:1;" x1="1436.9075" x2="1442.5131" y1="535.9077" y2="544.1888"/><line style="stroke:#181818;stroke-width:1;" x1="1436.9075" x2="1444.47" y1="535.9077" y2="538.5169"/><ellipse cx="1431.2355" cy="533.9508" fill="none" rx="4" ry="4" style="stroke:#181818;stroke-width:1;"/><polygon fill="#000000" points="1184.1659,441.4606,1176.3588,436.0293,1174.6574,441.6555,1184.1659,441.4606" style="stroke:#000000;stroke-width:1;"/><text fill="#000000" font-family="sans-serif" font-size="13" lengthAdjust="spacing" textLength="39.9648" x="1188.38" y="444.5138">publie</text></g><!--link S to AL--><g class="link" data-entity-1="S" data-entity-2="AL" data-source-line="115" data-uid="lnk19" id="link_S_AL"><path codeLine="115" d="M1707.983,173.4994 C1733.903,194.2694 1752.09,214.9669 1766.38,245.0769 C1807.9,332.5269 1769.6791,421.9497 1720.4491,495.6397" fill="none" id="S-AL" style="stroke:#181818;stroke-width:1;"/><line style="stroke:#181818;stroke-width:1;" x1="1702.3602" x2="1707.3628" y1="174.1196" y2="167.8767"/><line style="stroke:#181818;stroke-width:1;" x1="1704.7013" x2="1709.7039" y1="175.9956" y2="169.7526"/><line style="stroke:#181818;stroke-width:1;" x1="1707.983" x2="1701.74" y1="173.4994" y2="168.4969"/><line style="stroke:#181818;stroke-width:1;" x1="1714.8941" x2="1715.4391" y1="503.9548" y2="513.9399"/><line style="stroke:#181818;stroke-width:1;" x1="1714.8941" x2="1705.4609" y1="503.9548" y2="507.2738"/><line style="stroke:#181818;stroke-width:1;" x1="1714.8941" x2="1710.45" y1="503.9548" y2="510.6069"/><ellipse cx="1718.2271" cy="498.9657" fill="none" rx="4" ry="4" style="stroke:#181818;stroke-width:1;"/><polygon fill="#000000" points="1786.5733,328.3195,1789.1603,319.1676,1783.2869,319.3949,1786.5733,328.3195" style="stroke:#000000;stroke-width:1;"/><text fill="#000000" font-family="sans-serif" font-size="13" lengthAdjust="spacing" textLength="60.0679" x="1795.38" y="327.8238">concerne</text></g><!--link U to AC--><g class="link" data-entity-1="U" data-entity-2="AC" data-source-line="116" data-uid="lnk20" id="link_U_AC"><path codeLine="116" d="M621.1362,342.3158 C504.7562,361.4658 344.43,399.6869 217.38,478.4469 C190.42,495.1669 177.477,506.2104 158.217,529.4804" fill="none" id="U-AC" style="stroke:#181818;stroke-width:1;"/><line style="stroke:#181818;stroke-width:1;" x1="624.4336" x2="625.7325" y1="337.7194" y2="345.6133"/><line style="stroke:#181818;stroke-width:1;" x1="621.4734" x2="622.7723" y1="338.2065" y2="346.1003"/><line style="stroke:#181818;stroke-width:1;" x1="621.1362" x2="629.03" y1="342.3158" y2="341.0169"/><line style="stroke:#181818;stroke-width:1;" x1="151.8409" x2="151.3622" y1="537.184" y2="547.1725"/><line style="stroke:#181818;stroke-width:1;" x1="151.8409" x2="142.1178" y1="537.184" y2="539.5212"/><line style="stroke:#181818;stroke-width:1;" x1="151.8409" x2="146.74" y1="537.184" y2="543.3469"/><ellipse cx="155.6665" cy="532.5618" fill="none" rx="4" ry="4" style="stroke:#181818;stroke-width:1;"/><polygon fill="#000000" points="299.7445,441.8875,309.2318,441.2217,307.0285,435.7724,299.7445,441.8875" style="stroke:#000000;stroke-width:1;"/><text fill="#000000" font-family="sans-serif" font-size="13" lengthAdjust="spacing" textLength="39.9648" x="313.38" y="444.5138">publie</text></g><!--link U to AU--><g class="link" data-entity-1="U" data-entity-2="AU" data-source-line="117" data-uid="lnk21" id="link_U_AU"><path codeLine="117" d="M658.3487,406.9209 C646.3487,416.7009 640.59,421.6569 629.38,431.4469 C591.78,464.2969 564.486,490.0875 531.786,522.3875" fill="none" id="U-AU" style="stroke:#181818;stroke-width:1;"/><line style="stroke:#181818;stroke-width:1;" x1="658.9223" x2="663.9764" y1="401.2933" y2="407.4946"/><line style="stroke:#181818;stroke-width:1;" x1="656.5968" x2="661.6509" y1="403.1885" y2="409.3898"/><line style="stroke:#181818;stroke-width:1;" x1="658.3487" x2="664.55" y1="406.9209" y2="401.8669"/><line style="stroke:#181818;stroke-width:1;" x1="524.6716" x2="523.1965" y1="529.4149" y2="539.3055"/><line style="stroke:#181818;stroke-width:1;" x1="524.6716" x2="514.7635" y1="529.4149" y2="530.7682"/><line style="stroke:#181818;stroke-width:1;" x1="524.6716" x2="518.98" y1="529.4149" y2="535.0369"/><ellipse cx="528.9402" cy="525.1985" fill="none" rx="4" ry="4" style="stroke:#181818;stroke-width:1;"/><polygon fill="#000000" points="630.6863,443.3832,639.3491,439.4581,635.3875,435.1158,630.6863,443.3832" style="stroke:#000000;stroke-width:1;"/><text fill="#000000" font-family="sans-serif" font-size="13" lengthAdjust="spacing" textLength="66.6313" x="643.38" y="444.5138">d&#233;clenche</text></g><!--SRC=[dLRTSjeu5BxdAJIz0NP2QBhRJiEacN69s7WA9l5FPhit7iKMeAcHl99C9_rvW7sJpNFmOdjai14EONVY2x3EEPA-x-WxHzPCPnHX_mhrqDGBqPz4VcCATIOFmUsusr9V6C-994ka5YGLNncVend95BKyEKc-a3aDz0Ei96cY2PzdjBLWAKK9amcyjzheWtaGza8tNFyTR8OjoZNJ3-XLeLd65D6qaEeL8Wf5w7iBeLyGIz40kO3hukBcq-Kbs7ez-E5Y2VOxnnzUEtxdxCthBXZfah3CDf-_xiAyo7Dl8rpENGeTfpJEYL8qNX2riABVl7rh5f42I0m0PpJfj9shYUkrJzh3Qpo2ln0FhzicY2IQpI0gTBtF0AvpraKVq1au4abfN2vmvOGuT2UuzRDLirHCqmszu0Nqvg9OKSc59DfodfU-ZC0EHLfkZ8Vkn1btpa_UbHx1vmTT5YxwLy5okeJX1Xq-ZixGY2tVw1CAJbbQ1aWwUufSF-JKihulZKeJNUXTgeUXQt8ySM1Hx3dU4CFeUke7SO3zEnU6tJB1JBC40DGJHuxxSMnY9zFFsFFC6nxZEspYBOwCQofNPYJuXgLxdEKkAGskkE8A2qkRrzcxabXA5Q3CpKP68lYF48ovP49kO6z5ypG5s8kT4BY79GSl7auZFp3g6q_3oCTL0gWHiBGHHHKYq3MRSngJWzuKwWlaVrzkMUjpQvynlc-L9C-5r3iAi3C4fZ5fJ2_oz83TIdsU4SwXSPHPlpcUTQiHDD9Uqx1FiX7ZrbIVicmGjF3D99mrvScsDaUtBvU_0cGiiKNn6_GWCn6D9gYFGfZHHrGdfn1yJtZQ23KzQl7DAjNt9xzMnRBHKwEqQWdPYrZSI4PbrNISyN5Yp-XvIPM2zhuJ0cShIef371cVYJvqOJWXJY2XVSOJk0MuXbahfjXz1jejxZEMx3NF_tLWK4DcvlFYV_PSIcYYB4XEixti9BeWMTsLdU6B4fG8mxUmYdq3TFyU-0_yDgeYPJhEn7oBQkyk_EZ-_XGOy3XICEQssjDEVLv37mEyVdHZKFQle6_2ttWAEvoU6eKcviGQejlCr0GyVPQMMG65QBBC6rs5QhYELPMLdxjl01-FdT2TUW7g959yRIiq4q9tjvy40VhnezSJt-4M6g1SABN-1whaScU7-Xn0pekLD6PScTtI2gAJtDYZFRjSFu8HRPysD8ggZ-u7NcnRwFgn3gnxQikj8cyCCcXgRCQIiYwLlQ7bXMKi1zJVO2i2cqzfFeGSv6Z5xymHcDFr8tnNyMG1hdy1]--></g></svg>