<svg xmlns="http://www.w3.org/2000/svg" xmlns:xlink="http://www.w3.org/1999/xlink" contentStyleType="text/css" data-diagram-type="SEQUENCE" height="283px" preserveAspectRatio="none" style="width:1017px;height:283px;background:#FFFFFF;" version="1.1" viewBox="0 0 1017 283" width="1017px" zoomAndPan="magnify"><defs/><g><g><title>Visiteur</title><rect fill="#000000" fill-opacity="0.00000" height="194.7969" width="8" x="30.6909" y="81.2969"/><line style="stroke:#181818;stroke-width:0.5;stroke-dasharray:5,5;" x1="34" x2="34" y1="81.2969" y2="276.0938"/></g><g><title>Site public</title><rect fill="#000000" fill-opacity="0.00000" height="194.7969" width="8" x="313.5356" y="81.2969"/><line style="stroke:#181818;stroke-width:0.5;stroke-dasharray:5,5;" x1="316.8096" x2="316.8096" y1="81.2969" y2="276.0938"/></g><g><title>API REST</title><rect fill="#000000" fill-opacity="0.00000" height="194.7969" width="8" x="582.1426" y="81.2969"/><line style="stroke:#181818;stroke-width:0.5;stroke-dasharray:5,5;" x1="585.8374" x2="585.8374" y1="81.2969" y2="276.0938"/></g><g><title>MySQL</title><rect fill="#000000" fill-opacity="0.00000" height="194.7969" width="8" x="978.4072" y="81.2969"/><line style="stroke:#181818;stroke-width:0.5;stroke-dasharray:5,5;" x1="982.3721" x2="982.3721" y1="81.2969" y2="276.0938"/></g><g class="participant participant-head" data-participant="V"><text fill="#000000" font-family="sans-serif" font-size="14" lengthAdjust="spacing" textLength="53.3818" x="5" y="77.9951">Visiteur</text><ellipse cx="34.6909" cy="13.5" fill="#E2E2F0" rx="8" ry="8" style="stroke:#181818;stroke-width:0.5;"/><path d="M34.6909,21.5 L34.6909,48.5 M21.6909,29.5 L47.6909,29.5 M34.6909,48.5 L21.6909,63.5 M34.6909,48.5 L47.6909,63.5" fill="none" style="stroke:#181818;stroke-width:0.5;"/></g><g class="participant participant-head" data-participant="Web"><rect fill="#E2E2F0" height="30.2969" rx="2.5" ry="2.5" style="stroke:#181818;stroke-width:0.5;" width="87.4521" x="273.8096" y="50"/><text fill="#000000" font-family="sans-serif" font-size="14" lengthAdjust="spacing" textLength="73.4521" x="280.8096" y="69.9951">Site public</text></g><g class="participant participant-head" data-participant="API"><rect fill="#E2E2F0" height="30.2969" rx="2.5" ry="2.5" style="stroke:#181818;stroke-width:0.5;" width="76.6104" x="547.8374" y="50"/><text fill="#000000" font-family="sans-serif" font-size="14" lengthAdjust="spacing" textLength="62.6104" x="554.8374" y="69.9951">API REST</text></g><g class="participant participant-head" data-participant="DB"><text fill="#000000" font-family="sans-serif" font-size="14" lengthAdjust="spacing" textLength="48.0703" x="955.3721" y="77.9951">MySQL</text><path d="M964.4072,29 C964.4072,19 982.4072,19 982.4072,19 C982.4072,19 1000.4072,19 1000.4072,29 L1000.4072,55 C1000.4072,65 982.4072,65 982.4072,65 C982.4072,65 964.4072,65 964.4072,55 L964.4072,29" fill="#E2E2F0" style="stroke:#181818;stroke-width:0.5;"/><path d="M964.4072,29 C964.4072,39 982.4072,39 982.4072,39 C982.4072,39 1000.4072,39 1000.4072,29" fill="none" style="stroke:#181818;stroke-width:0.5;"/></g><g class="message" data-participant-1="V" data-participant-2="Web"><polygon fill="#181818" points="305.5356,108.4297,315.5356,112.4297,305.5356,116.4297,309.5356,112.4297" style="stroke:#181818;stroke-width:1;"/><line style="stroke:#181818;stroke-width:1;" x1="34.6909" x2="311.5356" y1="112.4297" y2="112.4297"/><text fill="#000000" font-family="sans-serif" font-size="13" lengthAdjust="spacing" textLength="258.8447" x="41.6909" y="107.3638">Ouvrir /frequences?gouvernorat=Zarzis</text></g><g class="message" data-participant-1="Web" data-participant-2="API"><polygon fill="#181818" points="574.1426,137.5625,584.1426,141.5625,574.1426,145.5625,578.1426,141.5625" style="stroke:#181818;stroke-width:1;"/><line style="stroke:#181818;stroke-width:1;" x1="317.5356" x2="580.1426" y1="141.5625" y2="141.5625"/><text fill="#000000" font-family="sans-serif" font-size="13" lengthAdjust="spacing" textLength="244.6069" x="324.5356" y="136.4966">GET /frequences?gouvernorat=Zarzis</text></g><g class="message" data-participant-1="API" data-participant-2="DB"><polygon fill="#181818" points="970.4072,166.6953,980.4072,170.6953,970.4072,174.6953,974.4072,170.6953" style="stroke:#181818;stroke-width:1;"/><line style="stroke:#181818;stroke-width:1;" x1="586.1426" x2="976.4072" y1="170.6953" y2="170.6953"/><text fill="#000000" font-family="sans-serif" font-size="13" lengthAdjust="spacing" textLength="372.2646" x="593.1426" y="165.6294">SELECT * FROM frequences WHERE gouvernorat='Zarzis'</text></g><g class="message" data-participant-1="DB" data-participant-2="API"><polygon fill="#181818" points="597.1426,195.8281,587.1426,199.8281,597.1426,203.8281,593.1426,199.8281" style="stroke:#181818;stroke-width:1;"/><line style="stroke:#181818;stroke-width:1;stroke-dasharray:2,2;" x1="591.1426" x2="981.4072" y1="199.8281" y2="199.8281"/><text fill="#000000" font-family="sans-serif" font-size="13" lengthAdjust="spacing" textLength="30.7036" x="603.1426" y="194.7622">rows</text></g><g class="message" data-participant-1="API" data-participant-2="Web"><polygon fill="#181818" points="328.5356,224.9609,318.5356,228.9609,328.5356,232.9609,324.5356,228.9609" style="stroke:#181818;stroke-width:1;"/><line style="stroke:#181818;stroke-width:1;stroke-dasharray:2,2;" x1="322.5356" x2="585.1426" y1="228.9609" y2="228.9609"/><text fill="#000000" font-family="sans-serif" font-size="13" lengthAdjust="spacing" textLength="237.7261" x="334.5356" y="223.895">200 [{station, service, mhz, statut}]</text></g><g class="message" data-participant-1="Web" data-participant-2="V"><polygon fill="#181818" points="45.6909,254.0938,35.6909,258.0938,45.6909,262.0938,41.6909,258.0938" style="stroke:#181818;stroke-width:1;"/><line style="stroke:#181818;stroke-width:1;stroke-dasharray:2,2;" x1="39.6909" x2="316.5356" y1="258.0938" y2="258.0938"/><text fill="#000000" font-family="sans-serif" font-size="13" lengthAdjust="spacing" textLength="170.9614" x="51.6909" y="253.0278">Tableau filtr&#233; + recherche</text></g><!--SRC=[XOxFJiCm38VlUGghbqcmYOdZ942CXJ_Ifa5RTHA8WvkvD59fYfCK6EA1U0vUZBH30quSVB1_tsUxr6k2mXYNcnU1oXc6ADDME_8S0Lh8H8FijD8DrWwY92JG-BpIgezNbFy5Jg-l89P9sgUX4MjqcACbY1QloSsydy-cGcGmEkvqcC3IjwmP3Wgc9q-r8dloO7nBN1j6TtIBlD5MT6nGkWCJk93fVtm71dus3NWYv_8iXJquZvSB-F5WTIbZ2R_jmLOVY22ETlVOF7zlt7rzE1x3tPjrwBIfXs29Mwre28_b9dHXxDtx_VRhu6J1I36l23qKkdBy-G7xmAHAub1V]--></g></svg>