<svg xmlns="http://www.w3.org/2000/svg" xmlns:xlink="http://www.w3.org/1999/xlink" contentStyleType="text/css" data-diagram-type="SEQUENCE" height="560px" preserveAspectRatio="none" style="width:1031px;height:560px;background:#FFFFFF;" version="1.1" viewBox="0 0 1031 560" width="1031px" zoomAndPan="magnify"><defs/><g><g><title>Chef de station</title><rect fill="#000000" fill-opacity="0.00000" height="472.125" width="8" x="57.3853" y="81.2969"/><line style="stroke:#181818;stroke-width:0.5;stroke-dasharray:5,5;" x1="61" x2="61" y1="81.2969" y2="553.4219"/></g><g><title>UI Back.office</title><rect fill="#000000" fill-opacity="0.00000" height="472.125" width="8" x="299.2051" y="81.2969"/><line style="stroke:#181818;stroke-width:0.5;stroke-dasharray:5,5;" x1="302.9604" x2="302.9604" y1="81.2969" y2="553.4219"/></g><g><title>API REST</title><rect fill="#000000" fill-opacity="0.00000" height="472.125" width="8" x="612.9438" y="81.2969"/><line style="stroke:#181818;stroke-width:0.5;stroke-dasharray:5,5;" x1="616.6387" x2="616.6387" y1="81.2969" y2="553.4219"/></g><g><title>MySQL</title><rect fill="#000000" fill-opacity="0.00000" height="472.125" width="8" x="913.0034" y="81.2969"/><line style="stroke:#181818;stroke-width:0.5;stroke-dasharray:5,5;" x1="916.9683" x2="916.9683" y1="81.2969" y2="553.4219"/></g><g><title>Notifier</title><rect fill="#000000" fill-opacity="0.00000" height="472.125" width="8" x="982.8408" y="81.2969"/><line style="stroke:#181818;stroke-width:0.5;stroke-dasharray:5,5;" x1="986.0386" x2="986.0386" y1="81.2969" y2="553.4219"/></g><g class="participant participant-head" data-participant="Chef"><text fill="#000000" font-family="sans-serif" font-size="14" lengthAdjust="spacing" textLength="106.7705" x="5" y="77.9951">Chef de station</text><ellipse cx="61.3853" cy="13.5" fill="#E2E2F0" rx="8" ry="8" style="stroke:#181818;stroke-width:0.5;"/><path d="M61.3853,21.5 L61.3853,48.5 M48.3853,29.5 L74.3853,29.5 M61.3853,48.5 L48.3853,63.5 M61.3853,48.5 L74.3853,63.5" fill="none" style="stroke:#181818;stroke-width:0.5;"/></g><g class="participant participant-head" data-participant="UI"><rect fill="#E2E2F0" height="30.2969" rx="2.5" ry="2.5" style="stroke:#181818;stroke-width:0.5;" width="110.4893" x="247.9604" y="50"/><text fill="#000000" font-family="sans-serif" font-size="14" lengthAdjust="spacing" textLength="96.4893" x="254.9604" y="69.9951">UI Back&#8209;office</text></g><g class="participant participant-head" data-participant="API"><rect fill="#E2E2F0" height="30.2969" rx="2.5" ry="2.5" style="stroke:#181818;stroke-width:0.5;" width="76.6104" x="578.6387" y="50"/><text fill="#000000" font-family="sans-serif" font-size="14" lengthAdjust="spacing" textLength="62.6104" x="585.6387" y="69.9951">API REST</text></g><g class="participant participant-head" data-participant="DB"><text fill="#000000" font-family="sans-serif" font-size="14" lengthAdjust="spacing" textLength="48.0703" x="889.9683" y="77.9951">MySQL</text><path d="M899.0034,29 C899.0034,19 917.0034,19 917.0034,19 C917.0034,19 935.0034,19 935.0034,29 L935.0034,55 C935.0034,65 917.0034,65 917.0034,65 C917.0034,65 899.0034,65 899.0034,55 L899.0034,29" fill="#E2E2F0" style="stroke:#181818;stroke-width:0.5;"/><path d="M899.0034,29 C899.0034,39 917.0034,39 917.0034,39 C917.0034,39 935.0034,39 935.0034,29" fill="none" style="stroke:#181818;stroke-width:0.5;"/></g><g class="participant participant-head" data-participant="Notif"><rect fill="#E2E2F0" height="30.2969" rx="2.5" ry="2.5" style="stroke:#181818;stroke-width:0.5;" width="65.6045" x="954.0386" y="50"/><text fill="#000000" font-family="sans-serif" font-size="14" lengthAdjust="spacing" textLength="51.6045" x="961.0386" y="69.9951">Notifier</text></g><rect fill="#EEEEEE" height="3" style="stroke:#EEEEEE;stroke-width:1;" width="1024.6431" x="0" y="111.8633"/><line style="stroke:#000000;stroke-width:1;" x1="0" x2="1024.6431" y1="111.8633" y2="111.8633"/><line style="stroke:#000000;stroke-width:1;" x1="0" x2="1024.6431" y1="114.8633" y2="114.8633"/><rect fill="#EEEEEE" height="23.1328" style="stroke:#000000;stroke-width:2;" width="80.9233" x="471.8599" y="101.2969"/><text fill="#000000" font-family="sans-serif" font-size="13" font-weight="bold" lengthAdjust="spacing" textLength="62.3975" x="477.8599" y="117.3638">Cr&#233;ation</text><g class="message" data-participant-1="Chef" data-participant-2="UI"><polygon fill="#181818" points="291.2051,166.6953,301.2051,170.6953,291.2051,174.6953,295.2051,170.6953" style="stroke:#181818;stroke-width:1;"/><line style="stroke:#181818;stroke-width:1;" x1="61.3853" x2="297.2051" y1="170.6953" y2="170.6953"/><text fill="#000000" font-family="sans-serif" font-size="13" lengthAdjust="spacing" textLength="121.9575" x="68.3853" y="150.4966">Remplir formulaire</text><text fill="#000000" font-family="sans-serif" font-size="13" lengthAdjust="spacing" textLength="217.8198" x="68.3853" y="165.6294">(titre, &#233;quipement, priorit&#233;, desc)</text></g><g class="message" data-participant-1="UI" data-participant-2="API"><polygon fill="#181818" points="604.9438,195.8281,614.9438,199.8281,604.9438,203.8281,608.9438,199.8281" style="stroke:#181818;stroke-width:1;"/><line style="stroke:#181818;stroke-width:1;" x1="303.2051" x2="610.9438" y1="199.8281" y2="199.8281"/><text fill="#000000" font-family="sans-serif" font-size="13" lengthAdjust="spacing" textLength="178.6294" x="310.2051" y="194.7622">POST /interventions {data}</text></g><g class="message" data-participant-1="API" data-participant-2="DB"><polygon fill="#181818" points="905.0034,240.0938,915.0034,244.0938,905.0034,248.0938,909.0034,244.0938" style="stroke:#181818;stroke-width:1;"/><line style="stroke:#181818;stroke-width:1;" x1="616.9438" x2="911.0034" y1="244.0938" y2="244.0938"/><text fill="#000000" font-family="sans-serif" font-size="13" lengthAdjust="spacing" textLength="276.0596" x="623.9438" y="223.895">INSERT intervention (statut=EN_ATTENTE,</text><text fill="#000000" font-family="sans-serif" font-size="13" lengthAdjust="spacing" textLength="95.4941" x="623.9438" y="239.0278">creePar=Chef)</text></g><g class="message" data-participant-1="DB" data-participant-2="API"><polygon fill="#181818" points="627.9438,269.2266,617.9438,273.2266,627.9438,277.2266,623.9438,273.2266" style="stroke:#181818;stroke-width:1;"/><line style="stroke:#181818;stroke-width:1;stroke-dasharray:2,2;" x1="621.9438" x2="916.0034" y1="273.2266" y2="273.2266"/><text fill="#000000" font-family="sans-serif" font-size="13" lengthAdjust="spacing" textLength="50.0703" x="633.9438" y="268.1606">idInterv</text></g><g class="message" data-participant-1="API" data-participant-2="UI"><polygon fill="#181818" points="314.2051,298.3594,304.2051,302.3594,314.2051,306.3594,310.2051,302.3594" style="stroke:#181818;stroke-width:1;"/><line style="stroke:#181818;stroke-width:1;stroke-dasharray:2,2;" x1="308.2051" x2="615.9438" y1="302.3594" y2="302.3594"/><text fill="#000000" font-family="sans-serif" font-size="13" lengthAdjust="spacing" textLength="95.5576" x="320.2051" y="297.2935">201 {idInterv}</text></g><rect fill="#EEEEEE" height="3" style="stroke:#EEEEEE;stroke-width:1;" width="1024.6431" x="0" y="330.9258"/><line style="stroke:#000000;stroke-width:1;" x1="0" x2="1024.6431" y1="330.9258" y2="330.9258"/><line style="stroke:#000000;stroke-width:1;" x1="0" x2="1024.6431" y1="333.9258" y2="333.9258"/><rect fill="#EEEEEE" height="23.1328" style="stroke:#000000;stroke-width:2;" width="104.708" x="459.9675" y="320.3594"/><text fill="#000000" font-family="sans-serif" font-size="13" font-weight="bold" lengthAdjust="spacing" textLength="86.1821" x="465.9675" y="336.4263">Assignation</text><g class="message" data-participant-1="Chef" data-participant-2="UI"><polygon fill="#181818" points="291.2051,370.625,301.2051,374.625,291.2051,378.625,295.2051,374.625" style="stroke:#181818;stroke-width:1;"/><line style="stroke:#181818;stroke-width:1;" x1="61.3853" x2="297.2051" y1="374.625" y2="374.625"/><text fill="#000000" font-family="sans-serif" font-size="13" lengthAdjust="spacing" textLength="127.3467" x="68.3853" y="369.5591">Assigner technicien</text></g><g class="message" data-participant-1="UI" data-participant-2="API"><polygon fill="#181818" points="604.9438,399.7578,614.9438,403.7578,604.9438,407.7578,608.9438,403.7578" style="stroke:#181818;stroke-width:1;"/><line style="stroke:#181818;stroke-width:1;" x1="303.2051" x2="610.9438" y1="403.7578" y2="403.7578"/><text fill="#000000" font-family="sans-serif" font-size="13" lengthAdjust="spacing" textLength="289.7388" x="310.2051" y="398.6919">PATCH /interventions/{id} {assigneA: Tech}</text></g><g class="message" data-participant-1="API" data-participant-2="DB"><polygon fill="#181818" points="905.0034,444.0234,915.0034,448.0234,905.0034,452.0234,909.0034,448.0234" style="stroke:#181818;stroke-width:1;"/><line style="stroke:#181818;stroke-width:1;" x1="616.9438" x2="911.0034" y1="448.0234" y2="448.0234"/><text fill="#000000" font-family="sans-serif" font-size="13" lengthAdjust="spacing" textLength="252.9224" x="623.9438" y="427.8247">UPDATE intervention.assigneA = Tech,</text><text fill="#000000" font-family="sans-serif" font-size="13" lengthAdjust="spacing" textLength="119.7104" x="623.9438" y="442.9575">statut=EN_COURS</text></g><g class="message" data-participant-1="DB" data-participant-2="API"><polygon fill="#181818" points="627.9438,473.1563,617.9438,477.1563,627.9438,481.1563,623.9438,477.1563" style="stroke:#181818;stroke-width:1;"/><line style="stroke:#181818;stroke-width:1;stroke-dasharray:2,2;" x1="621.9438" x2="916.0034" y1="477.1563" y2="477.1563"/><text fill="#000000" font-family="sans-serif" font-size="13" lengthAdjust="spacing" textLength="15.4819" x="633.9438" y="472.0903">ok</text></g><g class="message" data-participant-1="API" data-participant-2="Notif"><polygon fill="#181818" points="974.8408,502.2891,984.8408,506.2891,974.8408,510.2891,978.8408,506.2891" style="stroke:#181818;stroke-width:1;"/><line style="stroke:#181818;stroke-width:1;" x1="616.9438" x2="980.8408" y1="506.2891" y2="506.2891"/><text fill="#000000" font-family="sans-serif" font-size="13" lengthAdjust="spacing" textLength="276.4722" x="623.9438" y="501.2231">send(Tech, "Nouvelle intervention #{id}")</text></g><g class="message" data-participant-1="API" data-participant-2="UI"><polygon fill="#181818" points="314.2051,531.4219,304.2051,535.4219,314.2051,539.4219,310.2051,535.4219" style="stroke:#181818;stroke-width:1;"/><line style="stroke:#181818;stroke-width:1;stroke-dasharray:2,2;" x1="308.2051" x2="615.9438" y1="535.4219" y2="535.4219"/><text fill="#000000" font-family="sans-serif" font-size="13" lengthAdjust="spacing" textLength="162.8174" x="320.2051" y="530.356">200 {statut: EN_COURS}</text></g><!--SRC=[RP5HJi9048RVznIJ-W892Ff8KfC2JMoYW7Hv8p5BcSe6sAtRXMW8YLVm69o3ctWIfzjKBV5nP_v_vlzcLtA9a6fj5_gDYSHg0zvWXIbGERV2Igqy43aKDPO9OsKYCw4iUBC8-Y9PVtrywZIL2JhPBAgBWaa4qp3chaaFjXHMB4IEu3s-nqyFhZxirqqZRMKgqRYcUp3c-p0mvvCB1BxFNCRs7Is47anncssa8GwptMs4D3XN3IkjmHQSJwyxcU4MbMr1PgGsqfvFBUBBaoOZEmqfKlPWCeuvTAIoQFQafaKv78gyHrO8I3ViaomQnU6KmryTD8fJxQmVZfu3piCH3rjpbHZ4YJ1-4RN9oDl-MIMNaRENWokCs-uD7AhMqJ47UIvVrF_KPGyDM4nMYgw7giuJyC7z1L27vX_X84fhq0DEtZhVR38CU5ZZkwxqu3i3mVq23yQpQLp7q-jgelizgkIebWrdBRvtjyVD1kidl2gIUStBYtJXKAxgGRNh-0q0]--></g></svg>