<svg xmlns="http://www.w3.org/2000/svg" xmlns:xlink="http://www.w3.org/1999/xlink" contentStyleType="text/css" data-diagram-type="SEQUENCE" height="328px" preserveAspectRatio="none" style="width:885px;height:328px;background:#FFFFFF;" version="1.1" viewBox="0 0 885 328" width="885px" zoomAndPan="magnify"><defs/><g><g><title>Technicien</title><rect fill="#000000" fill-opacity="0.00000" height="240.1953" width="8" x="41.7856" y="81.2969"/><line style="stroke:#181818;stroke-width:0.5;stroke-dasharray:5,5;" x1="45" x2="45" y1="81.2969" y2="321.4922"/></g><g><title>UI Back.office</title><rect fill="#000000" fill-opacity="0.00000" height="240.1953" width="8" x="220.0273" y="81.2969"/><line style="stroke:#181818;stroke-width:0.5;stroke-dasharray:5,5;" x1="223.7827" x2="223.7827" y1="81.2969" y2="321.4922"/></g><g><title>API REST</title><rect fill="#000000" fill-opacity="0.00000" height="240.1953" width="8" x="490.2021" y="81.2969"/><line style="stroke:#181818;stroke-width:0.5;stroke-dasharray:5,5;" x1="493.897" x2="493.897" y1="81.2969" y2="321.4922"/></g><g><title>MySQL</title><rect fill="#000000" fill-opacity="0.00000" height="240.1953" width="8" x="846.394" y="81.2969"/><line style="stroke:#181818;stroke-width:0.5;stroke-dasharray:5,5;" x1="850.3589" x2="850.3589" y1="81.2969" y2="321.4922"/></g><g class="participant participant-head" data-participant="Tech"><text fill="#000000" font-family="sans-serif" font-size="14" lengthAdjust="spacing" textLength="75.5713" x="5" y="77.9951">Technicien</text><ellipse cx="45.7856" cy="13.5" fill="#E2E2F0" rx="8" ry="8" style="stroke:#181818;stroke-width:0.5;"/><path d="M45.7856,21.5 L45.7856,48.5 M32.7856,29.5 L58.7856,29.5 M45.7856,48.5 L32.7856,63.5 M45.7856,48.5 L58.7856,63.5" fill="none" style="stroke:#181818;stroke-width:0.5;"/></g><g class="participant participant-head" data-participant="UI"><rect fill="#E2E2F0" height="30.2969" rx="2.5" ry="2.5" style="stroke:#181818;stroke-width:0.5;" width="110.4893" x="168.7827" y="50"/><text fill="#000000" font-family="sans-serif" font-size="14" lengthAdjust="spacing" textLength="96.4893" x="175.7827" y="69.9951">UI Back&#8209;office</text></g><g class="participant participant-head" data-participant="API"><rect fill="#E2E2F0" height="30.2969" rx="2.5" ry="2.5" style="stroke:#181818;stroke-width:0.5;" width="76.6104" x="455.897" y="50"/><text fill="#000000" font-family="sans-serif" font-size="14" lengthAdjust="spacing" textLength="62.6104" x="462.897" y="69.9951">API REST</text></g><g class="participant participant-head" data-participant="DB"><text fill="#000000" font-family="sans-serif" font-size="14" lengthAdjust="spacing" textLength="48.0703" x="823.3589" y="77.9951">MySQL</text><path d="M832.394,29 C832.394,19 850.394,19 850.394,19 C850.394,19 868.394,19 868.394,29 L868.394,55 C868.394,65 850.394,65 850.394,65 C850.394,65 832.394,65 832.394,55 L832.394,29" fill="#E2E2F0" style="stroke:#181818;stroke-width:0.5;"/><path d="M832.394,29 C832.394,39 850.394,39 850.394,39 C850.394,39 868.394,39 868.394,29" fill="none" style="stroke:#181818;stroke-width:0.5;"/></g><g class="message" data-participant-1="Tech" data-participant-2="UI"><polygon fill="#181818" points="212.0273,123.5625,222.0273,127.5625,212.0273,131.5625,216.0273,127.5625" style="stroke:#181818;stroke-width:1;"/><line style="stroke:#181818;stroke-width:1;" x1="45.7856" x2="218.0273" y1="127.5625" y2="127.5625"/><text fill="#000000" font-family="sans-serif" font-size="13" lengthAdjust="spacing" textLength="123.7222" x="52.7856" y="107.3638">Ouvrir intervention</text><text fill="#000000" font-family="sans-serif" font-size="13" lengthAdjust="spacing" textLength="124.4585" x="52.7856" y="122.4966">et saisir rapport/fin</text></g><g class="message" data-participant-1="UI" data-participant-2="API"><polygon fill="#181818" points="482.2021,167.8281,492.2021,171.8281,482.2021,175.8281,486.2021,171.8281" style="stroke:#181818;stroke-width:1;"/><line style="stroke:#181818;stroke-width:1;" x1="224.0273" x2="488.2021" y1="171.8281" y2="171.8281"/><text fill="#000000" font-family="sans-serif" font-size="13" lengthAdjust="spacing" textLength="170.7202" x="231.0273" y="151.6294">PATCH /interventions/{id}</text><text fill="#000000" font-family="sans-serif" font-size="13" lengthAdjust="spacing" textLength="246.1748" x="231.0273" y="166.7622">{statut: CLOTUREE, rapport, dateFin}</text></g><g class="message" data-participant-1="API" data-participant-2="DB"><polygon fill="#181818" points="838.394,212.0938,848.394,216.0938,838.394,220.0938,842.394,216.0938" style="stroke:#181818;stroke-width:1;"/><line style="stroke:#181818;stroke-width:1;" x1="494.2021" x2="844.394" y1="216.0938" y2="216.0938"/><text fill="#000000" font-family="sans-serif" font-size="13" lengthAdjust="spacing" textLength="135.6685" x="501.2021" y="195.895">UPDATE intervention</text><text fill="#000000" font-family="sans-serif" font-size="13" lengthAdjust="spacing" textLength="332.1919" x="501.2021" y="211.0278">SET statut=CLOTUREE, rapport=?, dateFin=NOW()</text></g><g class="message" data-participant-1="DB" data-participant-2="API"><polygon fill="#181818" points="505.2021,241.2266,495.2021,245.2266,505.2021,249.2266,501.2021,245.2266" style="stroke:#181818;stroke-width:1;"/><line style="stroke:#181818;stroke-width:1;stroke-dasharray:2,2;" x1="499.2021" x2="849.394" y1="245.2266" y2="245.2266"/><text fill="#000000" font-family="sans-serif" font-size="13" lengthAdjust="spacing" textLength="15.4819" x="511.2021" y="240.1606">ok</text></g><g class="message" data-participant-1="API" data-participant-2="UI"><polygon fill="#181818" points="235.0273,270.3594,225.0273,274.3594,235.0273,278.3594,231.0273,274.3594" style="stroke:#181818;stroke-width:1;"/><line style="stroke:#181818;stroke-width:1;stroke-dasharray:2,2;" x1="229.0273" x2="493.2021" y1="274.3594" y2="274.3594"/><text fill="#000000" font-family="sans-serif" font-size="13" lengthAdjust="spacing" textLength="161.7383" x="241.0273" y="269.2935">200 {statut: CLOTUREE}</text></g><g class="message" data-participant-1="UI" data-participant-2="Tech"><polygon fill="#181818" points="56.7856,299.4922,46.7856,303.4922,56.7856,307.4922,52.7856,303.4922" style="stroke:#181818;stroke-width:1;"/><line style="stroke:#181818;stroke-width:1;stroke-dasharray:2,2;" x1="50.7856" x2="223.0273" y1="303.4922" y2="303.4922"/><text fill="#000000" font-family="sans-serif" font-size="13" lengthAdjust="spacing" textLength="154.2417" x="62.7856" y="298.4263">Confirmation de cl&#244;ture</text></g><!--SRC=[PP71IiD048Rl-nH3JWejAHu3KP8cOg2Qs2HuwMMxsT2bkXisawAKWA_Wk_W6lebFuYIbHUrn_ltdctzcDwgIK1k3Q_FAk41ZmIcas6WbbDGEy1Q6aZNS8aaDrmXEcK38nVRx_SFKjH9oj9N9NrEG9R2Cys9yf89L7FcQjnAS-xVySJ7gKSZOm8VfDG70WxJRMML1QPHs9pKgerTQ8hHSjQHRtZJ6ebihpSXFNSCO3xAWcD-1-xkjTVUgwbTwtoB73ZsOBzAYNCRnv4YP04MIjqhtRA0GB0g9LMPHKCJ_8kHn0GUGVyRnRqua_o5zkhXan9cUifdj0NzSyMesWxDG_RWEMSPha6vqhUmB7wO3VP5u_lh4pieV]--></g></svg>