<svg xmlns="http://www.w3.org/2000/svg" xmlns:xlink="http://www.w3.org/1999/xlink" contentStyleType="text/css" data-diagram-type="STATE" height="1304px" preserveAspectRatio="none" style="width:916px;height:1304px;background:#FFFFFF;" version="1.1" viewBox="0 0 916 1304" width="916px" zoomAndPan="magnify"><title>&#201;tats de l'objet Intervention</title><defs/><g><g class="title" data-source-line="1"><text fill="#000000" font-family="sans-serif" font-size="14" font-weight="bold" lengthAdjust="spacing" textLength="222.5098" x="339.9304" y="22.9951">&#201;tats de l'objet Intervention</text></g><!--cluster EN_COURS--><g class="cluster" data-entity="EN_COURS" data-source-line="11" data-uid="ent0002" id="cluster_EN_COURS"><path d="M19.5,261.2969 L470.5,261.2969 A12.5,12.5 0 0 1 483,273.7969 L483,282.5938 L7,282.5938 L7,273.7969 A12.5,12.5 0 0 1 19.5,261.2969" fill="#FFFFFF"/><rect fill="none" height="833" rx="12.5" ry="12.5" style="stroke:#333333;stroke-width:0.5;" width="476" x="7" y="261.2969"/><line style="stroke:#333333;stroke-width:0.5;" x1="7" x2="483" y1="282.5938" y2="282.5938"/><text fill="#000000" font-family="sans-serif" font-size="14" lengthAdjust="spacing" textLength="75.9746" x="207.0127" y="278.292">EN_COURS</text></g><ellipse cx="277" cy="314.2969" fill="#222222" rx="10" ry="10" style="stroke:#222222;stroke-width:1;"/><g id="EN_COURS.PLANIFIEE"><rect fill="#FFFFFF" height="50" rx="12.5" ry="12.5" style="stroke:#333333;stroke-width:0.5;" width="90.2939" x="231.85" y="401.2969"/><line style="stroke:#333333;stroke-width:0.5;" x1="231.85" x2="322.1439" y1="427.5938" y2="427.5938"/><text fill="#000000" font-family="sans-serif" font-size="14" lengthAdjust="spacing" textLength="70.2939" x="241.85" y="419.292">PLANIFIEE</text></g><g id="EN_COURS.EN_DEPLACEMENT"><rect fill="#FFFFFF" height="50" rx="12.5" ry="12.5" style="stroke:#333333;stroke-width:0.5;" width="150.334" x="201.83" y="528.2969"/><line style="stroke:#333333;stroke-width:0.5;" x1="201.83" x2="352.164" y1="554.5938" y2="554.5938"/><text fill="#000000" font-family="sans-serif" font-size="14" lengthAdjust="spacing" textLength="130.334" x="211.83" y="546.292">EN_DEPLACEMENT</text></g><g id="EN_COURS.DIAGNOSTIC"><rect fill="#FFFFFF" height="50" rx="12.5" ry="12.5" style="stroke:#333333;stroke-width:0.5;" width="108.1699" x="222.92" y="639.2969"/><line style="stroke:#333333;stroke-width:0.5;" x1="222.92" x2="331.0899" y1="665.5938" y2="665.5938"/><text fill="#000000" font-family="sans-serif" font-size="14" lengthAdjust="spacing" textLength="88.1699" x="232.92" y="657.292">DIAGNOSTIC</text></g><g id="EN_COURS.ACTION"><rect fill="#FFFFFF" height="50" rx="12.5" ry="12.5" style="stroke:#333333;stroke-width:0.5;" width="73.5254" x="240.24" y="766.2969"/><line style="stroke:#333333;stroke-width:0.5;" x1="240.24" x2="313.7654" y1="792.5938" y2="792.5938"/><text fill="#000000" font-family="sans-serif" font-size="14" lengthAdjust="spacing" textLength="53.5254" x="250.24" y="784.292">ACTION</text></g><g id="EN_COURS.EN_ATTENTE_PIECES"><rect fill="#FFFFFF" height="50" rx="12.5" ry="12.5" style="stroke:#333333;stroke-width:0.5;" width="165.6396" x="69.18" y="893.2969"/><line style="stroke:#333333;stroke-width:0.5;" x1="69.18" x2="234.8196" y1="919.5938" y2="919.5938"/><text fill="#000000" font-family="sans-serif" font-size="14" lengthAdjust="spacing" textLength="145.6396" x="79.18" y="911.292">EN_ATTENTE_PIECES</text></g><g id="EN_COURS.VERIFICATION"><rect fill="#FFFFFF" height="50" rx="12.5" ry="12.5" style="stroke:#333333;stroke-width:0.5;" width="117.9863" x="308.01" y="893.2969"/><line style="stroke:#333333;stroke-width:0.5;" x1="308.01" x2="425.9963" y1="919.5938" y2="919.5938"/><text fill="#000000" font-family="sans-serif" font-size="14" lengthAdjust="spacing" textLength="97.9863" x="318.01" y="911.292">VERIFICATION</text></g><g id="EN_COURS.TERMINEE"><rect fill="#FFFFFF" height="50" rx="12.5" ry="12.5" style="stroke:#333333;stroke-width:0.5;" width="91.4971" x="322.25" y="1020.2969"/><line style="stroke:#333333;stroke-width:0.5;" x1="322.25" x2="413.7471" y1="1046.5938" y2="1046.5938"/><text fill="#000000" font-family="sans-serif" font-size="14" lengthAdjust="spacing" textLength="71.4971" x="332.25" y="1038.292">TERMINEE</text></g><ellipse cx="614" cy="53.2969" fill="#222222" rx="10" ry="10" style="stroke:#222222;stroke-width:1;"/><g id="EN_ATTENTE"><rect fill="#FFFFFF" height="50" rx="12.5" ry="12.5" style="stroke:#333333;stroke-width:0.5;" width="109.7148" x="559.14" y="140.2969"/><line style="stroke:#333333;stroke-width:0.5;" x1="559.14" x2="668.8548" y1="166.5938" y2="166.5938"/><text fill="#000000" font-family="sans-serif" font-size="14" lengthAdjust="spacing" textLength="89.7148" x="569.14" y="158.292">EN_ATTENTE</text></g><g id="ANNULEE"><rect fill="#FFFFFF" height="50" rx="12.5" ry="12.5" style="stroke:#333333;stroke-width:0.5;" width="86.2607" x="617.87" y="401.2969"/><line style="stroke:#333333;stroke-width:0.5;" x1="617.87" x2="704.1307" y1="427.5938" y2="427.5938"/><text fill="#000000" font-family="sans-serif" font-size="14" lengthAdjust="spacing" textLength="66.2607" x="627.87" y="419.292">ANNULEE</text></g><g id="CLOTUREE"><rect fill="#FFFFFF" height="50" rx="12.5" ry="12.5" style="stroke:#333333;stroke-width:0.5;" width="94.8125" x="462.59" y="1165.2969"/><line style="stroke:#333333;stroke-width:0.5;" x1="462.59" x2="557.4025" y1="1191.5938" y2="1191.5938"/><text fill="#000000" font-family="sans-serif" font-size="14" lengthAdjust="spacing" textLength="74.8125" x="472.59" y="1183.292">CLOTUREE</text></g><ellipse cx="585" cy="1287.2969" fill="none" rx="11" ry="11" style="stroke:#222222;stroke-width:1;"/><ellipse cx="585" cy="1287.2969" fill="#222222" rx="6" ry="6" style="stroke:#222222;stroke-width:1;"/><!--link *start* to EN_ATTENTE--><g class="link" data-entity-1=".start." data-entity-2="EN_ATTENTE" data-source-line="6" data-uid="lnk4" id="link_.start._EN_ATTENTE"><path d="M614,63.6769 C614,80.4069 614,109.8869 614,133.9269" fill="none" id="*start*-to-EN_ATTENTE" style="stroke:#181818;stroke-width:1;"/><polygon fill="#181818" points="614,139.9269,618,130.9269,614,134.9269,610,130.9269,614,139.9269" style="stroke:#181818;stroke-width:1;"/><text fill="#000000" font-family="sans-serif" font-size="13" lengthAdjust="spacing" textLength="97.5254" x="615" y="106.3638">cr&#233;ation (Chef)</text></g><!--link EN_ATTENTE to EN_COURS--><g class="link" data-entity-1="EN_ATTENTE" data-entity-2="EN_COURS" data-source-line="8" data-uid="lnk5" id="link_EN_ATTENTE_EN_COURS"><path d="M591.05,190.5669 C571.615,211.1169 543.1975,241.1694 519.3488,266.3919 C507.4244,279.0031 496.6422,290.4069 488.6961,298.8116 C486.7096,300.9127 489.0222,298.4664 487.4167,300.1647" fill="none" id="EN_ATTENTE-to-EN_COURS" style="stroke:#181818;stroke-width:1;"/><polygon fill="#181818" points="483.2948,304.5248,492.3843,300.7327,486.7297,300.8914,486.5709,295.2368,483.2948,304.5248" style="stroke:#181818;stroke-width:1;"/><text fill="#000000" font-family="sans-serif" font-size="13" lengthAdjust="spacing" textLength="145.9453" x="562" y="233.3638">assignation technicien</text></g><!--link EN_ATTENTE to ANNULEE--><g class="link" data-entity-1="EN_ATTENTE" data-entity-2="ANNULEE" data-source-line="9" data-uid="lnk7" id="link_EN_ATTENTE_ANNULEE"><path d="M669.24,183.6469 C686.95,191.9369 704.84,203.7769 716,220.2969 C753.72,276.1469 759.52,310.7069 730,371.2969 C724.27,383.0569 719.3314,389.3172 709.0214,397.3572" fill="none" id="EN_ATTENTE-to-ANNULEE" style="stroke:#181818;stroke-width:1;"/><polygon fill="#181818" points="704.29,401.0469,713.8469,398.6666,708.2328,397.9721,708.9273,392.3581,704.29,401.0469" style="stroke:#181818;stroke-width:1;"/><text fill="#000000" font-family="sans-serif" font-size="13" lengthAdjust="spacing" textLength="159.3706" x="749" y="318.8638">annulation (Chef/Admin)</text></g><!--link *start*EN_COURS to PLANIFIEE--><g class="link" data-entity-1=".start.EN_COURS" data-entity-2="PLANIFIEE" data-source-line="12" data-uid="lnk10" id="link_.start.EN_COURS_PLANIFIEE"><path d="M277,324.6769 C277,341.4069 277,370.8869 277,394.9269" fill="none" id="*start*EN_COURS-to-PLANIFIEE" style="stroke:#181818;stroke-width:1;"/><polygon fill="#181818" points="277,400.9269,281,391.9269,277,395.9269,273,391.9269,277,400.9269" style="stroke:#181818;stroke-width:1;"/></g><!--link PLANIFIEE to EN_DEPLACEMENT--><g class="link" data-entity-1="PLANIFIEE" data-entity-2="EN_DEPLACEMENT" data-source-line="13" data-uid="lnk12" id="link_PLANIFIEE_EN_DEPLACEMENT"><path d="M277,451.6969 C277,473.7169 277,499.9569 277,521.9569" fill="none" id="PLANIFIEE-to-EN_DEPLACEMENT" style="stroke:#181818;stroke-width:1;"/><polygon fill="#181818" points="277,527.9569,281,518.9569,277,522.9569,273,518.9569,277,527.9569" style="stroke:#181818;stroke-width:1;"/><text fill="#000000" font-family="sans-serif" font-size="13" lengthAdjust="spacing" textLength="75.5244" x="278" y="494.3638">d&#233;part tech</text></g><!--link EN_DEPLACEMENT to DIAGNOSTIC--><g class="link" data-entity-1="EN_DEPLACEMENT" data-entity-2="DIAGNOSTIC" data-source-line="14" data-uid="lnk14" id="link_EN_DEPLACEMENT_DIAGNOSTIC"><path d="M277,578.7569 C277,596.7069 277,614.9869 277,632.9169" fill="none" id="EN_DEPLACEMENT-to-DIAGNOSTIC" style="stroke:#181818;stroke-width:1;"/><polygon fill="#181818" points="277,638.9169,281,629.9169,277,633.9169,273,629.9169,277,638.9169" style="stroke:#181818;stroke-width:1;"/></g><!--link DIAGNOSTIC to ACTION--><g class="link" data-entity-1="DIAGNOSTIC" data-entity-2="ACTION" data-source-line="15" data-uid="lnk16" id="link_DIAGNOSTIC_ACTION"><path d="M277,689.6969 C277,711.7169 277,737.9569 277,759.9569" fill="none" id="DIAGNOSTIC-to-ACTION" style="stroke:#181818;stroke-width:1;"/><polygon fill="#181818" points="277,765.9569,281,756.9569,277,760.9569,273,756.9569,277,765.9569" style="stroke:#181818;stroke-width:1;"/></g><!--link ACTION to EN_ATTENTE_PIECES--><g class="link" data-entity-1="ACTION" data-entity-2="EN_ATTENTE_PIECES" data-source-line="16" data-uid="lnk18" id="link_ACTION_EN_ATTENTE_PIECES"><path d="M239.98,796.2169 C184.64,802.9269 84.55,818.6369 63,846.2969 C48.97,864.3069 60.4568,877.6361 83.0568,890.0061" fill="none" id="ACTION-to-EN_ATTENTE_PIECES" style="stroke:#181818;stroke-width:1;"/><polygon fill="#181818" points="88.32,892.8869,82.3457,885.0569,83.934,890.4862,78.5047,892.0745,88.32,892.8869" style="stroke:#181818;stroke-width:1;"/><text fill="#000000" font-family="sans-serif" font-size="13" lengthAdjust="spacing" textLength="121.9512" x="64" y="859.3638">pi&#232;ces/d&#233;lai requis</text></g><!--link EN_ATTENTE_PIECES to ACTION--><g class="link" data-entity-1="EN_ATTENTE_PIECES" data-entity-2="ACTION" data-source-line="17" data-uid="lnk19" id="link_EN_ATTENTE_PIECES_ACTION"><path d="M175.88,892.8869 C189.36,879.1469 206.56,861.7069 222,846.2969 C231.76,836.5569 238.2844,830.1161 247.7144,820.8761" fill="none" id="EN_ATTENTE_PIECES-to-ACTION" style="stroke:#181818;stroke-width:1;"/><polygon fill="#181818" points="252,816.6769,242.7721,820.1187,248.4287,820.1762,248.3711,825.8328,252,816.6769" style="stroke:#181818;stroke-width:1;"/><text fill="#000000" font-family="sans-serif" font-size="13" lengthAdjust="spacing" textLength="89.4131" x="223" y="859.3638">pi&#232;ces re&#231;ues</text></g><!--link ACTION to VERIFICATION--><g class="link" data-entity-1="ACTION" data-entity-2="VERIFICATION" data-source-line="18" data-uid="lnk21" id="link_ACTION_VERIFICATION"><path d="M298.19,816.6869 C305.71,825.7469 314.03,836.2669 321,846.2969 C326.01,853.4969 326.34,855.8669 331,863.2969 C337.16,873.1269 340.8407,878.8187 347.0507,888.0487" fill="none" id="ACTION-to-VERIFICATION" style="stroke:#181818;stroke-width:1;"/><polygon fill="#181818" points="350.4,893.0269,348.6948,883.3268,347.6089,888.8784,342.0572,887.7925,350.4,893.0269" style="stroke:#181818;stroke-width:1;"/></g><!--link VERIFICATION to ACTION--><g class="link" data-entity-1="VERIFICATION" data-entity-2="ACTION" data-source-line="20" data-uid="lnk24" id="link_VERIFICATION_ACTION"><path d="M355.62,893.0369 C348.5,878.8769 338.68,860.9569 328,846.2969 C320.48,835.9769 315.3242,829.8768 306.7142,820.9868" fill="none" id="VERIFICATION-to-ACTION" style="stroke:#181818;stroke-width:1;"/><polygon fill="#181818" points="302.54,816.6769,305.928,825.9246,306.0185,820.2685,311.6747,820.359,302.54,816.6769" style="stroke:#181818;stroke-width:1;"/><text fill="#000000" font-family="sans-serif" font-size="13" lengthAdjust="spacing" textLength="82.729" x="341" y="859.3638">reprise si KO</text></g><!--link VERIFICATION to TERMINEE--><g class="link" data-entity-1="VERIFICATION" data-entity-2="TERMINEE" data-source-line="19" data-uid="lnk23" id="link_VERIFICATION_TERMINEE"><path d="M367.2,943.6969 C367.37,965.7169 367.5809,991.9571 367.7609,1013.9571" fill="none" id="VERIFICATION-to-TERMINEE" style="stroke:#181818;stroke-width:1;"/><polygon fill="#181818" points="367.81,1019.9569,371.7362,1010.9245,367.7691,1014.957,363.7365,1010.9899,367.81,1019.9569" style="stroke:#181818;stroke-width:1;"/><text fill="#000000" font-family="sans-serif" font-size="13" lengthAdjust="spacing" textLength="54.6279" x="369" y="986.3638">tests OK</text></g><!--link EN_COURS to CLOTUREE--><g class="link" data-entity-1="EN_COURS" data-entity-2="CLOTUREE" data-source-line="23" data-uid="lnk26" id="link_EN_COURS_CLOTUREE"><path d="M483.0856,330.4027 C483.1433,330.5187 483.2013,330.6353 483.2594,330.7524 C483.3757,330.9867 483.4927,331.2232 483.6104,331.462 C484.5524,333.3718 485.5412,335.423 486.5605,337.6001 C488.5992,341.9543 490.76,346.8122 492.9125,352.0506 C501.5225,373.0044 510,400.0469 510,425.2969 C510,425.2969 510,425.2969 510,1046.2969 C510,1088.0069 510,1130.5569 510,1159.0069" fill="none" id="EN_COURS-to-CLOTUREE" style="stroke:#181818;stroke-width:1;"/><polygon fill="#181818" points="510,1165.0069,514,1156.0069,510,1160.0069,506,1156.0069,510,1165.0069" style="stroke:#181818;stroke-width:1;"/><text fill="#000000" font-family="sans-serif" font-size="13" lengthAdjust="spacing" textLength="126.6802" x="511" y="732.3638">rapport saisi (Tech)</text></g><!--link EN_COURS to ANNULEE--><g class="link" data-entity-1="EN_COURS" data-entity-2="ANNULEE" data-source-line="24" data-uid="lnk27" id="link_EN_COURS_ANNULEE"><path d="M483.1674,320.5468 C483.2464,320.5974 483.3259,320.6483 483.4058,320.6995 C483.5658,320.8019 483.7277,320.9056 483.8917,321.0105 C484.2195,321.2204 484.5552,321.4352 484.8986,321.6548 C490.3928,325.1691 497.8519,329.9188 506.4462,335.3356 C523.635,346.1694 545.365,359.6719 565,371.2969 C582.11,381.4269 595.9322,389.3102 612.5222,398.5802" fill="none" id="EN_COURS-to-ANNULEE" style="stroke:#181818;stroke-width:1;"/><polygon fill="#181818" points="617.76,401.5069,611.8545,393.6249,613.3952,399.0679,607.9522,400.6087,617.76,401.5069" style="stroke:#181818;stroke-width:1;"/><text fill="#000000" font-family="sans-serif" font-size="13" lengthAdjust="spacing" textLength="159.3706" x="566" y="367.3638">annulation (Chef/Admin)</text></g><!--link TERMINEE to CLOTUREE--><g class="link" data-entity-1="TERMINEE" data-entity-2="CLOTUREE" data-source-line="26" data-uid="lnk28" id="link_TERMINEE_CLOTUREE"><path d="M360.28,1070.4169 C355.68,1089.6869 352.97,1116.4969 366,1135.2969 C387.52,1166.3469 423.3248,1178.5719 456.3448,1184.1819" fill="none" id="TERMINEE-to-CLOTUREE" style="stroke:#181818;stroke-width:1;"/><polygon fill="#181818" points="462.26,1185.1869,454.0571,1179.7359,457.3306,1184.3494,452.7172,1187.6229,462.26,1185.1869" style="stroke:#181818;stroke-width:1;"/><text fill="#000000" font-family="sans-serif" font-size="13" lengthAdjust="spacing" textLength="116.5938" x="367" y="1131.3638">validation/rapport</text></g><!--link CLOTUREE to *end*--><g class="link" data-entity-1="CLOTUREE" data-entity-2=".end." data-source-line="28" data-uid="lnk30" id="link_CLOTUREE_.end."><path d="M529.31,1215.7569 C545.46,1236.2169 563.8224,1259.4674 574.6924,1273.2374" fill="none" id="CLOTUREE-to-*end*" style="stroke:#181818;stroke-width:1;"/><polygon fill="#181818" points="578.41,1277.9469,575.9732,1268.4042,575.312,1274.0223,569.6939,1273.3611,578.41,1277.9469" style="stroke:#181818;stroke-width:1;"/></g><!--link ANNULEE to *end*--><g class="link" data-entity-1="ANNULEE" data-entity-2=".end." data-source-line="29" data-uid="lnk31" id="link_ANNULEE_.end."><path d="M661,451.7269 C661,476.9269 661,517.3569 661,552.2969 C661,552.2969 661,552.2969 661,1191.2969 C661,1233.5369 619.6665,1264.5271 599.3765,1277.4871" fill="none" id="ANNULEE-to-*end*" style="stroke:#181818;stroke-width:1;"/><polygon fill="#181818" points="594.32,1280.7169,604.058,1279.2432,598.5338,1278.0254,599.7516,1272.5012,594.32,1280.7169" style="stroke:#181818;stroke-width:1;"/></g><!--SRC=[ZLBBJiCm4BpxArRYm4EgUkYD0r8mBefQ4jIcN1129jcsXk04soq7n0Vm9S1tvCVOF9gsWGCvUJspC-FTEELIXEB3IMSXGKWFiuT7TE1hXsQDsgbCC_kaT2wDV0Qxb4dsglG2vZArk8kG0fvd9a73ipGpS30O37xXCdvQc6obauOph3x6Ra_keDSx0n7SUr4aWaZ0ASIc-9Pb03ZYIvmVCxO3DsmUpYPJuafhrKBNR8VnKgjOeUusU44m6ujIMsgzIdV4-rxoh3HPL3ctocyCO1FkUkm5_j0NWkxQyoR8XQ0hBgx8Y-IJufkUxQeenExWPSk5xrq6uJJoEU7Reex98pyCwBu-T2PpV-qBBif7vwhuYj7soIsL2Wo-h9IjxJhShUgsZVZ5vmhjli-DcD2xkDSas2qhF1AJAp-ePkZGqayJZlwYjMO6SwCiWbKm2jbxjSDwj2MDZyDeDgdKZCppZ4PcfIBkKKIJEzud_sDxRRgE-5gcAgaQ-eqFOorSScd7RAFVr3y0]--></g></svg>