<svg xmlns="http://www.w3.org/2000/svg" xmlns:xlink="http://www.w3.org/1999/xlink" contentStyleType="text/css" data-diagram-type="DESCRIPTION" height="557px" preserveAspectRatio="none" style="width:403px;height:557px;background:#FFFFFF;" version="1.1" viewBox="0 0 403 557" width="403px" zoomAndPan="magnify"><defs/><g><!--cluster Syst?me ONT Zarzis--><g class="cluster" data-entity="Syst.me ONT Zarzis" data-source-line="6" data-uid="ent0004" id="cluster_Syst.me ONT Zarzis"><rect fill="none" height="544" rx="2.5" ry="2.5" style="stroke:#181818;stroke-width:1;" width="243.17" x="154.6" y="7"/><text fill="#000000" font-family="sans-serif" font-size="14" font-weight="bold" lengthAdjust="spacing" textLength="158.5117" x="196.9291" y="21.9951">Syst&#232;me ONT Zarzis</text></g><!--entity UC1--><g class="entity" data-entity="UC1" data-source-line="7" data-uid="ent0005" id="entity_UC1"><ellipse cx="276.1858" cy="143.0012" fill="#F1F1F1" rx="99.0558" ry="22.2112" style="stroke:#181818;stroke-width:0.5;"/><text fill="#000000" font-family="sans-serif" font-size="14" lengthAdjust="spacing" textLength="173.9746" x="189.1985" y="147.6496">Consulter les fr&#233;quences</text></g><!--entity UC2--><g class="entity" data-entity="UC2" data-source-line="8" data-uid="ent0006" id="entity_UC2"><ellipse cx="276.1928" cy="64.0006" fill="#F1F1F1" rx="97.9028" ry="21.9806" style="stroke:#181818;stroke-width:0.5;"/><text fill="#000000" font-family="sans-serif" font-size="14" lengthAdjust="spacing" textLength="171.4248" x="190.4804" y="68.649">&#201;couter la radio en ligne</text></g><!--entity UC3--><g class="entity" data-entity="UC3" data-source-line="9" data-uid="ent0007" id="entity_UC3"><ellipse cx="276.1934" cy="365.9967" fill="#F1F1F1" rx="76.8334" ry="17.7667" style="stroke:#181818;stroke-width:0.5;"/><text fill="#000000" font-family="sans-serif" font-size="14" lengthAdjust="spacing" textLength="123.1494" x="214.6187" y="370.6451">Lire les actualit&#233;s</text></g><!--entity UC4--><g class="entity" data-entity="UC4" data-source-line="10" data-uid="ent0008" id="entity_UC4"><ellipse cx="276.1881" cy="292.9956" fill="#F1F1F1" rx="87.8781" ry="19.9756" style="stroke:#181818;stroke-width:0.5;"/><text fill="#000000" font-family="sans-serif" font-size="14" lengthAdjust="spacing" textLength="148.9209" x="201.7276" y="297.644">Acc&#233;der aux services</text></g><!--entity UC5--><g class="entity" data-entity="UC5" data-source-line="11" data-uid="ent0009" id="entity_UC5"><ellipse cx="276.1872" cy="218.9994" fill="#F1F1F1" rx="83.2972" ry="19.0594" style="stroke:#181818;stroke-width:0.5;"/><text fill="#000000" font-family="sans-serif" font-size="14" lengthAdjust="spacing" textLength="138.3867" x="206.9939" y="223.6479">Contacter la station</text></g><!--entity UC6--><g class="entity" data-entity="UC6" data-source-line="12" data-uid="ent0010" id="entity_UC6"><ellipse cx="276.1898" cy="517.998" fill="#F1F1F1" rx="74.6898" ry="17.338" style="stroke:#181818;stroke-width:0.5;"/><text fill="#000000" font-family="sans-serif" font-size="14" lengthAdjust="spacing" textLength="117.9746" x="217.2025" y="522.6464">G&#233;rer le contenu</text></g><!--entity UC7--><g class="entity" data-entity="UC7" data-source-line="13" data-uid="ent0011" id="entity_UC7"><ellipse cx="276.1923" cy="441.9965" fill="#F1F1F1" rx="105.5823" ry="23.5165" style="stroke:#181818;stroke-width:0.5;"/><text fill="#000000" font-family="sans-serif" font-size="14" lengthAdjust="spacing" textLength="188.2891" x="182.0477" y="446.6449">Administrer les utilisateurs</text></g><!--entity U--><g class="entity" data-entity="U" data-source-line="3" data-uid="ent0002" id="entity_U"><ellipse cx="58.3049" cy="189.35" fill="#F1F1F1" rx="8" ry="8" style="stroke:#181818;stroke-width:0.5;"/><path d="M58.3049,197.35 L58.3049,224.35 M45.3049,205.35 L71.3049,205.35 M58.3049,224.35 L45.3049,239.35 M58.3049,224.35 L71.3049,239.35" fill="none" style="stroke:#181818;stroke-width:0.5;"/><text fill="#000000" font-family="sans-serif" font-size="14" lengthAdjust="spacing" textLength="72.0098" x="22.3" y="253.8451">Utilisateur</text></g><!--entity A--><g class="entity" data-entity="A" data-source-line="4" data-uid="ent0003" id="entity_A"><ellipse cx="58.3018" cy="450.35" fill="#F1F1F1" rx="8" ry="8" style="stroke:#181818;stroke-width:0.5;"/><path d="M58.3018,458.35 L58.3018,485.35 M45.3018,466.35 L71.3018,466.35 M58.3018,485.35 L45.3018,500.35 M58.3018,485.35 L71.3018,500.35" fill="none" style="stroke:#181818;stroke-width:0.5;"/><text fill="#000000" font-family="sans-serif" font-size="14" lengthAdjust="spacing" textLength="104.6035" x="6" y="514.8451">Administrateur</text></g><!--link U to UC1--><g class="link" data-entity-1="U" data-entity-2="UC1" data-source-line="16" data-uid="lnk12" id="link_U_UC1"><path d="M94.64,203.01 C110.39,196.15 129.27,188.28 146.6,182 C167.99,174.25 185.9798,168.4634 207.1898,162.1434" fill="none" id="U-to-UC1" style="stroke:#181818;stroke-width:1;"/><polygon fill="#181818" points="212.94,160.43,203.1725,159.1666,208.1482,161.8578,205.457,166.8335,212.94,160.43" style="stroke:#181818;stroke-width:1;"/></g><!--link U to UC2--><g class="link" data-entity-1="U" data-entity-2="UC2" data-source-line="17" data-uid="lnk13" id="link_U_UC2"><path d="M79.68,180.48 C94.95,155.08 118.09,122.93 146.6,103 C162.47,91.91 175.8387,85.6856 194.3987,79.9356" fill="none" id="U-to-UC2" style="stroke:#181818;stroke-width:1;"/><polygon fill="#181818" points="200.13,78.16,190.3494,77.0025,195.354,79.6396,192.7168,84.6442,200.13,78.16" style="stroke:#181818;stroke-width:1;"/></g><!--link U to UC3--><g class="link" data-entity-1="U" data-entity-2="UC3" data-source-line="18" data-uid="lnk14" id="link_U_UC3"><path d="M80.93,257.63 C96.3,281.76 119.08,311.62 146.6,330 C165.69,342.74 183.4148,349.5725 205.1348,354.9325" fill="none" id="U-to-UC3" style="stroke:#181818;stroke-width:1;"/><polygon fill="#181818" points="210.96,356.37,203.1805,350.3302,206.1056,355.1721,201.2638,358.0972,210.96,356.37" style="stroke:#181818;stroke-width:1;"/></g><!--link U to UC4--><g class="link" data-entity-1="U" data-entity-2="UC4" data-source-line="19" data-uid="lnk15" id="link_U_UC4"><path d="M94.6,235.11 C110.34,241.99 129.23,249.84 146.6,256 C169.37,264.07 189.0904,270.0788 211.3304,276.2788" fill="none" id="U-to-UC4" style="stroke:#181818;stroke-width:1;"/><polygon fill="#181818" points="217.11,277.89,209.5147,271.6201,212.2937,276.5473,207.3664,279.3262,217.11,277.89" style="stroke:#181818;stroke-width:1;"/></g><!--link U to UC5--><g class="link" data-entity-1="U" data-entity-2="UC5" data-source-line="20" data-uid="lnk16" id="link_U_UC5"><path d="M94.47,219 C120.99,219 152.49,219 186.46,219" fill="none" id="U-to-UC5" style="stroke:#181818;stroke-width:1;"/><polygon fill="#181818" points="192.46,219,183.46,215,187.46,219,183.46,223,192.46,219" style="stroke:#181818;stroke-width:1;"/></g><!--link A to UC6--><g class="link" data-entity-1="A" data-entity-2="UC6" data-source-line="22" data-uid="lnk17" id="link_A_UC6"><path d="M111.01,489.1 C142.45,494.64 176.8008,500.6799 209.5808,506.4499" fill="none" id="A-to-UC6" style="stroke:#181818;stroke-width:1;"/><polygon fill="#181818" points="215.49,507.49,207.3197,501.9904,210.5657,506.6232,205.9328,509.8692,215.49,507.49" style="stroke:#181818;stroke-width:1;"/></g><!--link A to UC7--><g class="link" data-entity-1="A" data-entity-2="UC7" data-source-line="23" data-uid="lnk18" id="link_A_UC7"><path d="M111.01,470.9 C135.34,466.62 159.0408,462.4396 186.3808,457.6296" fill="none" id="A-to-UC7" style="stroke:#181818;stroke-width:1;"/><polygon fill="#181818" points="192.29,456.59,182.733,454.2099,187.3656,457.4564,184.1192,462.0889,192.29,456.59" style="stroke:#181818;stroke-width:1;"/></g><!--SRC=[NP0xRWCn34HxdOBOtaNyxG8iNAG9aiBP9fsWfJS4P0aHAICVv02vIVOSkbZazVwIRW0-pf1ZyIWW7W8rBm8r1JH2tYcbZVW0HILaYRLW30LeXceObFM97B64QLOgTLdNhh48nU6T9VsS41uVdk1PXm_Y0ZuLG6GqcZEnzuwZ5GnWaU4OKliQqHdaQzB-PWwdR-DZnse8kYOFwC1Iux2dbtFwFZ_IkUPhexOagHrSLtEkD2QrTNRLyGqOmvcc-FM_MoLxNVDPzAMadjlCkRlKXkuXC7a3NUoXxP_KeRl-zJYLF8Jlr9TI5ImMjrqHWrgEQZMgzQWsIfMzt8vgzmi0]--></g></svg>